M48
;Layer_Color=9474304
;FILE_FORMAT=4:3
METRIC,LZ
;TYPE=PLATED
T1F00S00C0.300
T2F00S00C0.900
T4F00S00C1.100
;TYPE=NON_PLATED
T6F00S00C3.000
T7F00S00C3.200
T8F00S00C3.200
%
T01
X00015Y00015
X0003
X00045
X00015Y0003
Y00045
X00657Y0006
Y0008
X006724Y0007997
X00688Y0008
X01355Y00015
X0137
X01385
Y0003
Y00045
X01201Y00188
X01187Y00188
X01178Y00209
X01201Y00214
X0121235Y0025319
X011915Y0027462
X01183Y00286
X0117649Y0029303
X01159Y00293
X01165Y00286
X01173Y00279
X01174Y00263
X01154Y00264
X0112742Y0025943
X01129Y00241
X01155Y00229
X0117Y00239
X0114Y00287
X0111Y00298
X0109213Y0029782
X0108554Y0030526
X01085Y00276
X011Y00276
X0109218Y00257
X01093Y00336
X01106Y00331
X0114018Y0033833
X0114536Y00346
X0115736
X0116264Y0033794
X01172Y00323
X0118737Y0032841
X0118612Y0031378
X01209Y00316
X01219
X0123
X0121864Y0029633
X012453Y0029604
X01223Y00437
Y00449
X01192Y00433
X01173Y00436
X01169Y00407
X01188Y00402
X01137Y00421
Y00432
Y00443
Y00471
X0112
X01103
X01098Y00528
X01084Y00528
X0114Y00529
Y00514
X01191Y00528
X01207
X01221
Y00508
X01185Y00481
X01173
X00188Y0026
Y00246
Y00231
Y00198
Y00183
X00172
X0017069Y0025998
X00045Y00735
X0003
X00015
Y0072
Y00705
X01142Y00686
X01161
X0118
X01199
X0127Y00544
X01284Y00544
X01108
Y00555
X01071Y00553
Y00567
Y00581
X01084
X01385Y00705
Y0072
Y00735
X0137
X01355
T02
X0007516Y0061094
X0010056
X0012596
X0013866Y0063634
X0011326
X0008786
X0016406
X0015136Y0061094
T04
X001852Y00037
X002106
X00236
X002614
X006143
X006397
X010996
X01125
X011504
X011758
X0136Y002119
Y002373
Y002627
Y002881
Y003135
X01332Y003004
Y00275
Y002496
Y002242
X0131Y004573
Y004827
X011244Y00386
X01099
X00055Y003468
Y003214
Y00296
Y002706
X00024
Y00296
Y003214
Y003468
T06
X00883Y00255
Y00468
X00327
Y00255
T07
X009398Y0004007
X0007303Y0047124
X0033782Y006757
X0132905Y0068142
T08
X0006246Y0069984
X0017676
M30
