G04*
G04 #@! TF.GenerationSoftware,Altium Limited,Altium Designer,21.6.1 (37)*
G04*
G04 Layer_Physical_Order=2*
G04 Layer_Color=16711680*
%FSLAX44Y44*%
%MOMM*%
G71*
G04*
G04 #@! TF.SameCoordinates,FD64CF10-ECA6-46B9-A7EF-D48B42129E36*
G04*
G04*
G04 #@! TF.FilePolarity,Positive*
G04*
G01*
G75*
%ADD59C,0.2000*%
%ADD60C,0.4000*%
%ADD63C,1.6000*%
G04:AMPARAMS|DCode=64|XSize=1.6mm|YSize=1.6mm|CornerRadius=0.4mm|HoleSize=0mm|Usage=FLASHONLY|Rotation=270.000|XOffset=0mm|YOffset=0mm|HoleType=Round|Shape=RoundedRectangle|*
%AMROUNDEDRECTD64*
21,1,1.6000,0.8000,0,0,270.0*
21,1,0.8000,1.6000,0,0,270.0*
1,1,0.8000,-0.4000,-0.4000*
1,1,0.8000,-0.4000,0.4000*
1,1,0.8000,0.4000,0.4000*
1,1,0.8000,0.4000,-0.4000*
%
%ADD64ROUNDEDRECTD64*%
%ADD65O,4.5000X2.0000*%
%ADD66O,2.0000X4.0000*%
%ADD67O,4.0000X2.0000*%
G04:AMPARAMS|DCode=68|XSize=1.6mm|YSize=1.6mm|CornerRadius=0.4mm|HoleSize=0mm|Usage=FLASHONLY|Rotation=0.000|XOffset=0mm|YOffset=0mm|HoleType=Round|Shape=RoundedRectangle|*
%AMROUNDEDRECTD68*
21,1,1.6000,0.8000,0,0,0.0*
21,1,0.8000,1.6000,0,0,0.0*
1,1,0.8000,0.4000,-0.4000*
1,1,0.8000,-0.4000,-0.4000*
1,1,0.8000,-0.4000,0.4000*
1,1,0.8000,0.4000,0.4000*
%
%ADD68ROUNDEDRECTD68*%
%ADD69C,2.0000*%
G04:AMPARAMS|DCode=70|XSize=2mm|YSize=2mm|CornerRadius=0.5mm|HoleSize=0mm|Usage=FLASHONLY|Rotation=0.000|XOffset=0mm|YOffset=0mm|HoleType=Round|Shape=RoundedRectangle|*
%AMROUNDEDRECTD70*
21,1,2.0000,1.0000,0,0,0.0*
21,1,1.0000,2.0000,0,0,0.0*
1,1,1.0000,0.5000,-0.5000*
1,1,1.0000,-0.5000,-0.5000*
1,1,1.0000,-0.5000,0.5000*
1,1,1.0000,0.5000,0.5000*
%
%ADD70ROUNDEDRECTD70*%
G04:AMPARAMS|DCode=71|XSize=2mm|YSize=2mm|CornerRadius=0.5mm|HoleSize=0mm|Usage=FLASHONLY|Rotation=270.000|XOffset=0mm|YOffset=0mm|HoleType=Round|Shape=RoundedRectangle|*
%AMROUNDEDRECTD71*
21,1,2.0000,1.0000,0,0,270.0*
21,1,1.0000,2.0000,0,0,270.0*
1,1,1.0000,-0.5000,-0.5000*
1,1,1.0000,-0.5000,0.5000*
1,1,1.0000,0.5000,0.5000*
1,1,1.0000,0.5000,-0.5000*
%
%ADD71ROUNDEDRECTD71*%
%ADD72O,3.5000X5.0000*%
%ADD73C,3.2000*%
%ADD74C,1.4000*%
%ADD75C,0.6000*%
G36*
X1394902Y504858D02*
X1392506Y504371D01*
X1392365Y504312D01*
X1392214Y504302D01*
X1389676Y503629D01*
X1389574Y503579D01*
X1389460Y503566D01*
X1388208Y503174D01*
X1388085Y503107D01*
X1387947Y503084D01*
X1384941Y501961D01*
X1384682Y501801D01*
X1384390Y501717D01*
X1378689Y498779D01*
X1378373Y498528D01*
X1378007Y498357D01*
X1372837Y494561D01*
X1372564Y494263D01*
X1372229Y494037D01*
X1367719Y489477D01*
X1367496Y489140D01*
X1367201Y488864D01*
X1363462Y483653D01*
X1363295Y483285D01*
X1363047Y482966D01*
X1360171Y477233D01*
X1360064Y476844D01*
X1359869Y476490D01*
X1357928Y470377D01*
X1357883Y469976D01*
X1357746Y469596D01*
X1356788Y463254D01*
X1356807Y462850D01*
X1356731Y462453D01*
X1356780Y456040D01*
X1356861Y455644D01*
X1356849Y455240D01*
X1357903Y448914D01*
X1358046Y448536D01*
X1358097Y448135D01*
X1360130Y442052D01*
X1360331Y441702D01*
X1360444Y441314D01*
X1363406Y435625D01*
X1363659Y435310D01*
X1363832Y434945D01*
X1367650Y429791D01*
X1367949Y429520D01*
X1368177Y429186D01*
X1372756Y424695D01*
X1373094Y424474D01*
X1373371Y424180D01*
X1378599Y420463D01*
X1378967Y420298D01*
X1379287Y420052D01*
X1385033Y417201D01*
X1385326Y417121D01*
X1385587Y416965D01*
X1388610Y415888D01*
X1388746Y415868D01*
X1388867Y415803D01*
X1390051Y415451D01*
X1390158Y415441D01*
X1390255Y415395D01*
X1392650Y414789D01*
X1392793Y414782D01*
X1392926Y414728D01*
X1394902Y414343D01*
X1394902Y5098D01*
X5098D01*
Y744902D01*
X1394902D01*
X1394902Y504858D01*
D02*
G37*
%LPC*%
G36*
X991710Y702638D02*
X982980D01*
Y691260D01*
X1004191D01*
X1003927Y693264D01*
X1002663Y696314D01*
X1000653Y698934D01*
X998034Y700944D01*
X994983Y702207D01*
X991710Y702638D01*
D02*
G37*
G36*
X980440D02*
X971710D01*
X968436Y702207D01*
X965386Y700944D01*
X962766Y698934D01*
X960756Y696314D01*
X959492Y693264D01*
X959229Y691260D01*
X980440D01*
Y702638D01*
D02*
G37*
G36*
X1199995Y691000D02*
X1198006D01*
X1196168Y690239D01*
X1194761Y688832D01*
X1194255Y687609D01*
X1186208Y684856D01*
X1185000Y685785D01*
Y686995D01*
X1184239Y688832D01*
X1182832Y690239D01*
X1180995Y691000D01*
X1179006D01*
X1177168Y690239D01*
X1175761Y688832D01*
X1175004Y687004D01*
X1166525Y682954D01*
X1165538Y683890D01*
X1166000Y685006D01*
Y686995D01*
X1165239Y688832D01*
X1163832Y690239D01*
X1161995Y691000D01*
X1160006D01*
X1158168Y690239D01*
X1156761Y688832D01*
X1156000Y686995D01*
Y685006D01*
X1156328Y684214D01*
X1152513Y677957D01*
X1151838Y676881D01*
X1151645Y676630D01*
X1151533Y676358D01*
X1150264Y676313D01*
X1146509Y683821D01*
X1147000Y685006D01*
Y686995D01*
X1146239Y688832D01*
X1144832Y690239D01*
X1142995Y691000D01*
X1141006D01*
X1139168Y690239D01*
X1137761Y688832D01*
X1137000Y686995D01*
Y685006D01*
X1137761Y683168D01*
X1139168Y681761D01*
X1141006Y681000D01*
X1141080D01*
X1145063Y673035D01*
X1145590Y671878D01*
X1145901Y670724D01*
X1145929Y670584D01*
X1145941D01*
X1145941Y670584D01*
X1145942Y664999D01*
X1145943Y664998D01*
X1145942Y664996D01*
X1146280Y364767D01*
X1146268Y363555D01*
D01*
X1146127Y362907D01*
X1145666Y361868D01*
X1145666Y361868D01*
X1145680Y361776D01*
X1138049Y351349D01*
X1137940Y351114D01*
X1137498Y350539D01*
X1136591Y348349D01*
X1136282Y346000D01*
X1136320Y345712D01*
X1136311Y345663D01*
X1136358Y345426D01*
X1136380Y345253D01*
X1136358Y344987D01*
X1136703Y341922D01*
X1135946Y341165D01*
X1135185Y339328D01*
Y338716D01*
X1134107Y338045D01*
X1133481Y338353D01*
X1133451Y338360D01*
X1133346Y338404D01*
X1133301Y338434D01*
X1133249Y338444D01*
X1132986Y338553D01*
X1128201Y341485D01*
X1123934Y345130D01*
X1120289Y349397D01*
X1117357Y354182D01*
X1115210Y359366D01*
X1113900Y364823D01*
X1113520Y369651D01*
X1113511Y369651D01*
X1113510Y369653D01*
X1113187Y384305D01*
X1114453Y384486D01*
X1115081Y382140D01*
X1116398Y379860D01*
X1118260Y377998D01*
X1120540Y376682D01*
X1123083Y376000D01*
X1125716D01*
X1128260Y376682D01*
X1130540Y377998D01*
X1132402Y379860D01*
X1133718Y382140D01*
X1134400Y384683D01*
Y387317D01*
X1133718Y389860D01*
X1132402Y392140D01*
X1130540Y394002D01*
X1128260Y395319D01*
X1125716Y396000D01*
X1123083D01*
X1120540Y395319D01*
X1118260Y394002D01*
X1116398Y392140D01*
X1115081Y389860D01*
X1114400Y387317D01*
Y386893D01*
X1113130Y386879D01*
X1113056Y390221D01*
X1113057Y390222D01*
X1113057D01*
X1112880Y391564D01*
X1112883Y391871D01*
X1087743Y524672D01*
X1088239Y525168D01*
X1089000Y527006D01*
Y528995D01*
X1088239Y530832D01*
X1086832Y532239D01*
X1084995Y533000D01*
X1083005D01*
X1081168Y532239D01*
X1079761Y530832D01*
X1079000Y528995D01*
Y527006D01*
X1079761Y525168D01*
X1081168Y523761D01*
X1081734Y523527D01*
X1105722Y396808D01*
X1104622Y395795D01*
X1103000Y396118D01*
X1095000D01*
X1092659Y395652D01*
X1090674Y394326D01*
X1089348Y392341D01*
X1088883Y390000D01*
Y382000D01*
X1089348Y379659D01*
X1090674Y377674D01*
X1092659Y376348D01*
X1095000Y375882D01*
X1103000D01*
X1105341Y376348D01*
X1106118Y376867D01*
X1107245Y376281D01*
X1107394Y369518D01*
X1107420Y369400D01*
X1107711Y364952D01*
X1108780Y359581D01*
X1110540Y354395D01*
X1112962Y349483D01*
X1116005Y344929D01*
X1119616Y340812D01*
X1123733Y337201D01*
X1128287Y334158D01*
X1130541Y333047D01*
X1130781Y332863D01*
X1149746Y323536D01*
X1149827Y323514D01*
X1149882Y323484D01*
X1149926Y323455D01*
X1149940Y323452D01*
X1156684Y319725D01*
X1163625Y314800D01*
X1169971Y309129D01*
X1175642Y302783D01*
X1178272Y299076D01*
X1177566Y298130D01*
X1177460Y298026D01*
X1175499D01*
X1174971Y297807D01*
X1166464Y303715D01*
X1166294Y303790D01*
X1165556Y304356D01*
X1163081Y305381D01*
X1162977Y305439D01*
X1156256Y307587D01*
X156571Y627183D01*
X155982Y627422D01*
X155036Y627894D01*
X154003Y628593D01*
X147264Y633679D01*
X147660Y635155D01*
Y637525D01*
X147046Y639814D01*
X145862Y641866D01*
X144186Y643542D01*
X142134Y644727D01*
X139845Y645340D01*
X137475D01*
X135186Y644727D01*
X133134Y643542D01*
X131458Y641866D01*
X130273Y639814D01*
X129660Y637525D01*
Y635155D01*
X130273Y632866D01*
X131458Y630814D01*
X133134Y629138D01*
X135186Y627953D01*
X137475Y627340D01*
X139845D01*
X142134Y627953D01*
X143585Y628791D01*
X148749Y624894D01*
X148425Y623666D01*
X147966Y623605D01*
X146527Y623009D01*
X146219Y622944D01*
X132541Y617086D01*
X131486Y618142D01*
X129434Y619327D01*
X127145Y619940D01*
X124775D01*
X122486Y619327D01*
X120434Y618142D01*
X119595Y617303D01*
X118269Y617773D01*
X117182Y628212D01*
X118786Y629138D01*
X120462Y630814D01*
X121646Y632866D01*
X122260Y635155D01*
Y637525D01*
X121646Y639814D01*
X120462Y641866D01*
X118786Y643542D01*
X116734Y644727D01*
X114445Y645340D01*
X112075D01*
X109786Y644727D01*
X107734Y643542D01*
X106058Y641866D01*
X104873Y639814D01*
X104260Y637525D01*
Y635155D01*
X104873Y632866D01*
X106058Y630814D01*
X107734Y629138D01*
X109786Y627953D01*
X111095Y627603D01*
X112971Y609587D01*
X113066Y609281D01*
X113270Y607732D01*
X112367Y606806D01*
X109311Y608825D01*
X109560Y609755D01*
Y612125D01*
X108946Y614414D01*
X107761Y616466D01*
X106086Y618142D01*
X104034Y619327D01*
X101745Y619940D01*
X99375D01*
X97086Y619327D01*
X95034Y618142D01*
X93358Y616466D01*
X92173Y614414D01*
X91560Y612125D01*
Y609755D01*
X92173Y607466D01*
X93358Y605414D01*
X95034Y603738D01*
X97086Y602553D01*
X99375Y601940D01*
X101745D01*
X104034Y602553D01*
X105993Y603685D01*
X116557Y596706D01*
X116549Y596694D01*
X119423Y595158D01*
X122627Y594186D01*
X125960Y593858D01*
Y593881D01*
X151417D01*
X151430Y593884D01*
X151442Y593881D01*
X198271Y594264D01*
X199536Y594259D01*
X200429Y594088D01*
X201635Y593756D01*
X1143240Y292727D01*
X1144417Y292300D01*
X1145238Y291861D01*
X1146275Y291171D01*
X1153596Y285730D01*
X1153845Y285612D01*
X1154461Y285139D01*
X1156650Y284232D01*
X1157370Y284137D01*
X1157615Y284048D01*
X1160587Y283588D01*
X1160761Y283168D01*
X1162168Y281761D01*
X1164005Y281000D01*
X1165995D01*
X1167832Y281761D01*
X1169239Y283168D01*
X1170000Y285005D01*
Y285063D01*
X1171270Y285690D01*
X1171955Y285164D01*
X1174144Y284257D01*
X1174912Y284156D01*
X1175170Y284064D01*
X1178600Y283558D01*
X1178761Y283168D01*
X1180168Y281761D01*
X1182005Y281000D01*
X1183995D01*
X1185608Y281668D01*
X1186991Y281260D01*
X1187691Y277892D01*
X1187257Y277457D01*
X1186496Y275619D01*
Y273630D01*
X1187257Y271792D01*
X1188663Y270386D01*
X1190501Y269625D01*
X1192490D01*
X1194328Y270386D01*
X1195734Y271792D01*
X1196496Y273630D01*
Y275619D01*
X1195734Y277457D01*
X1194328Y278863D01*
X1193682Y279131D01*
X1191869Y287845D01*
X1191819Y287962D01*
X1191768Y288349D01*
X1191377Y289294D01*
X1191320Y289583D01*
X1191156Y289828D01*
X1190862Y290539D01*
X1190768Y290660D01*
X1190115Y291749D01*
X1186600Y297607D01*
X1186398Y297830D01*
X1184486Y301021D01*
X1182722Y303399D01*
X1183103Y305018D01*
X1183334Y305142D01*
X1213892Y294718D01*
X1214397Y293500D01*
X1215803Y292093D01*
X1217641Y291332D01*
X1219630D01*
X1221468Y292093D01*
X1222874Y293500D01*
X1223635Y295337D01*
Y297326D01*
X1222874Y299164D01*
X1221468Y300571D01*
X1219630Y301332D01*
X1217641D01*
X1215803Y300571D01*
X1215773Y300540D01*
X1193656Y308084D01*
X1193971Y309319D01*
X1241505Y301117D01*
X1241938Y299754D01*
X1241059Y298875D01*
X1240298Y297037D01*
Y295048D01*
X1240628Y294252D01*
X1177160Y47118D01*
X1171800D01*
X1169459Y46652D01*
X1167474Y45326D01*
X1166148Y43341D01*
X1165683Y41000D01*
Y33000D01*
X1166148Y30659D01*
X1167474Y28674D01*
X1169459Y27348D01*
X1171800Y26883D01*
X1179800D01*
X1182141Y27348D01*
X1184126Y28674D01*
X1185452Y30659D01*
X1185918Y33000D01*
Y41000D01*
X1185452Y43341D01*
X1184845Y44249D01*
X1248520Y292194D01*
X1249537Y293210D01*
X1250298Y295048D01*
Y297037D01*
X1249730Y298409D01*
X1250507Y299564D01*
X1326290Y286488D01*
X1326615Y286496D01*
X1327431Y286389D01*
X1327594Y286350D01*
X1330583Y286229D01*
X1330683Y285000D01*
X1328140Y284319D01*
X1325860Y283002D01*
X1323998Y281140D01*
X1322681Y278860D01*
X1322000Y276317D01*
Y273684D01*
X1322681Y271140D01*
X1323998Y268860D01*
X1325860Y266998D01*
X1328140Y265682D01*
X1330683Y265000D01*
X1333316D01*
X1335860Y265682D01*
X1338140Y266998D01*
X1340002Y268860D01*
X1341319Y271140D01*
X1342000Y273684D01*
Y276317D01*
X1341319Y278860D01*
X1340002Y281140D01*
X1338140Y283002D01*
X1335860Y284319D01*
X1333989Y284820D01*
X1334182Y286083D01*
X1350363Y285429D01*
X1350681Y284240D01*
X1351998Y281960D01*
X1353860Y280098D01*
X1356140Y278782D01*
X1358683Y278100D01*
X1361317D01*
X1363860Y278782D01*
X1366140Y280098D01*
X1368002Y281960D01*
X1369319Y284240D01*
X1370000Y286784D01*
Y289417D01*
X1369319Y291960D01*
X1368002Y294240D01*
X1366140Y296102D01*
X1363860Y297419D01*
X1361317Y298100D01*
X1358683D01*
X1356140Y297419D01*
X1353860Y296102D01*
X1351998Y294240D01*
X1350681Y291960D01*
X1350570Y291543D01*
X1341737Y291900D01*
X1341076Y293198D01*
X1341652Y294059D01*
X1342117Y296400D01*
Y304400D01*
X1341652Y306741D01*
X1340326Y308726D01*
X1338341Y310052D01*
X1336000Y310518D01*
X1328000D01*
X1325659Y310052D01*
X1323674Y308726D01*
X1322348Y306741D01*
X1321882Y304400D01*
Y296400D01*
X1322223Y294686D01*
X1321269Y293562D01*
X1190562Y316115D01*
X1190357Y316610D01*
X1188951Y318016D01*
X1187113Y318778D01*
X1186777D01*
X1186132Y319872D01*
X1188093Y323411D01*
X1188360D01*
X1190198Y324172D01*
X1191605Y325578D01*
X1192366Y327416D01*
Y329405D01*
X1191605Y331243D01*
X1190198Y332649D01*
X1188360Y333411D01*
X1186371D01*
X1184533Y332649D01*
X1183127Y331243D01*
X1182366Y329405D01*
Y327416D01*
X1182773Y326432D01*
X1178194Y318168D01*
X1178192Y318158D01*
X1177350Y316127D01*
X1177041Y313778D01*
X1177268Y312050D01*
X1176061Y311491D01*
X1174289Y313446D01*
X1168326Y318850D01*
X1161863Y323644D01*
X1154960Y327781D01*
X1152634Y328882D01*
X1152446Y329025D01*
X1143932Y333213D01*
X1143676Y334754D01*
X1144424Y335501D01*
X1145185Y337338D01*
Y339328D01*
X1144930Y339944D01*
X1145635Y341000D01*
X1146354D01*
X1148192Y341761D01*
X1149599Y343168D01*
X1150360Y345005D01*
Y346994D01*
X1150193Y347397D01*
X1152596Y350652D01*
X1153928Y350317D01*
X1154013Y349724D01*
X1153121Y348832D01*
X1152360Y346994D01*
Y345005D01*
X1153121Y343168D01*
X1154528Y341761D01*
X1156365Y341000D01*
X1157121D01*
X1157970Y339730D01*
X1157640Y338935D01*
Y336946D01*
X1158401Y335108D01*
X1159808Y333702D01*
X1161646Y332941D01*
X1163635D01*
X1165473Y333702D01*
X1166879Y335108D01*
X1167640Y336946D01*
Y338935D01*
X1166879Y340773D01*
X1166051Y341602D01*
X1166380Y345166D01*
X1166357Y345388D01*
X1166437Y346000D01*
X1166364Y346559D01*
X1166386Y346762D01*
X1164391Y369975D01*
X1164060Y665002D01*
X1164061Y667451D01*
X1164076Y668721D01*
X1164076Y668721D01*
X1164297Y669831D01*
X1164932Y670782D01*
X1165882Y671417D01*
X1166065Y671453D01*
X1166051Y671493D01*
X1196140Y681789D01*
X1196168Y681761D01*
X1198006Y681000D01*
X1199995D01*
X1201832Y681761D01*
X1203239Y683168D01*
X1204000Y685006D01*
Y686995D01*
X1203239Y688832D01*
X1201832Y690239D01*
X1199995Y691000D01*
D02*
G37*
G36*
X178533Y717840D02*
X174987D01*
X171509Y717148D01*
X168234Y715791D01*
X165285Y713821D01*
X162778Y711314D01*
X160808Y708366D01*
X159451Y705090D01*
X158760Y701613D01*
Y698067D01*
X159451Y694590D01*
X160808Y691314D01*
X162778Y688366D01*
X165285Y685859D01*
X168234Y683889D01*
X171509Y682532D01*
X174987Y681840D01*
X178533D01*
X182010Y682532D01*
X185286Y683889D01*
X188234Y685859D01*
X190741Y688366D01*
X192711Y691314D01*
X194068Y694590D01*
X194760Y698067D01*
Y701613D01*
X194068Y705090D01*
X192711Y708366D01*
X190741Y711314D01*
X188234Y713821D01*
X185286Y715791D01*
X182010Y717148D01*
X178533Y717840D01*
D02*
G37*
G36*
X64233D02*
X60687D01*
X57209Y717148D01*
X53934Y715791D01*
X50985Y713821D01*
X48478Y711314D01*
X46508Y708366D01*
X45151Y705090D01*
X44460Y701613D01*
Y698067D01*
X45151Y694590D01*
X46508Y691314D01*
X48478Y688366D01*
X50985Y685859D01*
X53934Y683889D01*
X57209Y682532D01*
X60687Y681840D01*
X64233D01*
X67710Y682532D01*
X70986Y683889D01*
X73934Y685859D01*
X76441Y688366D01*
X78411Y691314D01*
X79768Y694590D01*
X80460Y698067D01*
Y701613D01*
X79768Y705090D01*
X78411Y708366D01*
X76441Y711314D01*
X73934Y713821D01*
X70986Y715791D01*
X67710Y717148D01*
X64233Y717840D01*
D02*
G37*
G36*
X1004191Y688720D02*
X982980D01*
Y677342D01*
X991710D01*
X994983Y677773D01*
X998034Y679036D01*
X1000653Y681046D01*
X1002663Y683666D01*
X1003927Y686716D01*
X1004191Y688720D01*
D02*
G37*
G36*
X980440D02*
X959229D01*
X959492Y686716D01*
X960756Y683666D01*
X962766Y681046D01*
X965386Y679036D01*
X968436Y677773D01*
X971710Y677342D01*
X980440D01*
Y688720D01*
D02*
G37*
G36*
X932980Y682471D02*
Y661260D01*
X944358D01*
Y669990D01*
X943927Y673264D01*
X942663Y676314D01*
X940653Y678934D01*
X938034Y680944D01*
X934983Y682207D01*
X932980Y682471D01*
D02*
G37*
G36*
X930440D02*
X928436Y682207D01*
X925386Y680944D01*
X922766Y678934D01*
X920756Y676314D01*
X919492Y673264D01*
X919062Y669990D01*
Y661260D01*
X930440D01*
Y682471D01*
D02*
G37*
G36*
X1331611Y707420D02*
X1326489D01*
X1321466Y706421D01*
X1316734Y704461D01*
X1312476Y701616D01*
X1308854Y697994D01*
X1306009Y693736D01*
X1304049Y689004D01*
X1303050Y683981D01*
Y678859D01*
X1304049Y673836D01*
X1306009Y669104D01*
X1308854Y664846D01*
X1312476Y661225D01*
X1316734Y658379D01*
X1321466Y656419D01*
X1326489Y655420D01*
X1331611D01*
X1336634Y656419D01*
X1341365Y658379D01*
X1345624Y661225D01*
X1349245Y664846D01*
X1352091Y669104D01*
X1354051Y673836D01*
X1355050Y678859D01*
Y683981D01*
X1354051Y689004D01*
X1352091Y693736D01*
X1349245Y697994D01*
X1345624Y701616D01*
X1341365Y704461D01*
X1336634Y706421D01*
X1331611Y707420D01*
D02*
G37*
G36*
X340381Y701700D02*
X335259D01*
X330236Y700701D01*
X325504Y698741D01*
X321246Y695895D01*
X317624Y692274D01*
X314779Y688016D01*
X312819Y683284D01*
X311820Y678261D01*
Y673139D01*
X312819Y668116D01*
X314779Y663384D01*
X317624Y659126D01*
X321246Y655505D01*
X325504Y652659D01*
X330236Y650699D01*
X335259Y649700D01*
X340381D01*
X345404Y650699D01*
X350135Y652659D01*
X354394Y655505D01*
X358015Y659126D01*
X360861Y663384D01*
X362821Y668116D01*
X363820Y673139D01*
Y678261D01*
X362821Y683284D01*
X360861Y688016D01*
X358015Y692274D01*
X354394Y695895D01*
X350135Y698741D01*
X345404Y700701D01*
X340381Y701700D01*
D02*
G37*
G36*
X89130Y645876D02*
Y637610D01*
X97396D01*
X96750Y640022D01*
X95494Y642198D01*
X93717Y643974D01*
X91542Y645230D01*
X89130Y645876D01*
D02*
G37*
G36*
X86590D02*
X84177Y645230D01*
X82002Y643974D01*
X80226Y642198D01*
X78970Y640022D01*
X78323Y637610D01*
X86590D01*
Y645876D01*
D02*
G37*
G36*
X930440Y658720D02*
X919062D01*
Y649990D01*
X919492Y646716D01*
X920756Y643666D01*
X922766Y641046D01*
X925386Y639036D01*
X928436Y637773D01*
X930440Y637509D01*
Y658720D01*
D02*
G37*
G36*
X944358D02*
X932980D01*
Y637509D01*
X934983Y637773D01*
X938034Y639036D01*
X940653Y641046D01*
X942663Y643666D01*
X943927Y646716D01*
X944358Y649990D01*
Y658720D01*
D02*
G37*
G36*
X165245Y645340D02*
X162875D01*
X160586Y644727D01*
X158534Y643542D01*
X156858Y641866D01*
X155673Y639814D01*
X155060Y637525D01*
Y635155D01*
X155673Y632866D01*
X156858Y630814D01*
X158534Y629138D01*
X160586Y627953D01*
X162875Y627340D01*
X165245D01*
X167534Y627953D01*
X169586Y629138D01*
X171262Y630814D01*
X172446Y632866D01*
X173060Y635155D01*
Y637525D01*
X172446Y639814D01*
X171262Y641866D01*
X169586Y643542D01*
X167534Y644727D01*
X165245Y645340D01*
D02*
G37*
G36*
X97396Y635070D02*
X89130D01*
Y626804D01*
X91542Y627450D01*
X93717Y628706D01*
X95494Y630482D01*
X96750Y632658D01*
X97396Y635070D01*
D02*
G37*
G36*
X86590D02*
X78323D01*
X78970Y632658D01*
X80226Y630482D01*
X82002Y628706D01*
X84177Y627450D01*
X86590Y626804D01*
Y635070D01*
D02*
G37*
G36*
X994210Y640094D02*
X969210D01*
X966077Y639681D01*
X963158Y638472D01*
X960651Y636549D01*
X958728Y634042D01*
X957519Y631123D01*
X957106Y627990D01*
X957519Y624857D01*
X958728Y621938D01*
X960651Y619431D01*
X963158Y617508D01*
X966077Y616299D01*
X969210Y615886D01*
X994210D01*
X997342Y616299D01*
X1000262Y617508D01*
X1002768Y619431D01*
X1004692Y621938D01*
X1005901Y624857D01*
X1006313Y627990D01*
X1005901Y631123D01*
X1004692Y634042D01*
X1002768Y636549D01*
X1000262Y638472D01*
X997342Y639681D01*
X994210Y640094D01*
D02*
G37*
G36*
X76430Y620476D02*
Y612210D01*
X84696D01*
X84050Y614622D01*
X82794Y616798D01*
X81017Y618574D01*
X78842Y619830D01*
X76430Y620476D01*
D02*
G37*
G36*
X73890D02*
X71477Y619830D01*
X69302Y618574D01*
X67526Y616798D01*
X66270Y614622D01*
X65623Y612210D01*
X73890D01*
Y620476D01*
D02*
G37*
G36*
X84696Y609670D02*
X76430D01*
Y601404D01*
X78842Y602050D01*
X81017Y603306D01*
X82794Y605082D01*
X84050Y607258D01*
X84696Y609670D01*
D02*
G37*
G36*
X73890D02*
X65623D01*
X66270Y607258D01*
X67526Y605082D01*
X69302Y603306D01*
X71477Y602050D01*
X73890Y601404D01*
Y609670D01*
D02*
G37*
G36*
X1315000Y494761D02*
X1305000D01*
X1303173Y494520D01*
X1301470Y493815D01*
X1300008Y492693D01*
X1298886Y491230D01*
X1298180Y489528D01*
X1297940Y487700D01*
Y477700D01*
X1298180Y475873D01*
X1298886Y474170D01*
X1300008Y472708D01*
X1301470Y471586D01*
X1303173Y470880D01*
X1305000Y470640D01*
X1315000D01*
X1316828Y470880D01*
X1318530Y471586D01*
X1319993Y472708D01*
X1321115Y474170D01*
X1321820Y475873D01*
X1322061Y477700D01*
Y487700D01*
X1321820Y489528D01*
X1321115Y491230D01*
X1319993Y492693D01*
X1318530Y493815D01*
X1316828Y494520D01*
X1315000Y494761D01*
D02*
G37*
G36*
X244270Y495512D02*
Y469270D01*
X263137D01*
Y475500D01*
X262750Y479428D01*
X261604Y483206D01*
X259743Y486688D01*
X257239Y489739D01*
X254187Y492243D01*
X250706Y494104D01*
X246928Y495250D01*
X244270Y495512D01*
D02*
G37*
G36*
X241730D02*
X239071Y495250D01*
X235294Y494104D01*
X231812Y492243D01*
X228761Y489739D01*
X226257Y486688D01*
X224396Y483206D01*
X223250Y479428D01*
X222863Y475500D01*
Y469270D01*
X241730D01*
Y495512D01*
D02*
G37*
G36*
X884674Y485000D02*
X881325D01*
X878041Y484347D01*
X874947Y483065D01*
X872163Y481205D01*
X869795Y478837D01*
X867934Y476053D01*
X866653Y472959D01*
X866000Y469674D01*
Y466326D01*
X866653Y463041D01*
X867934Y459948D01*
X869795Y457163D01*
X872163Y454795D01*
X874947Y452935D01*
X878041Y451653D01*
X881325Y451000D01*
X884674D01*
X887958Y451653D01*
X891052Y452935D01*
X893837Y454795D01*
X896205Y457163D01*
X898065Y459948D01*
X899346Y463041D01*
X900000Y466326D01*
Y469674D01*
X899346Y472959D01*
X898065Y476053D01*
X896205Y478837D01*
X893837Y481205D01*
X891052Y483065D01*
X887958Y484347D01*
X884674Y485000D01*
D02*
G37*
G36*
X328674D02*
X325325D01*
X322041Y484347D01*
X318947Y483065D01*
X316163Y481205D01*
X313795Y478837D01*
X311935Y476053D01*
X310653Y472959D01*
X310000Y469674D01*
Y466326D01*
X310653Y463041D01*
X311935Y459948D01*
X313795Y457163D01*
X316163Y454795D01*
X318947Y452935D01*
X322041Y451653D01*
X325325Y451000D01*
X328674D01*
X331958Y451653D01*
X335052Y452935D01*
X337837Y454795D01*
X340205Y457163D01*
X342065Y459948D01*
X343346Y463041D01*
X344000Y466326D01*
Y469674D01*
X343346Y472959D01*
X342065Y476053D01*
X340205Y478837D01*
X337837Y481205D01*
X335052Y483065D01*
X331958Y484347D01*
X328674Y485000D01*
D02*
G37*
G36*
X1311580Y469300D02*
X1308420D01*
X1305368Y468482D01*
X1302632Y466903D01*
X1300398Y464668D01*
X1298818Y461932D01*
X1298000Y458880D01*
Y455720D01*
X1298818Y452668D01*
X1300398Y449932D01*
X1302632Y447698D01*
X1305368Y446118D01*
X1308420Y445300D01*
X1311580D01*
X1314632Y446118D01*
X1317368Y447698D01*
X1319603Y449932D01*
X1321182Y452668D01*
X1322000Y455720D01*
Y458880D01*
X1321182Y461932D01*
X1319603Y464668D01*
X1317368Y466903D01*
X1314632Y468482D01*
X1311580Y469300D01*
D02*
G37*
G36*
X75591Y497240D02*
X70469D01*
X65446Y496241D01*
X60714Y494281D01*
X56456Y491436D01*
X52834Y487814D01*
X49989Y483556D01*
X48029Y478824D01*
X47030Y473801D01*
Y468679D01*
X48029Y463656D01*
X49989Y458924D01*
X52834Y454666D01*
X56456Y451045D01*
X60714Y448199D01*
X65446Y446239D01*
X70469Y445240D01*
X75591D01*
X80614Y446239D01*
X85345Y448199D01*
X89604Y451045D01*
X93225Y454666D01*
X96071Y458924D01*
X98031Y463656D01*
X99030Y468679D01*
Y473801D01*
X98031Y478824D01*
X96071Y483556D01*
X93225Y487814D01*
X89604Y491436D01*
X85345Y494281D01*
X80614Y496241D01*
X75591Y497240D01*
D02*
G37*
G36*
X967000Y495094D02*
X963177Y494718D01*
X959501Y493603D01*
X956114Y491792D01*
X953144Y489355D01*
X950708Y486386D01*
X948897Y482998D01*
X947782Y479323D01*
X947405Y475500D01*
Y460500D01*
X947782Y456677D01*
X948897Y453002D01*
X950708Y449614D01*
X953144Y446645D01*
X956114Y444208D01*
X959501Y442397D01*
X963177Y441282D01*
X967000Y440906D01*
X970822Y441282D01*
X974498Y442397D01*
X977886Y444208D01*
X980855Y446645D01*
X983292Y449614D01*
X985102Y453002D01*
X986218Y456677D01*
X986594Y460500D01*
Y475500D01*
X986218Y479323D01*
X985102Y482998D01*
X983292Y486386D01*
X980855Y489355D01*
X977886Y491792D01*
X974498Y493603D01*
X970822Y494718D01*
X967000Y495094D01*
D02*
G37*
G36*
X263137Y466730D02*
X244270D01*
Y440488D01*
X246928Y440750D01*
X250706Y441896D01*
X254187Y443757D01*
X257239Y446261D01*
X259743Y449313D01*
X261604Y452794D01*
X262750Y456572D01*
X263137Y460500D01*
Y466730D01*
D02*
G37*
G36*
X241730D02*
X222863D01*
Y460500D01*
X223250Y456572D01*
X224396Y452794D01*
X226257Y449313D01*
X228761Y446261D01*
X231812Y443757D01*
X235294Y441896D01*
X239071Y440750D01*
X241730Y440488D01*
Y466730D01*
D02*
G37*
G36*
X56580Y358800D02*
X53420D01*
X50368Y357982D01*
X47632Y356403D01*
X45398Y354168D01*
X43818Y351432D01*
X43000Y348380D01*
Y345220D01*
X43818Y342168D01*
X45398Y339432D01*
X47632Y337198D01*
X50368Y335618D01*
X53420Y334800D01*
X56580D01*
X59632Y335618D01*
X62368Y337198D01*
X64602Y339432D01*
X66182Y342168D01*
X67000Y345220D01*
Y348380D01*
X66182Y351432D01*
X64602Y354168D01*
X62368Y356403D01*
X59632Y357982D01*
X56580Y358800D01*
D02*
G37*
G36*
X25580D02*
X22420D01*
X19368Y357982D01*
X16632Y356403D01*
X14398Y354168D01*
X12818Y351432D01*
X12000Y348380D01*
Y345220D01*
X12818Y342168D01*
X14398Y339432D01*
X16632Y337198D01*
X19368Y335618D01*
X22420Y334800D01*
X25580D01*
X28632Y335618D01*
X31368Y337198D01*
X33602Y339432D01*
X35182Y342168D01*
X36000Y345220D01*
Y348380D01*
X35182Y351432D01*
X33602Y354168D01*
X31368Y356403D01*
X28632Y357982D01*
X25580Y358800D01*
D02*
G37*
G36*
X56580Y333400D02*
X53420D01*
X50368Y332582D01*
X47632Y331003D01*
X45398Y328768D01*
X43818Y326032D01*
X43000Y322980D01*
Y319820D01*
X43818Y316768D01*
X45398Y314032D01*
X47632Y311798D01*
X50368Y310218D01*
X53420Y309400D01*
X56580D01*
X59632Y310218D01*
X62368Y311798D01*
X64602Y314032D01*
X66182Y316768D01*
X67000Y319820D01*
Y322980D01*
X66182Y326032D01*
X64602Y328768D01*
X62368Y331003D01*
X59632Y332582D01*
X56580Y333400D01*
D02*
G37*
G36*
X25580D02*
X22420D01*
X19368Y332582D01*
X16632Y331003D01*
X14398Y328768D01*
X12818Y326032D01*
X12000Y322980D01*
Y319820D01*
X12818Y316768D01*
X14398Y314032D01*
X16632Y311798D01*
X19368Y310218D01*
X22420Y309400D01*
X25580D01*
X28632Y310218D01*
X31368Y311798D01*
X33602Y314032D01*
X35182Y316768D01*
X36000Y319820D01*
Y322980D01*
X35182Y326032D01*
X33602Y328768D01*
X31368Y331003D01*
X28632Y332582D01*
X25580Y333400D01*
D02*
G37*
G36*
X1364000Y323618D02*
X1356000D01*
X1353659Y323152D01*
X1351674Y321826D01*
X1350348Y319841D01*
X1349883Y317500D01*
Y309500D01*
X1350348Y307159D01*
X1351674Y305174D01*
X1353659Y303848D01*
X1356000Y303383D01*
X1364000D01*
X1366341Y303848D01*
X1368326Y305174D01*
X1369652Y307159D01*
X1370117Y309500D01*
Y317500D01*
X1369652Y319841D01*
X1368326Y321826D01*
X1366341Y323152D01*
X1364000Y323618D01*
D02*
G37*
G36*
X56580Y308000D02*
X53420D01*
X50368Y307182D01*
X47632Y305602D01*
X45398Y303368D01*
X43818Y300632D01*
X43000Y297580D01*
Y294420D01*
X43818Y291368D01*
X45398Y288632D01*
X47632Y286398D01*
X50368Y284818D01*
X53420Y284000D01*
X56580D01*
X59632Y284818D01*
X62368Y286398D01*
X64602Y288632D01*
X66182Y291368D01*
X67000Y294420D01*
Y297580D01*
X66182Y300632D01*
X64602Y303368D01*
X62368Y305602D01*
X59632Y307182D01*
X56580Y308000D01*
D02*
G37*
G36*
X25580D02*
X22420D01*
X19368Y307182D01*
X16632Y305602D01*
X14398Y303368D01*
X12818Y300632D01*
X12000Y297580D01*
Y294420D01*
X12818Y291368D01*
X14398Y288632D01*
X16632Y286398D01*
X19368Y284818D01*
X22420Y284000D01*
X25580D01*
X28632Y284818D01*
X31368Y286398D01*
X33602Y288632D01*
X35182Y291368D01*
X36000Y294420D01*
Y297580D01*
X35182Y300632D01*
X33602Y303368D01*
X31368Y305602D01*
X28632Y307182D01*
X25580Y308000D01*
D02*
G37*
G36*
X1361388Y273240D02*
X1361270D01*
Y263970D01*
X1370540D01*
Y264088D01*
X1369822Y266768D01*
X1368434Y269172D01*
X1366472Y271134D01*
X1364068Y272522D01*
X1361388Y273240D01*
D02*
G37*
G36*
X1358730D02*
X1358612D01*
X1355932Y272522D01*
X1353528Y271134D01*
X1351566Y269172D01*
X1350178Y266768D01*
X1349460Y264088D01*
Y263970D01*
X1358730D01*
Y273240D01*
D02*
G37*
G36*
X60000Y282661D02*
X50000D01*
X48173Y282420D01*
X46470Y281714D01*
X45008Y280592D01*
X43885Y279130D01*
X43180Y277427D01*
X42940Y275600D01*
Y265600D01*
X43180Y263773D01*
X43885Y262070D01*
X45008Y260608D01*
X46470Y259486D01*
X48173Y258780D01*
X50000Y258540D01*
X60000D01*
X61827Y258780D01*
X63530Y259486D01*
X64992Y260608D01*
X66115Y262070D01*
X66820Y263773D01*
X67060Y265600D01*
Y275600D01*
X66820Y277427D01*
X66115Y279130D01*
X64992Y280592D01*
X63530Y281714D01*
X61827Y282420D01*
X60000Y282661D01*
D02*
G37*
G36*
X29000D02*
X19000D01*
X17173Y282420D01*
X15470Y281714D01*
X14008Y280592D01*
X12886Y279130D01*
X12180Y277427D01*
X11940Y275600D01*
Y265600D01*
X12180Y263773D01*
X12886Y262070D01*
X14008Y260608D01*
X15470Y259486D01*
X17173Y258780D01*
X19000Y258540D01*
X29000D01*
X30827Y258780D01*
X32530Y259486D01*
X33993Y260608D01*
X35115Y262070D01*
X35820Y263773D01*
X36060Y265600D01*
Y275600D01*
X35820Y277427D01*
X35115Y279130D01*
X33993Y280592D01*
X32530Y281714D01*
X30827Y282420D01*
X29000Y282661D01*
D02*
G37*
G36*
X244270Y282512D02*
Y256270D01*
X263137D01*
Y262500D01*
X262750Y266429D01*
X261604Y270206D01*
X259743Y273687D01*
X257239Y276739D01*
X254187Y279243D01*
X250706Y281104D01*
X246928Y282250D01*
X244270Y282512D01*
D02*
G37*
G36*
X241730D02*
X239071Y282250D01*
X235294Y281104D01*
X231812Y279243D01*
X228761Y276739D01*
X226257Y273687D01*
X224396Y270206D01*
X223250Y266429D01*
X222863Y262500D01*
Y256270D01*
X241730D01*
Y282512D01*
D02*
G37*
G36*
X1370540Y261430D02*
X1361270D01*
Y252160D01*
X1361388D01*
X1364068Y252878D01*
X1366472Y254266D01*
X1368434Y256228D01*
X1369822Y258632D01*
X1370540Y261313D01*
Y261430D01*
D02*
G37*
G36*
X1358730D02*
X1349460D01*
Y261313D01*
X1350178Y258632D01*
X1351566Y256228D01*
X1353528Y254266D01*
X1355932Y252878D01*
X1358612Y252160D01*
X1358730D01*
Y261430D01*
D02*
G37*
G36*
X1128415Y264431D02*
X1126425D01*
X1124588Y263670D01*
X1123181Y262264D01*
X1122420Y260426D01*
Y258437D01*
X1123181Y256599D01*
X1124588Y255193D01*
X1126425Y254431D01*
X1128415D01*
X1130252Y255193D01*
X1131150Y256090D01*
X1208083Y250432D01*
X1208116Y250353D01*
X1209522Y248946D01*
X1211360Y248185D01*
X1213349D01*
X1215187Y248946D01*
X1216593Y250353D01*
X1217354Y252190D01*
Y254180D01*
X1216593Y256017D01*
X1215187Y257424D01*
X1213349Y258185D01*
X1211360D01*
X1209522Y257424D01*
X1208625Y256526D01*
X1131692Y262184D01*
X1131659Y262264D01*
X1130252Y263670D01*
X1128415Y264431D01*
D02*
G37*
G36*
X1333316Y259600D02*
X1330683D01*
X1328140Y258919D01*
X1325860Y257602D01*
X1323998Y255740D01*
X1322681Y253460D01*
X1322000Y250917D01*
Y248284D01*
X1322681Y245740D01*
X1323998Y243460D01*
X1325860Y241598D01*
X1328140Y240282D01*
X1330683Y239600D01*
X1333316D01*
X1335860Y240282D01*
X1338140Y241598D01*
X1340002Y243460D01*
X1341319Y245740D01*
X1342000Y248284D01*
Y250917D01*
X1341319Y253460D01*
X1340002Y255740D01*
X1338140Y257602D01*
X1335860Y258919D01*
X1333316Y259600D01*
D02*
G37*
G36*
X884674Y272000D02*
X881325D01*
X878041Y271347D01*
X874947Y270065D01*
X872163Y268205D01*
X869795Y265837D01*
X867934Y263053D01*
X866653Y259959D01*
X866000Y256674D01*
Y253326D01*
X866653Y250041D01*
X867934Y246947D01*
X869795Y244163D01*
X872163Y241795D01*
X874947Y239935D01*
X878041Y238653D01*
X881325Y238000D01*
X884674D01*
X887958Y238653D01*
X891052Y239935D01*
X893837Y241795D01*
X896205Y244163D01*
X898065Y246947D01*
X899346Y250041D01*
X900000Y253326D01*
Y256674D01*
X899346Y259959D01*
X898065Y263053D01*
X896205Y265837D01*
X893837Y268205D01*
X891052Y270065D01*
X887958Y271347D01*
X884674Y272000D01*
D02*
G37*
G36*
X328674D02*
X325325D01*
X322041Y271347D01*
X318947Y270065D01*
X316163Y268205D01*
X313795Y265837D01*
X311935Y263053D01*
X310653Y259959D01*
X310000Y256674D01*
Y253326D01*
X310653Y250041D01*
X311935Y246947D01*
X313795Y244163D01*
X316163Y241795D01*
X318947Y239935D01*
X322041Y238653D01*
X325325Y238000D01*
X328674D01*
X331958Y238653D01*
X335052Y239935D01*
X337837Y241795D01*
X340205Y244163D01*
X342065Y246947D01*
X343346Y250041D01*
X344000Y253326D01*
Y256674D01*
X343346Y259959D01*
X342065Y263053D01*
X340205Y265837D01*
X337837Y268205D01*
X335052Y270065D01*
X331958Y271347D01*
X328674Y272000D01*
D02*
G37*
G36*
X967000Y282094D02*
X963177Y281718D01*
X959501Y280603D01*
X956114Y278792D01*
X953144Y276355D01*
X950708Y273386D01*
X948897Y269998D01*
X947782Y266323D01*
X947405Y262500D01*
Y247500D01*
X947782Y243677D01*
X948897Y240002D01*
X950708Y236614D01*
X953144Y233645D01*
X956114Y231208D01*
X959501Y229397D01*
X963177Y228282D01*
X967000Y227906D01*
X970822Y228282D01*
X974498Y229397D01*
X977886Y231208D01*
X980855Y233645D01*
X983292Y236614D01*
X985102Y240002D01*
X986218Y243677D01*
X986594Y247500D01*
Y262500D01*
X986218Y266323D01*
X985102Y269998D01*
X983292Y273386D01*
X980855Y276355D01*
X977886Y278792D01*
X974498Y280603D01*
X970822Y281718D01*
X967000Y282094D01*
D02*
G37*
G36*
X263137Y253730D02*
X244270D01*
Y227488D01*
X246928Y227750D01*
X250706Y228896D01*
X254187Y230757D01*
X257239Y233261D01*
X259743Y236313D01*
X261604Y239794D01*
X262750Y243571D01*
X263137Y247500D01*
Y253730D01*
D02*
G37*
G36*
X241730D02*
X222863D01*
Y247500D01*
X223250Y243571D01*
X224396Y239794D01*
X226257Y236313D01*
X228761Y233261D01*
X231812Y230757D01*
X235294Y228896D01*
X239071Y227750D01*
X241730Y227488D01*
Y253730D01*
D02*
G37*
G36*
X1361317Y247300D02*
X1358683D01*
X1356140Y246619D01*
X1353860Y245302D01*
X1351998Y243440D01*
X1350681Y241160D01*
X1350000Y238617D01*
Y235984D01*
X1350681Y233440D01*
X1351998Y231160D01*
X1353860Y229298D01*
X1356140Y227982D01*
X1358683Y227300D01*
X1361317D01*
X1363860Y227982D01*
X1366140Y229298D01*
X1368002Y231160D01*
X1369319Y233440D01*
X1370000Y235984D01*
Y238617D01*
X1369319Y241160D01*
X1368002Y243440D01*
X1366140Y245302D01*
X1363860Y246619D01*
X1361317Y247300D01*
D02*
G37*
G36*
X1333388Y234740D02*
X1333270D01*
Y225470D01*
X1342540D01*
Y225588D01*
X1341822Y228268D01*
X1340434Y230672D01*
X1338472Y232634D01*
X1336068Y234022D01*
X1333388Y234740D01*
D02*
G37*
G36*
X1330730D02*
X1330612D01*
X1327932Y234022D01*
X1325528Y232634D01*
X1323566Y230672D01*
X1322178Y228268D01*
X1321460Y225588D01*
Y225470D01*
X1330730D01*
Y234740D01*
D02*
G37*
G36*
X1342540Y222930D02*
X1333270D01*
Y213660D01*
X1333388D01*
X1336068Y214378D01*
X1338472Y215766D01*
X1340434Y217728D01*
X1341822Y220132D01*
X1342540Y222812D01*
Y222930D01*
D02*
G37*
G36*
X1330730D02*
X1321460D01*
Y222812D01*
X1322178Y220132D01*
X1323566Y217728D01*
X1325528Y215766D01*
X1327932Y214378D01*
X1330612Y213660D01*
X1330730D01*
Y222930D01*
D02*
G37*
G36*
X1361317Y221900D02*
X1358683D01*
X1356140Y221219D01*
X1353860Y219902D01*
X1351998Y218040D01*
X1350681Y215760D01*
X1350000Y213217D01*
Y210584D01*
X1350681Y208040D01*
X1351998Y205760D01*
X1353860Y203898D01*
X1356140Y202582D01*
X1358683Y201900D01*
X1361317D01*
X1363860Y202582D01*
X1366140Y203898D01*
X1368002Y205760D01*
X1369319Y208040D01*
X1370000Y210584D01*
Y213217D01*
X1369319Y215760D01*
X1368002Y218040D01*
X1366140Y219902D01*
X1363860Y221219D01*
X1361317Y221900D01*
D02*
G37*
G36*
X1093128Y302819D02*
X1091139D01*
X1089301Y302058D01*
X1087894Y300651D01*
X1087133Y298814D01*
Y296825D01*
X1087894Y294987D01*
X1089079Y293802D01*
X1089116Y261008D01*
X1087941Y259832D01*
X1087179Y257995D01*
Y256005D01*
X1087941Y254168D01*
X1089347Y252761D01*
X1091185Y252000D01*
X1093174D01*
X1093606Y252179D01*
X1182000Y187856D01*
Y187006D01*
X1182761Y185168D01*
X1184168Y183761D01*
X1186005Y183000D01*
X1187995D01*
X1189832Y183761D01*
X1191239Y185168D01*
X1192000Y187006D01*
Y188995D01*
X1191239Y190832D01*
X1189832Y192239D01*
X1187995Y193000D01*
X1186005D01*
X1185573Y192821D01*
X1097179Y257145D01*
Y257995D01*
X1096418Y259832D01*
X1095234Y261017D01*
X1095197Y293811D01*
X1096372Y294987D01*
X1097133Y296825D01*
Y298814D01*
X1096372Y300651D01*
X1094965Y302058D01*
X1093128Y302819D01*
D02*
G37*
G36*
X939800Y74175D02*
X939796Y74175D01*
X938545Y74129D01*
X260039Y74059D01*
X258769Y74112D01*
Y74112D01*
X255377Y73666D01*
X253446Y72866D01*
X253166Y72795D01*
X204566Y49698D01*
X204433Y49599D01*
X203540Y49229D01*
X200615Y46985D01*
X198371Y44060D01*
X196961Y40655D01*
X196791Y39371D01*
X195499Y39286D01*
X195022Y41068D01*
X193634Y43472D01*
X191672Y45434D01*
X189268Y46822D01*
X186588Y47540D01*
X186470D01*
Y37000D01*
Y26460D01*
X186588D01*
X189268Y27178D01*
X191672Y28566D01*
X193634Y30528D01*
X195022Y32932D01*
X195499Y34714D01*
X196791Y34629D01*
X196961Y33345D01*
X198371Y29940D01*
X200615Y27015D01*
X203540Y24771D01*
X206945Y23361D01*
X210600Y22879D01*
X214255Y23361D01*
X216431Y24262D01*
X216688Y24328D01*
X228740Y30118D01*
X229860Y28998D01*
X232140Y27682D01*
X234683Y27000D01*
X237316D01*
X239860Y27682D01*
X242140Y28998D01*
X244002Y30860D01*
X245319Y33140D01*
X246000Y35684D01*
Y38317D01*
X245319Y40860D01*
X244002Y43140D01*
X242140Y45002D01*
X239860Y46319D01*
X237316Y47000D01*
X234683D01*
X233583Y46705D01*
X233062Y47880D01*
X257164Y63463D01*
X257172Y63462D01*
X257206Y63410D01*
X257605Y63676D01*
X258770Y63929D01*
X258770D01*
X260040Y63942D01*
X926544Y64010D01*
X926929Y62740D01*
X923226Y60265D01*
X919604Y56644D01*
X916759Y52386D01*
X914799Y47654D01*
X913800Y42631D01*
Y37509D01*
X914799Y32486D01*
X916759Y27754D01*
X919604Y23496D01*
X923226Y19875D01*
X927484Y17029D01*
X932216Y15069D01*
X937239Y14070D01*
X942361D01*
X947384Y15069D01*
X952115Y17029D01*
X956374Y19875D01*
X959995Y23496D01*
X962841Y27754D01*
X964801Y32486D01*
X965800Y37509D01*
Y42631D01*
X964801Y47654D01*
X962841Y52386D01*
X959995Y56644D01*
X956374Y60265D01*
X955126Y61099D01*
X955567Y62290D01*
X1091829Y45931D01*
X1092291Y44597D01*
X1091166Y43472D01*
X1089778Y41068D01*
X1089060Y38388D01*
Y38270D01*
X1099600D01*
X1110140D01*
Y38388D01*
X1109848Y39478D01*
X1110924Y40370D01*
X1115023Y38400D01*
X1115000Y38317D01*
Y35684D01*
X1115682Y33140D01*
X1116998Y30860D01*
X1118860Y28998D01*
X1121140Y27682D01*
X1123683Y27000D01*
X1126317D01*
X1128860Y27682D01*
X1131140Y28998D01*
X1133002Y30860D01*
X1134318Y33140D01*
X1135000Y35684D01*
Y38317D01*
X1134606Y39786D01*
X1135682Y40678D01*
X1140423Y38400D01*
X1140400Y38317D01*
Y35684D01*
X1141081Y33140D01*
X1142398Y30860D01*
X1144260Y28998D01*
X1146540Y27682D01*
X1149083Y27000D01*
X1151717D01*
X1154260Y27682D01*
X1156540Y28998D01*
X1158402Y30860D01*
X1159718Y33140D01*
X1160400Y35684D01*
Y38317D01*
X1159718Y40860D01*
X1158402Y43140D01*
X1156540Y45002D01*
X1154260Y46319D01*
X1151717Y47000D01*
X1149083D01*
X1146540Y46319D01*
X1144260Y45002D01*
X1143140Y43882D01*
X1131088Y49672D01*
X1130831Y49738D01*
X1128655Y50640D01*
X1127440Y50800D01*
X1127214Y50883D01*
X1102444Y54833D01*
X1102251Y54826D01*
X1101980Y54853D01*
X1101738Y54932D01*
X943874Y73884D01*
X943683Y73870D01*
X941026Y74079D01*
X939800Y74175D01*
D02*
G37*
G36*
X183930Y47540D02*
X183812D01*
X181132Y46822D01*
X178728Y45434D01*
X176766Y43472D01*
X175378Y41068D01*
X174660Y38388D01*
Y38270D01*
X183930D01*
Y47540D01*
D02*
G37*
G36*
X265400Y47118D02*
X257400D01*
X255059Y46652D01*
X253074Y45326D01*
X251748Y43341D01*
X251283Y41000D01*
Y33000D01*
X251748Y30659D01*
X253074Y28674D01*
X255059Y27348D01*
X257400Y26883D01*
X265400D01*
X267741Y27348D01*
X269726Y28674D01*
X271052Y30659D01*
X271518Y33000D01*
Y41000D01*
X271052Y43341D01*
X269726Y45326D01*
X267741Y46652D01*
X265400Y47118D01*
D02*
G37*
G36*
X1110140Y35730D02*
X1100870D01*
Y26460D01*
X1100988D01*
X1103668Y27178D01*
X1106072Y28566D01*
X1108034Y30528D01*
X1109422Y32932D01*
X1110140Y35612D01*
Y35730D01*
D02*
G37*
G36*
X1098330D02*
X1089060D01*
Y35612D01*
X1089778Y32932D01*
X1091166Y30528D01*
X1093128Y28566D01*
X1095532Y27178D01*
X1098212Y26460D01*
X1098330D01*
Y35730D01*
D02*
G37*
G36*
X183930D02*
X174660D01*
Y35612D01*
X175378Y32932D01*
X176766Y30528D01*
X178728Y28566D01*
X181132Y27178D01*
X183812Y26460D01*
X183930D01*
Y35730D01*
D02*
G37*
G36*
X615880Y49000D02*
X612720D01*
X609668Y48182D01*
X606932Y46603D01*
X604698Y44368D01*
X603118Y41632D01*
X602300Y38580D01*
Y35420D01*
X603118Y32368D01*
X604698Y29632D01*
X606932Y27398D01*
X609668Y25818D01*
X612720Y25000D01*
X615880D01*
X618932Y25818D01*
X621668Y27398D01*
X623902Y29632D01*
X625482Y32368D01*
X626300Y35420D01*
Y38580D01*
X625482Y41632D01*
X623902Y44368D01*
X621668Y46603D01*
X618932Y48182D01*
X615880Y49000D01*
D02*
G37*
G36*
X644700Y49061D02*
X634700D01*
X632873Y48820D01*
X631170Y48115D01*
X629707Y46993D01*
X628586Y45530D01*
X627880Y43827D01*
X627640Y42000D01*
Y32000D01*
X627880Y30173D01*
X628586Y28470D01*
X629707Y27008D01*
X631170Y25886D01*
X632873Y25180D01*
X634700Y24940D01*
X644700D01*
X646527Y25180D01*
X648230Y25886D01*
X649693Y27008D01*
X650815Y28470D01*
X651520Y30173D01*
X651760Y32000D01*
Y42000D01*
X651520Y43827D01*
X650815Y45530D01*
X649693Y46993D01*
X648230Y48115D01*
X646527Y48820D01*
X644700Y49061D01*
D02*
G37*
%LPD*%
D59*
X258770Y67000D02*
G03*
X255503Y66032I1J-6000D01*
G01*
X943018Y66877D02*
G03*
X939797Y67070I-3218J-26807D01*
G01*
X1104364Y46915D02*
G03*
X1100911Y47922I-4764J-9915D01*
G01*
X205878Y46935D02*
G03*
X215364Y27085I4722J-9935D01*
G01*
X258769Y71000D02*
G03*
X254479Y70032I2J-10000D01*
G01*
X943509Y70847D02*
G03*
X939797Y71070I-3709J-30777D01*
G01*
X1101962Y51813D02*
G03*
X1101374Y51895I-2362J-14813D01*
G01*
X1129764Y46915D02*
G03*
X1126732Y47863I-4764J-9915D01*
G01*
X1158643Y674198D02*
G03*
X1157381Y671434I8360J-5487D01*
G01*
X1158703Y674288D02*
G03*
X1158643Y674198I8300J-5577D01*
G01*
X1161590Y677119D02*
G03*
X1158703Y674288I5413J-8408D01*
G01*
X1162693Y677734D02*
G03*
X1161590Y677119I4310J-9023D01*
G01*
X1149000Y670585D02*
G03*
X1148367Y673267I-6000J-2D01*
G01*
X1154463Y675280D02*
G03*
X1153001Y670084I8538J-5206D01*
G01*
X1165061Y674388D02*
G03*
X1161003Y668731I1942J-5677D01*
G01*
X1148195Y360032D02*
G03*
X1149340Y363551I-4854J3526D01*
G01*
X1148193Y360031D02*
G03*
X1148195Y360032I-4853J3528D01*
G01*
X1140518Y349543D02*
G03*
X1139369Y345663I4842J-3543D01*
G01*
D02*
G03*
X1139397Y345329I5990J337D01*
G01*
X1152184Y355243D02*
G03*
X1153345Y358784I-4839J3548D01*
G01*
X1152183Y355242D02*
G03*
X1152184Y355243I-4838J3549D01*
G01*
X1163334Y345448D02*
G03*
X1163339Y346500I-5975J552D01*
G01*
X1183832Y308228D02*
G03*
X1184321Y308037I2427J5487D01*
G01*
X1180870Y316685D02*
G03*
X1183694Y308289I5248J-2908D01*
G01*
X1326810Y289502D02*
G03*
X1327717Y289406I1190J6898D01*
G01*
X1183978Y296034D02*
G03*
X1151096Y326281I-67671J-40570D01*
G01*
X1188494Y288412D02*
G03*
X1188145Y289087I-5494J-2412D01*
G01*
X1188874Y287222D02*
G03*
X1188494Y288412I-5874J-1222D01*
G01*
X1110452Y369585D02*
G03*
X1132131Y335608I38769J831D01*
G01*
X1109998Y390154D02*
G03*
X1109878Y391302I-6998J-154D01*
G01*
X118243Y599259D02*
G03*
X125960Y596940I7717J11681D01*
G01*
X1155421Y288185D02*
G03*
X1158082Y287071I3579J4816D01*
G01*
X201370Y597052D02*
G03*
X199517Y597333I-1816J-5719D01*
G01*
X1147094Y294373D02*
G03*
X1145372Y295257I-3565J-4826D01*
G01*
X151360Y600940D02*
G03*
X151441Y600940I0J10000D01*
G01*
X116013Y609904D02*
G03*
X125960Y600940I9946J1036D01*
G01*
X201973Y601058D02*
G03*
X200105Y601338I-1811J-5720D01*
G01*
X1150732Y297620D02*
G03*
X1149656Y298087I-2916J-5244D01*
G01*
X155639Y624270D02*
G03*
X155140Y624420I-4280J-13330D01*
G01*
X153164Y625394D02*
G03*
X155140Y624420I3596J4803D01*
G01*
X1164719Y301203D02*
G03*
X1162045Y302525I-5720J-8203D01*
G01*
X1172384Y288654D02*
G03*
X1175617Y287090I4109J4372D01*
G01*
X154405Y620465D02*
G03*
X147423Y620132I-3045J-9525D01*
G01*
X1163109Y297372D02*
G03*
X1160827Y298715I-4109J-4372D01*
G01*
X1104364Y46915D02*
X1125000Y37000D01*
X1129764Y46915D02*
X1150400Y37000D01*
X210600D02*
X255503Y66032D01*
X258770Y67000D02*
X258770Y67000D01*
X939797Y67070D01*
X943018Y66877D02*
X1100911Y47922D01*
X215364Y27085D02*
X236000Y37000D01*
X205878Y46935D02*
X254479Y70032D01*
X258769Y71000D02*
X939797Y71070D01*
X943509Y70847D02*
X1101374Y51895D01*
X1101962Y51813D02*
X1126732Y47863D01*
X1157001Y670091D02*
X1157381Y671434D01*
X1157001Y665000D02*
Y670091D01*
X1162693Y677734D02*
X1180000Y686000D01*
X1162693Y677734D02*
X1162693Y677734D01*
X1149000Y670585D02*
X1149000Y670584D01*
X1149001Y665000D01*
X1142000Y686000D02*
X1148367Y673267D01*
X1153001Y665000D02*
X1153001Y670084D01*
X1154463Y675280D02*
X1161000Y686000D01*
X1157001Y665000D02*
X1157360Y346000D01*
X1161003Y668714D02*
Y668731D01*
X1165061Y674387D02*
X1199000Y686000D01*
X1161001Y665000D02*
X1161003Y668714D01*
X1148193Y360031D02*
X1148195Y360032D01*
X1140518Y349543D02*
X1148193Y360031D01*
X1139397Y345329D02*
X1140185Y338333D01*
X1152183Y355242D02*
X1152184Y355243D01*
X1145360Y346000D02*
X1152183Y355242D01*
X1149001Y665000D02*
X1149340Y363551D01*
X1153001Y665000D02*
X1153345Y358784D01*
X1161001Y665000D02*
X1161333Y369842D01*
X1163339Y346500D01*
X1162640Y337941D02*
X1163334Y345448D01*
X1092179Y257000D02*
X1187000Y188000D01*
X1183828Y308230D02*
X1183832Y308228D01*
X1183702Y308286D02*
X1183828Y308230D01*
X1184321Y308037D02*
X1218635Y296332D01*
X1183694Y308289D02*
X1183702Y308286D01*
X1180870Y316685D02*
X1187366Y328411D01*
X1092133Y297819D02*
X1092179Y257000D01*
X1186118Y313778D02*
X1326810Y289502D01*
X1327717Y289406D02*
X1360000Y288100D01*
X1127420Y259431D02*
X1212354Y253185D01*
X1132131Y335608D02*
X1151096Y326281D01*
X1151096Y326281D02*
X1151096Y326281D01*
X1183978Y296034D02*
X1188145Y289087D01*
X1188874Y287222D02*
X1191496Y274625D01*
X1132131Y335608D02*
X1132131Y335608D01*
X1109998Y390154D02*
X1110452Y369585D01*
X1084000Y528000D02*
X1109878Y391302D01*
X100560Y610940D02*
X118243Y599259D01*
X125960Y596940D02*
X151417D01*
X1147094Y294373D02*
X1155421Y288184D01*
X1158082Y287071D02*
X1165000Y286000D01*
X151417Y596940D02*
X199517Y597333D01*
X201370Y597052D02*
X1145372Y295257D01*
X125960Y600940D02*
X151360D01*
X113260Y636340D02*
X116013Y609904D01*
X151441Y600940D02*
X200105Y601338D01*
X201973Y601058D02*
X201989Y601053D01*
X1149656Y298087D01*
X1150732Y297620D02*
X1159000Y293000D01*
X155140Y624420D02*
X155140Y624420D01*
X138660Y636340D02*
X153164Y625394D01*
X155639Y624270D02*
X1155325Y304674D01*
X1162045Y302525D01*
X1164719Y301203D02*
X1175926Y293420D01*
X1176494Y293026D01*
X1175617Y287090D02*
X1183000Y286000D01*
X1163109Y297372D02*
X1172384Y288654D01*
X125960Y610940D02*
X147423Y620132D01*
X154405Y620465D02*
X1160827Y298715D01*
D60*
X1177479Y38679D02*
G03*
X1180617Y44179I-8485J8485D01*
G01*
X1245298Y296043D01*
X1175800Y37000D02*
X1177479Y38679D01*
D63*
X1099600Y37000D02*
D03*
X1125000D02*
D03*
X1150400D02*
D03*
X185200D02*
D03*
X210600D02*
D03*
X236000D02*
D03*
X1360000Y288100D02*
D03*
Y262700D02*
D03*
Y237300D02*
D03*
Y211900D02*
D03*
X1332000Y224200D02*
D03*
Y249600D02*
D03*
Y275000D02*
D03*
X1124400Y386000D02*
D03*
D64*
X1175800Y37000D02*
D03*
X261400D02*
D03*
X1099000Y386000D02*
D03*
D65*
X981710Y627990D02*
D03*
D66*
X931710Y659990D02*
D03*
D67*
X981710Y689990D02*
D03*
D68*
X1360000Y313500D02*
D03*
X1332000Y300400D02*
D03*
D69*
X1310000Y457300D02*
D03*
X55000Y346800D02*
D03*
Y321400D02*
D03*
Y296000D02*
D03*
X24000Y346800D02*
D03*
Y321400D02*
D03*
Y296000D02*
D03*
X614300Y37000D02*
D03*
D70*
X1310000Y482700D02*
D03*
X55000Y270600D02*
D03*
X24000D02*
D03*
D71*
X639700Y37000D02*
D03*
D72*
X967000Y255000D02*
D03*
X243000D02*
D03*
X967000Y468000D02*
D03*
X243000D02*
D03*
D73*
X939800Y40070D02*
D03*
X73030Y471240D02*
D03*
X1329050Y681420D02*
D03*
X337820Y675700D02*
D03*
X176760Y699840D02*
D03*
X62460D02*
D03*
D74*
X164060Y636340D02*
D03*
X138660D02*
D03*
X113260D02*
D03*
X87860D02*
D03*
X151360Y610940D02*
D03*
X125960D02*
D03*
X100560D02*
D03*
X75160D02*
D03*
D75*
X1142000Y686000D02*
D03*
X1161000D02*
D03*
X1199000D02*
D03*
X1180000D02*
D03*
X1385000Y735000D02*
D03*
X1370000D02*
D03*
X1385000Y720000D02*
D03*
Y705000D02*
D03*
X1355000Y735000D02*
D03*
X1385000Y15000D02*
D03*
Y30000D02*
D03*
X1370000Y15000D02*
D03*
X1355000D02*
D03*
X1385000Y45000D02*
D03*
X15000Y15000D02*
D03*
X30000D02*
D03*
X15000Y30000D02*
D03*
Y45000D02*
D03*
X45000Y15000D02*
D03*
X15000Y705000D02*
D03*
X45000Y735000D02*
D03*
X30000D02*
D03*
X15000Y720000D02*
D03*
Y735000D02*
D03*
X1098000Y528000D02*
D03*
X1191000D02*
D03*
X1207000D02*
D03*
X1221000D02*
D03*
Y508000D02*
D03*
X1110000Y298000D02*
D03*
X188000Y231000D02*
D03*
Y246000D02*
D03*
Y260000D02*
D03*
X170692Y259980D02*
D03*
X172000Y183000D02*
D03*
X188000D02*
D03*
Y198000D02*
D03*
X688000Y80000D02*
D03*
X672404Y79965D02*
D03*
X657000Y80000D02*
D03*
Y60000D02*
D03*
X1103000Y471000D02*
D03*
X1120000D02*
D03*
X1137000D02*
D03*
Y421000D02*
D03*
Y432000D02*
D03*
Y443000D02*
D03*
X1084000Y581000D02*
D03*
X1071000D02*
D03*
Y567000D02*
D03*
Y553000D02*
D03*
X1108000Y544000D02*
D03*
Y555000D02*
D03*
X1140000Y514000D02*
D03*
Y529000D02*
D03*
X1284000Y544000D02*
D03*
X1270000Y544000D02*
D03*
X1185000Y481000D02*
D03*
X1173000D02*
D03*
X1223000Y449000D02*
D03*
Y437000D02*
D03*
X1192000Y433000D02*
D03*
X1173000Y436000D02*
D03*
X1188000Y402000D02*
D03*
X1169000Y407000D02*
D03*
X1172000Y323000D02*
D03*
X1209000Y316000D02*
D03*
X1230000D02*
D03*
X1219000D02*
D03*
X1201000Y188000D02*
D03*
Y214000D02*
D03*
X1085540Y305260D02*
D03*
X1085000Y276000D02*
D03*
X1093000Y336000D02*
D03*
X1155000Y229000D02*
D03*
X1129000Y241000D02*
D03*
X1178000Y209000D02*
D03*
X1170000Y239000D02*
D03*
X1173000Y279000D02*
D03*
X1154000Y264000D02*
D03*
X1174000Y263000D02*
D03*
X1140000Y287000D02*
D03*
X1106000Y331000D02*
D03*
X1162640Y337941D02*
D03*
X1157360Y346000D02*
D03*
X1140185Y338333D02*
D03*
X1145360Y346000D02*
D03*
X1187000Y188000D02*
D03*
X1218635Y296332D02*
D03*
X1187366Y328411D02*
D03*
X1092133Y297819D02*
D03*
X1092179Y257000D02*
D03*
X1245298Y296043D02*
D03*
X1186118Y313778D02*
D03*
X1212354Y253185D02*
D03*
X1127420Y259431D02*
D03*
X1100000Y276000D02*
D03*
X1191496Y274625D02*
D03*
X1084000Y528000D02*
D03*
X1165000Y286000D02*
D03*
X1183000D02*
D03*
X1176494Y293026D02*
D03*
X1159000Y293000D02*
D03*
M02*
