G04*
G04 #@! TF.GenerationSoftware,Altium Limited,Altium Designer,21.6.1 (37)*
G04*
G04 Layer_Physical_Order=1*
G04 Layer_Color=255*
%FSLAX44Y44*%
%MOMM*%
G71*
G04*
G04 #@! TF.SameCoordinates,FD64CF10-ECA6-46B9-A7EF-D48B42129E36*
G04*
G04*
G04 #@! TF.FilePolarity,Positive*
G04*
G01*
G75*
%ADD13C,0.5000*%
%ADD14R,0.8000X1.7000*%
%ADD15R,0.5000X0.8000*%
G04:AMPARAMS|DCode=16|XSize=0.6mm|YSize=1mm|CornerRadius=0.075mm|HoleSize=0mm|Usage=FLASHONLY|Rotation=90.000|XOffset=0mm|YOffset=0mm|HoleType=Round|Shape=RoundedRectangle|*
%AMROUNDEDRECTD16*
21,1,0.6000,0.8500,0,0,90.0*
21,1,0.4500,1.0000,0,0,90.0*
1,1,0.1500,0.4250,0.2250*
1,1,0.1500,0.4250,-0.2250*
1,1,0.1500,-0.4250,-0.2250*
1,1,0.1500,-0.4250,0.2250*
%
%ADD16ROUNDEDRECTD16*%
G04:AMPARAMS|DCode=17|XSize=0.6mm|YSize=1mm|CornerRadius=0.075mm|HoleSize=0mm|Usage=FLASHONLY|Rotation=180.000|XOffset=0mm|YOffset=0mm|HoleType=Round|Shape=RoundedRectangle|*
%AMROUNDEDRECTD17*
21,1,0.6000,0.8500,0,0,180.0*
21,1,0.4500,1.0000,0,0,180.0*
1,1,0.1500,-0.2250,0.4250*
1,1,0.1500,0.2250,0.4250*
1,1,0.1500,0.2250,-0.4250*
1,1,0.1500,-0.2250,-0.4250*
%
%ADD17ROUNDEDRECTD17*%
%ADD18R,0.8000X0.5000*%
G04:AMPARAMS|DCode=19|XSize=0.5mm|YSize=0.8mm|CornerRadius=0.125mm|HoleSize=0mm|Usage=FLASHONLY|Rotation=270.000|XOffset=0mm|YOffset=0mm|HoleType=Round|Shape=RoundedRectangle|*
%AMROUNDEDRECTD19*
21,1,0.5000,0.5500,0,0,270.0*
21,1,0.2500,0.8000,0,0,270.0*
1,1,0.2500,-0.2750,-0.1250*
1,1,0.2500,-0.2750,0.1250*
1,1,0.2500,0.2750,0.1250*
1,1,0.2500,0.2750,-0.1250*
%
%ADD19ROUNDEDRECTD19*%
G04:AMPARAMS|DCode=20|XSize=1.2mm|YSize=0.6mm|CornerRadius=0.15mm|HoleSize=0mm|Usage=FLASHONLY|Rotation=270.000|XOffset=0mm|YOffset=0mm|HoleType=Round|Shape=RoundedRectangle|*
%AMROUNDEDRECTD20*
21,1,1.2000,0.3000,0,0,270.0*
21,1,0.9000,0.6000,0,0,270.0*
1,1,0.3000,-0.1500,-0.4500*
1,1,0.3000,-0.1500,0.4500*
1,1,0.3000,0.1500,0.4500*
1,1,0.3000,0.1500,-0.4500*
%
%ADD20ROUNDEDRECTD20*%
%ADD21R,2.5000X1.0000*%
G04:AMPARAMS|DCode=22|XSize=2.6mm|YSize=3.1mm|CornerRadius=0.13mm|HoleSize=0mm|Usage=FLASHONLY|Rotation=0.000|XOffset=0mm|YOffset=0mm|HoleType=Round|Shape=RoundedRectangle|*
%AMROUNDEDRECTD22*
21,1,2.6000,2.8400,0,0,0.0*
21,1,2.3400,3.1000,0,0,0.0*
1,1,0.2600,1.1700,-1.4200*
1,1,0.2600,-1.1700,-1.4200*
1,1,0.2600,-1.1700,1.4200*
1,1,0.2600,1.1700,1.4200*
%
%ADD22ROUNDEDRECTD22*%
G04:AMPARAMS|DCode=23|XSize=1.2mm|YSize=0.6mm|CornerRadius=0.15mm|HoleSize=0mm|Usage=FLASHONLY|Rotation=0.000|XOffset=0mm|YOffset=0mm|HoleType=Round|Shape=RoundedRectangle|*
%AMROUNDEDRECTD23*
21,1,1.2000,0.3000,0,0,0.0*
21,1,0.9000,0.6000,0,0,0.0*
1,1,0.3000,0.4500,-0.1500*
1,1,0.3000,-0.4500,-0.1500*
1,1,0.3000,-0.4500,0.1500*
1,1,0.3000,0.4500,0.1500*
%
%ADD23ROUNDEDRECTD23*%
%ADD24R,1.0000X2.5000*%
G04:AMPARAMS|DCode=25|XSize=0.6mm|YSize=1.3mm|CornerRadius=0.15mm|HoleSize=0mm|Usage=FLASHONLY|Rotation=180.000|XOffset=0mm|YOffset=0mm|HoleType=Round|Shape=RoundedRectangle|*
%AMROUNDEDRECTD25*
21,1,0.6000,1.0000,0,0,180.0*
21,1,0.3000,1.3000,0,0,180.0*
1,1,0.3000,-0.1500,0.5000*
1,1,0.3000,0.1500,0.5000*
1,1,0.3000,0.1500,-0.5000*
1,1,0.3000,-0.1500,-0.5000*
%
%ADD25ROUNDEDRECTD25*%
G04:AMPARAMS|DCode=26|XSize=0.6mm|YSize=0.8mm|CornerRadius=0.075mm|HoleSize=0mm|Usage=FLASHONLY|Rotation=180.000|XOffset=0mm|YOffset=0mm|HoleType=Round|Shape=RoundedRectangle|*
%AMROUNDEDRECTD26*
21,1,0.6000,0.6500,0,0,180.0*
21,1,0.4500,0.8000,0,0,180.0*
1,1,0.1500,-0.2250,0.3250*
1,1,0.1500,0.2250,0.3250*
1,1,0.1500,0.2250,-0.3250*
1,1,0.1500,-0.2250,-0.3250*
%
%ADD26ROUNDEDRECTD26*%
G04:AMPARAMS|DCode=27|XSize=0.5mm|YSize=0.8mm|CornerRadius=0.125mm|HoleSize=0mm|Usage=FLASHONLY|Rotation=0.000|XOffset=0mm|YOffset=0mm|HoleType=Round|Shape=RoundedRectangle|*
%AMROUNDEDRECTD27*
21,1,0.5000,0.5500,0,0,0.0*
21,1,0.2500,0.8000,0,0,0.0*
1,1,0.2500,0.1250,-0.2750*
1,1,0.2500,-0.1250,-0.2750*
1,1,0.2500,-0.1250,0.2750*
1,1,0.2500,0.1250,0.2750*
%
%ADD27ROUNDEDRECTD27*%
%ADD28R,0.7500X0.2540*%
%ADD29R,0.2540X0.7500*%
%ADD59C,0.2000*%
%ADD60C,0.4000*%
%ADD61C,0.3000*%
%ADD62C,1.0000*%
%ADD63C,1.6000*%
G04:AMPARAMS|DCode=64|XSize=1.6mm|YSize=1.6mm|CornerRadius=0.4mm|HoleSize=0mm|Usage=FLASHONLY|Rotation=270.000|XOffset=0mm|YOffset=0mm|HoleType=Round|Shape=RoundedRectangle|*
%AMROUNDEDRECTD64*
21,1,1.6000,0.8000,0,0,270.0*
21,1,0.8000,1.6000,0,0,270.0*
1,1,0.8000,-0.4000,-0.4000*
1,1,0.8000,-0.4000,0.4000*
1,1,0.8000,0.4000,0.4000*
1,1,0.8000,0.4000,-0.4000*
%
%ADD64ROUNDEDRECTD64*%
%ADD65O,4.5000X2.0000*%
%ADD66O,2.0000X4.0000*%
%ADD67O,4.0000X2.0000*%
G04:AMPARAMS|DCode=68|XSize=1.6mm|YSize=1.6mm|CornerRadius=0.4mm|HoleSize=0mm|Usage=FLASHONLY|Rotation=0.000|XOffset=0mm|YOffset=0mm|HoleType=Round|Shape=RoundedRectangle|*
%AMROUNDEDRECTD68*
21,1,1.6000,0.8000,0,0,0.0*
21,1,0.8000,1.6000,0,0,0.0*
1,1,0.8000,0.4000,-0.4000*
1,1,0.8000,-0.4000,-0.4000*
1,1,0.8000,-0.4000,0.4000*
1,1,0.8000,0.4000,0.4000*
%
%ADD68ROUNDEDRECTD68*%
%ADD69C,2.0000*%
G04:AMPARAMS|DCode=70|XSize=2mm|YSize=2mm|CornerRadius=0.5mm|HoleSize=0mm|Usage=FLASHONLY|Rotation=0.000|XOffset=0mm|YOffset=0mm|HoleType=Round|Shape=RoundedRectangle|*
%AMROUNDEDRECTD70*
21,1,2.0000,1.0000,0,0,0.0*
21,1,1.0000,2.0000,0,0,0.0*
1,1,1.0000,0.5000,-0.5000*
1,1,1.0000,-0.5000,-0.5000*
1,1,1.0000,-0.5000,0.5000*
1,1,1.0000,0.5000,0.5000*
%
%ADD70ROUNDEDRECTD70*%
G04:AMPARAMS|DCode=71|XSize=2mm|YSize=2mm|CornerRadius=0.5mm|HoleSize=0mm|Usage=FLASHONLY|Rotation=270.000|XOffset=0mm|YOffset=0mm|HoleType=Round|Shape=RoundedRectangle|*
%AMROUNDEDRECTD71*
21,1,2.0000,1.0000,0,0,270.0*
21,1,1.0000,2.0000,0,0,270.0*
1,1,1.0000,-0.5000,-0.5000*
1,1,1.0000,-0.5000,0.5000*
1,1,1.0000,0.5000,0.5000*
1,1,1.0000,0.5000,-0.5000*
%
%ADD71ROUNDEDRECTD71*%
%ADD72O,3.5000X5.0000*%
%ADD73C,3.2000*%
%ADD74C,1.4000*%
%ADD75C,0.6000*%
G36*
X1394902Y504858D02*
X1392506Y504371D01*
X1392365Y504312D01*
X1392214Y504302D01*
X1389676Y503629D01*
X1389574Y503579D01*
X1389460Y503566D01*
X1388208Y503174D01*
X1388085Y503107D01*
X1387947Y503084D01*
X1384941Y501961D01*
X1384682Y501801D01*
X1384390Y501717D01*
X1378689Y498779D01*
X1378373Y498528D01*
X1378007Y498357D01*
X1372837Y494561D01*
X1372564Y494263D01*
X1372229Y494037D01*
X1367719Y489477D01*
X1367496Y489140D01*
X1367201Y488864D01*
X1363462Y483653D01*
X1363295Y483285D01*
X1363047Y482966D01*
X1360171Y477233D01*
X1360064Y476844D01*
X1359869Y476490D01*
X1357928Y470377D01*
X1357883Y469976D01*
X1357746Y469596D01*
X1356788Y463254D01*
X1356807Y462850D01*
X1356731Y462453D01*
X1356780Y456040D01*
X1356861Y455644D01*
X1356849Y455240D01*
X1357903Y448914D01*
X1358046Y448536D01*
X1358097Y448135D01*
X1360130Y442052D01*
X1360331Y441702D01*
X1360444Y441314D01*
X1363406Y435625D01*
X1363659Y435310D01*
X1363832Y434945D01*
X1367650Y429791D01*
X1367949Y429520D01*
X1368177Y429186D01*
X1372756Y424695D01*
X1373094Y424474D01*
X1373371Y424180D01*
X1378599Y420463D01*
X1378967Y420298D01*
X1379287Y420052D01*
X1385033Y417201D01*
X1385326Y417121D01*
X1385587Y416965D01*
X1388610Y415888D01*
X1388746Y415868D01*
X1388867Y415803D01*
X1390051Y415451D01*
X1390158Y415441D01*
X1390255Y415395D01*
X1392650Y414789D01*
X1392793Y414782D01*
X1392926Y414728D01*
X1394902Y414343D01*
X1394902Y5098D01*
X5098D01*
Y744902D01*
X1136580D01*
X1136965Y743632D01*
X1136907Y743593D01*
X1136189Y742518D01*
X1135936Y741250D01*
Y738750D01*
X1136189Y737482D01*
X1136907Y736407D01*
X1137000Y736345D01*
Y729655D01*
X1136907Y729593D01*
X1136189Y728518D01*
X1135936Y727250D01*
Y724750D01*
X1136189Y723482D01*
X1136907Y722407D01*
X1137982Y721688D01*
X1138939Y721498D01*
Y713616D01*
X1135975D01*
Y704616D01*
X1147975D01*
Y713616D01*
X1145057D01*
Y721497D01*
X1146018Y721688D01*
X1147093Y722407D01*
X1147811Y723482D01*
X1148064Y724750D01*
Y727250D01*
X1147811Y728518D01*
X1147093Y729593D01*
X1147000Y729655D01*
Y736345D01*
X1147093Y736407D01*
X1147450Y736941D01*
X1155550D01*
X1155907Y736407D01*
X1156000Y736345D01*
Y729655D01*
X1155907Y729593D01*
X1155188Y728518D01*
X1154936Y727250D01*
Y724750D01*
X1155188Y723482D01*
X1155907Y722407D01*
X1156982Y721688D01*
X1158250Y721436D01*
X1158946D01*
Y713606D01*
X1155067D01*
Y704606D01*
X1167066D01*
Y713606D01*
X1165064D01*
Y721719D01*
X1166093Y722407D01*
X1166811Y723482D01*
X1167064Y724750D01*
Y727250D01*
X1166811Y728518D01*
X1166093Y729593D01*
X1166000Y729655D01*
Y736345D01*
X1166093Y736407D01*
X1166450Y736941D01*
X1174550D01*
X1174907Y736407D01*
X1175000Y736345D01*
Y729655D01*
X1174907Y729593D01*
X1174189Y728518D01*
X1173936Y727250D01*
Y724750D01*
X1174189Y723482D01*
X1174907Y722407D01*
X1175982Y721688D01*
X1176948Y721496D01*
Y713419D01*
X1174095D01*
Y704419D01*
X1186095D01*
Y713419D01*
X1183066D01*
Y721499D01*
X1184018Y721688D01*
X1185093Y722407D01*
X1185811Y723482D01*
X1186064Y724750D01*
Y727250D01*
X1185811Y728518D01*
X1185093Y729593D01*
X1185000Y729655D01*
Y736345D01*
X1185093Y736407D01*
X1185450Y736941D01*
X1193550D01*
X1193907Y736407D01*
X1194000Y736345D01*
Y729655D01*
X1193907Y729593D01*
X1193188Y728518D01*
X1192936Y727250D01*
Y724750D01*
X1193188Y723482D01*
X1193907Y722407D01*
X1194982Y721688D01*
X1195923Y721501D01*
Y713419D01*
X1192750D01*
Y704419D01*
X1204750D01*
Y713419D01*
X1202040D01*
Y721494D01*
X1203018Y721688D01*
X1204093Y722407D01*
X1204553Y723095D01*
X1205829Y723141D01*
X1205965Y723096D01*
X1283732Y563261D01*
X1282999Y562519D01*
X1282761Y562353D01*
X1281750Y562554D01*
X1277939D01*
X1264592Y566305D01*
X1264557Y566308D01*
X1264512Y566326D01*
X1263733Y566429D01*
X1263409Y566527D01*
X1250500Y567782D01*
Y574000D01*
X1241500D01*
Y562000D01*
Y551270D01*
X1241500Y550000D01*
X1241500Y548730D01*
Y539270D01*
X1241500Y538000D01*
X1241500D01*
Y538000D01*
X1241500D01*
Y532443D01*
X1241412Y532000D01*
Y530500D01*
X1241500Y530057D01*
Y526000D01*
X1241995D01*
X1242889Y525098D01*
X1242863Y522366D01*
X1242514Y522297D01*
X1241357Y521523D01*
X1240583Y520366D01*
X1240312Y519000D01*
Y510000D01*
X1240528Y508912D01*
Y496231D01*
X1239629Y495334D01*
X1238550Y495335D01*
X1214540Y495483D01*
Y506730D01*
X1207000D01*
X1199460D01*
Y498096D01*
X1198376Y497434D01*
X1184060Y504806D01*
X1184060Y515500D01*
X1184059Y515511D01*
X1184060Y515522D01*
X1184013Y531000D01*
X1184737Y532084D01*
X1185009Y533450D01*
Y536450D01*
X1184737Y537816D01*
X1183963Y538973D01*
X1182806Y539747D01*
X1181948Y539917D01*
X1181917Y539958D01*
X1180451Y541075D01*
X1179876Y541311D01*
X1180127Y542581D01*
X1181440D01*
X1182350Y542763D01*
X1195436Y539436D01*
Y536250D01*
X1195688Y534982D01*
X1196407Y533907D01*
X1197482Y533189D01*
X1198750Y532936D01*
X1201250D01*
X1202518Y533189D01*
X1203593Y533907D01*
X1203655Y534000D01*
X1210345D01*
X1210407Y533907D01*
X1211482Y533189D01*
X1212750Y532936D01*
X1215250D01*
X1216518Y533189D01*
X1217593Y533907D01*
X1218311Y534982D01*
X1218564Y536250D01*
Y541750D01*
X1218311Y543018D01*
X1217593Y544093D01*
X1217059Y544450D01*
Y547550D01*
X1217593Y547907D01*
X1218311Y548982D01*
X1218564Y550250D01*
Y555750D01*
X1218311Y557018D01*
X1217593Y558093D01*
X1217059Y558450D01*
Y561000D01*
X1218500D01*
Y569488D01*
X1219490Y570284D01*
X1227500Y568527D01*
Y562540D01*
X1226960D01*
Y557270D01*
X1232000D01*
X1237040D01*
Y562540D01*
X1236500D01*
Y574000D01*
X1231100D01*
X1218913Y576674D01*
X1217798Y576918D01*
X1217484Y576951D01*
X1217102Y576998D01*
X1217073Y577004D01*
X1217406Y576964D01*
X1217484Y576951D01*
X1217737Y576925D01*
X1217406Y576964D01*
X1216525Y577113D01*
X1216525Y577069D01*
X1216512Y577059D01*
X1215937Y577059D01*
X1211500D01*
X1211500Y577059D01*
Y577118D01*
X1209159Y576652D01*
X1209107Y576617D01*
X1209125Y576574D01*
X1200738Y573000D01*
X1198933D01*
X1198777Y573046D01*
X1185009Y574297D01*
Y574550D01*
X1184737Y575916D01*
X1183963Y577073D01*
X1182806Y577847D01*
X1181440Y578119D01*
X1172440D01*
X1171074Y577847D01*
X1169917Y577073D01*
X1169243Y576065D01*
X1137000D01*
Y576084D01*
X1134651Y575775D01*
X1132461Y574868D01*
X1130581Y573425D01*
X1130399Y573187D01*
X1129129Y573619D01*
Y574550D01*
X1128857Y575916D01*
X1128083Y577073D01*
X1126926Y577847D01*
X1125560Y578119D01*
X1116560D01*
X1115194Y577847D01*
X1114037Y577073D01*
X1113263Y575916D01*
X1112991Y574550D01*
Y571550D01*
X1113263Y570184D01*
X1114037Y569027D01*
X1115194Y568253D01*
X1116560Y567981D01*
X1125560D01*
X1126802Y568229D01*
X1127130Y568093D01*
X1127251Y567999D01*
X1127922Y567007D01*
X1127783Y565794D01*
X1126671Y565198D01*
X1125560Y565419D01*
X1116560D01*
X1115194Y565147D01*
X1115142Y565112D01*
X1102500Y566705D01*
Y573000D01*
X1093500D01*
Y561000D01*
X1099013D01*
X1099118Y560965D01*
X1100349Y560810D01*
X1100270Y559540D01*
X1099270D01*
Y554270D01*
X1103040D01*
Y559191D01*
X1103973Y560353D01*
X1112991Y559217D01*
Y558850D01*
X1113263Y557484D01*
X1114037Y556327D01*
X1115194Y555553D01*
X1116560Y555281D01*
X1125560D01*
X1126602Y555489D01*
X1127662Y554754D01*
X1127677Y553787D01*
X1126668Y553049D01*
X1125560Y553269D01*
X1122330D01*
Y547650D01*
X1121060D01*
Y546380D01*
X1112441D01*
Y546150D01*
X1112754Y544574D01*
X1113647Y543237D01*
X1114984Y542345D01*
X1116560Y542031D01*
X1116703D01*
X1117134Y540761D01*
X1116066Y539941D01*
X1116048Y539917D01*
X1115194Y539747D01*
X1114164Y539059D01*
X1102500D01*
Y545000D01*
X1093500D01*
Y533000D01*
X1099204D01*
X1099500Y532941D01*
X1113093D01*
X1113263Y532084D01*
X1114001Y530981D01*
X1114003Y522959D01*
X1113105Y522060D01*
X1087330D01*
X1087138Y522035D01*
X1086206Y522127D01*
X1086013Y523422D01*
X1086832Y523761D01*
X1088239Y525168D01*
X1089000Y527006D01*
Y528995D01*
X1088239Y530832D01*
X1087341Y531730D01*
X1087740Y533000D01*
X1088500D01*
Y545000D01*
X1087059D01*
Y547000D01*
X1088500D01*
Y559000D01*
X1079500D01*
Y547000D01*
X1080941D01*
Y545000D01*
X1079500D01*
Y533000D01*
X1080260D01*
X1080659Y531730D01*
X1079761Y530832D01*
X1079000Y528995D01*
Y527006D01*
X1079761Y525168D01*
X1080403Y524526D01*
X1079730Y523403D01*
X1078534Y523766D01*
X1074561Y525890D01*
X1071078Y528748D01*
X1068439Y531963D01*
X1068396Y532048D01*
X1005526Y623952D01*
X1005901Y624857D01*
X1006313Y627990D01*
X1005901Y631123D01*
X1004692Y634042D01*
X1002768Y636549D01*
X1000262Y638472D01*
X997342Y639681D01*
X994210Y640094D01*
X969210D01*
X966077Y639681D01*
X963158Y638472D01*
X960651Y636549D01*
X958728Y634042D01*
X957519Y631123D01*
X957106Y627990D01*
X957519Y624857D01*
X958728Y621938D01*
X960651Y619431D01*
X963158Y617508D01*
X966077Y616299D01*
X969210Y615886D01*
X993935D01*
X1056742Y524075D01*
X1056793Y524019D01*
X1057303Y523185D01*
X1061086Y518756D01*
X1065514Y514974D01*
X1070480Y511931D01*
X1075861Y509702D01*
X1081524Y508343D01*
X1085572Y508024D01*
X1085527Y506754D01*
X1023857Y506209D01*
X1018264Y506160D01*
X1017005Y506175D01*
X1017005D01*
X1017005Y506175D01*
X1011575Y505748D01*
X1005912Y504388D01*
X1000531Y502160D01*
X999566Y501568D01*
X999438Y501518D01*
X979487Y490478D01*
X977886Y491792D01*
X974498Y493603D01*
X970822Y494718D01*
X967000Y495094D01*
X963177Y494718D01*
X959501Y493603D01*
X956114Y491792D01*
X953144Y489355D01*
X950708Y486386D01*
X948897Y482998D01*
X947782Y479323D01*
X947405Y475500D01*
Y460500D01*
X947782Y456677D01*
X948897Y453002D01*
X950708Y449614D01*
X953144Y446645D01*
X956114Y444208D01*
X959501Y442397D01*
X963177Y441282D01*
X967000Y440906D01*
X970822Y441282D01*
X974498Y442397D01*
X977886Y444208D01*
X980855Y446645D01*
X983292Y449614D01*
X985102Y453002D01*
X986218Y456677D01*
X986594Y460500D01*
Y475500D01*
X986335Y478129D01*
X1006218Y489131D01*
X1006306Y489106D01*
X1006306Y489106D01*
X1006306Y489106D01*
X1008585Y490325D01*
X1012897Y491632D01*
X1015921Y491930D01*
X1016862Y491078D01*
X1016920Y335360D01*
Y335308D01*
X1016949Y335085D01*
X1016533Y327676D01*
X1015257Y320167D01*
X1013149Y312848D01*
X1010234Y305811D01*
X1006550Y299145D01*
X1002142Y292933D01*
X997067Y287254D01*
X991387Y282178D01*
X985176Y277771D01*
X981404Y275686D01*
X980855Y276355D01*
X977886Y278792D01*
X974498Y280603D01*
X970822Y281718D01*
X967000Y282094D01*
X963177Y281718D01*
X959501Y280603D01*
X956114Y278792D01*
X953144Y276355D01*
X950708Y273386D01*
X948897Y269998D01*
X947782Y266323D01*
X947405Y262500D01*
Y247500D01*
X947782Y243677D01*
X948897Y240002D01*
X950708Y236614D01*
X953144Y233645D01*
X956114Y231208D01*
X959072Y229627D01*
X958763Y228352D01*
X173456Y217059D01*
X173183Y217000D01*
X167500D01*
Y205407D01*
X167147Y204283D01*
X167147Y203876D01*
Y199013D01*
X172187D01*
X177227D01*
X177227Y204283D01*
X176500Y205252D01*
X176500Y205553D01*
Y210984D01*
X1126960Y224653D01*
X1127623Y224365D01*
X1128230Y223766D01*
Y214250D01*
X1128437D01*
Y211442D01*
X1128437Y211402D01*
X1128407Y210139D01*
X1128404Y210117D01*
X1128210Y208924D01*
X1128206Y208907D01*
X1127571Y207957D01*
X1126621Y207322D01*
X1126546Y207307D01*
X1126555Y207283D01*
X721280Y51500D01*
X713540D01*
Y52040D01*
X708270D01*
Y47000D01*
Y41960D01*
X713540D01*
Y42500D01*
X725000D01*
Y46376D01*
X1128750Y201573D01*
X1129028Y201748D01*
X1130039Y202167D01*
X1131919Y203609D01*
X1133362Y205489D01*
X1134268Y207679D01*
X1134578Y210028D01*
X1134550Y210236D01*
X1134555Y210256D01*
Y214250D01*
X1177690D01*
Y213710D01*
X1180230D01*
Y220000D01*
Y226290D01*
X1179671D01*
Y229447D01*
X1179683Y230712D01*
X1179683D01*
X1179796Y231282D01*
X1179975Y232512D01*
X1187531Y269859D01*
X1188912Y270283D01*
X1190501Y269625D01*
X1192490D01*
X1193980Y270242D01*
X1194966Y269781D01*
X1195250Y269512D01*
Y261230D01*
Y251230D01*
Y241230D01*
Y231230D01*
X1206750D01*
Y236535D01*
X1209527D01*
Y236523D01*
X1210648Y236300D01*
X1211598Y235665D01*
X1212198Y234767D01*
X1212454Y233602D01*
D01*
X1212468Y232390D01*
Y188116D01*
X1212456D01*
X1212233Y186995D01*
X1212203Y186950D01*
X1212223Y186942D01*
X1199366Y157355D01*
X1199361Y157329D01*
X1199346Y157307D01*
X1199314Y157150D01*
X1199225Y157005D01*
X1160297Y52309D01*
X1160292Y52302D01*
X1160255Y52284D01*
X1159647Y51300D01*
X1158796Y50357D01*
X1154730Y46047D01*
X1154260Y46319D01*
X1151717Y47000D01*
X1149083D01*
X1146540Y46319D01*
X1144260Y45002D01*
X1142398Y43140D01*
X1141081Y40860D01*
X1140400Y38317D01*
Y35684D01*
X1140794Y34214D01*
X1139718Y33322D01*
X1134977Y35600D01*
X1135000Y35684D01*
Y38317D01*
X1134318Y40860D01*
X1133002Y43140D01*
X1131140Y45002D01*
X1128860Y46319D01*
X1126317Y47000D01*
X1123683D01*
X1121140Y46319D01*
X1118860Y45002D01*
X1116998Y43140D01*
X1115682Y40860D01*
X1115000Y38317D01*
Y35684D01*
X1115682Y33140D01*
X1116998Y30860D01*
X1118860Y28998D01*
X1121140Y27682D01*
X1123683Y27000D01*
X1126317D01*
X1128860Y27682D01*
X1131140Y28998D01*
X1132260Y30118D01*
X1141014Y25912D01*
X1140759Y24668D01*
X953966Y16738D01*
X953556Y17992D01*
X956374Y19875D01*
X959995Y23496D01*
X962841Y27754D01*
X964801Y32486D01*
X965800Y37509D01*
Y42631D01*
X964801Y47654D01*
X962841Y52386D01*
X959995Y56644D01*
X956374Y60265D01*
X952115Y63111D01*
X947384Y65071D01*
X942361Y66070D01*
X937239D01*
X932216Y65071D01*
X927484Y63111D01*
X923226Y60265D01*
X919604Y56644D01*
X916759Y52386D01*
X914799Y47654D01*
X913800Y42631D01*
Y37509D01*
X914799Y32486D01*
X916759Y27754D01*
X919604Y23496D01*
X923226Y19875D01*
X926178Y17902D01*
X925772Y16646D01*
X650907Y26504D01*
X650298Y27796D01*
X650815Y28470D01*
X651520Y30173D01*
X651760Y32000D01*
Y33465D01*
X676946D01*
Y32250D01*
X677160Y31177D01*
X677767Y30268D01*
X678677Y29660D01*
X679750Y29446D01*
X684250D01*
X685323Y29660D01*
X686233Y30268D01*
X686840Y31177D01*
X687054Y32250D01*
Y40750D01*
X686840Y41823D01*
X686233Y42733D01*
X685323Y43341D01*
X684250Y43554D01*
X679750D01*
X678677Y43341D01*
X677767Y42733D01*
X677160Y41823D01*
X676946Y40750D01*
Y39583D01*
X651760D01*
Y42000D01*
X651520Y43827D01*
X650815Y45530D01*
X649693Y46993D01*
X648230Y48115D01*
X646527Y48820D01*
X644700Y49061D01*
X634700D01*
X632873Y48820D01*
X631170Y48115D01*
X629707Y46993D01*
X628586Y45530D01*
X627880Y43827D01*
X627640Y42000D01*
Y34030D01*
X626370Y33440D01*
X625880Y33853D01*
X626300Y35420D01*
Y38580D01*
X625482Y41632D01*
X623902Y44368D01*
X621668Y46603D01*
X618932Y48182D01*
X615880Y49000D01*
X612720D01*
X609668Y48182D01*
X606932Y46603D01*
X604698Y44368D01*
X603118Y41632D01*
X603106Y41588D01*
X271401D01*
X271052Y43341D01*
X269726Y45326D01*
X267741Y46652D01*
X265400Y47118D01*
X257400D01*
X255059Y46652D01*
X253074Y45326D01*
X251748Y43341D01*
X251283Y41000D01*
Y35258D01*
X246635Y33145D01*
X245563Y34053D01*
X246000Y35684D01*
Y38317D01*
X245319Y40860D01*
X244002Y43140D01*
X242140Y45002D01*
X239860Y46319D01*
X237316Y47000D01*
X234683D01*
X232140Y46319D01*
X229860Y45002D01*
X227998Y43140D01*
X226681Y40860D01*
X226000Y38317D01*
Y35684D01*
X226681Y33140D01*
X227998Y30860D01*
X228596Y30262D01*
X228110Y29088D01*
X218490D01*
X218004Y30262D01*
X218602Y30860D01*
X219918Y33140D01*
X220600Y35684D01*
Y38317D01*
X219918Y40860D01*
X218602Y43140D01*
X216740Y45002D01*
X214460Y46319D01*
X211917Y47000D01*
X209284D01*
X206740Y46319D01*
X204460Y45002D01*
X202598Y43140D01*
X201282Y40860D01*
X200600Y38317D01*
Y35684D01*
X201282Y33140D01*
X202598Y30860D01*
X203196Y30262D01*
X202710Y29088D01*
X193853D01*
X193367Y30262D01*
X193634Y30528D01*
X195022Y32932D01*
X195740Y35612D01*
Y35730D01*
X185200D01*
Y37000D01*
X183930D01*
Y47540D01*
X183812D01*
X181132Y46822D01*
X178728Y45434D01*
X176766Y43472D01*
X175378Y41068D01*
X175184Y40345D01*
X173928Y40159D01*
X35554Y263130D01*
X35820Y263773D01*
X36060Y265600D01*
Y275600D01*
X35820Y277427D01*
X35115Y279130D01*
X33993Y280592D01*
X32530Y281714D01*
X30827Y282420D01*
X29000Y282661D01*
X28588D01*
Y284806D01*
X28632Y284818D01*
X31368Y286398D01*
X33602Y288632D01*
X35182Y291368D01*
X36000Y294420D01*
Y297580D01*
X35182Y300632D01*
X33602Y303368D01*
X31368Y305602D01*
X28632Y307182D01*
X28588Y307194D01*
Y310206D01*
X28632Y310218D01*
X31368Y311798D01*
X33602Y314032D01*
X35182Y316768D01*
X36000Y319820D01*
Y322980D01*
X35182Y326032D01*
X33602Y328768D01*
X31368Y331003D01*
X28632Y332582D01*
X28588Y332594D01*
Y335606D01*
X28632Y335618D01*
X31368Y337198D01*
X33602Y339432D01*
X35182Y342168D01*
X36000Y345220D01*
Y348380D01*
X35182Y351432D01*
X33602Y354168D01*
X31368Y356403D01*
X30303Y357017D01*
X47318Y462053D01*
X48629Y462206D01*
X49989Y458924D01*
X52834Y454666D01*
X56456Y451045D01*
X60714Y448199D01*
X65446Y446239D01*
X70469Y445240D01*
X75591D01*
X80614Y446239D01*
X85345Y448199D01*
X89604Y451045D01*
X93225Y454666D01*
X96071Y458924D01*
X98031Y463656D01*
X99030Y468679D01*
Y473801D01*
X98031Y478824D01*
X96071Y483556D01*
X93225Y487814D01*
X89604Y491436D01*
X85345Y494281D01*
X80614Y496241D01*
X75591Y497240D01*
X70469D01*
X65446Y496241D01*
X63638Y495492D01*
X62883Y496513D01*
X149935Y602004D01*
X150175Y601940D01*
X152545D01*
X154834Y602553D01*
X156886Y603738D01*
X158561Y605414D01*
X159746Y607466D01*
X160360Y609755D01*
Y612125D01*
X159746Y614414D01*
X158932Y615825D01*
X164689Y627340D01*
X165245D01*
X167534Y627953D01*
X169586Y629138D01*
X171262Y630814D01*
X172446Y632866D01*
X173060Y635155D01*
Y637525D01*
X172446Y639814D01*
X171262Y641866D01*
X169586Y643542D01*
X167534Y644727D01*
X165245Y645340D01*
X162875D01*
X160586Y644727D01*
X158534Y643542D01*
X156858Y641866D01*
X155673Y639814D01*
X155060Y637525D01*
Y635155D01*
X155673Y632866D01*
X156488Y631455D01*
X150730Y619940D01*
X150175D01*
X147886Y619327D01*
X145834Y618142D01*
X144158Y616466D01*
X142973Y614414D01*
X142360Y612125D01*
Y609755D01*
X142868Y607858D01*
X47509Y492300D01*
X47322Y491953D01*
X46250Y490697D01*
X43536Y486268D01*
X41548Y481469D01*
X40363Y476532D01*
X40367Y476531D01*
X21245Y358485D01*
X19368Y357982D01*
X16632Y356403D01*
X14398Y354168D01*
X12818Y351432D01*
X12000Y348380D01*
Y345220D01*
X12818Y342168D01*
X14398Y339432D01*
X16632Y337198D01*
X19368Y335618D01*
X19412Y335606D01*
Y332594D01*
X19368Y332582D01*
X16632Y331003D01*
X14398Y328768D01*
X12818Y326032D01*
X12000Y322980D01*
Y319820D01*
X12818Y316768D01*
X14398Y314032D01*
X16632Y311798D01*
X19368Y310218D01*
X19412Y310206D01*
Y307194D01*
X19368Y307182D01*
X16632Y305602D01*
X14398Y303368D01*
X12818Y300632D01*
X12000Y297580D01*
Y294420D01*
X12818Y291368D01*
X14398Y288632D01*
X16632Y286398D01*
X19368Y284818D01*
X19412Y284806D01*
Y282661D01*
X19000D01*
X17173Y282420D01*
X15470Y281714D01*
X14008Y280592D01*
X12886Y279130D01*
X12180Y277427D01*
X11940Y275600D01*
Y265600D01*
X12180Y263773D01*
X12886Y262070D01*
X14008Y260608D01*
X15470Y259486D01*
X17173Y258780D01*
X19000Y258540D01*
X27602D01*
X170681Y27989D01*
X170820Y27840D01*
X170997Y27510D01*
X173121Y24921D01*
X175710Y22797D01*
X178663Y21218D01*
X181867Y20246D01*
X185141Y19924D01*
X185200Y19912D01*
X236000D01*
X236059Y19924D01*
X239333Y20246D01*
X242537Y21218D01*
X242873Y21398D01*
X243074Y21445D01*
X255752Y27210D01*
X257400Y26883D01*
X265400D01*
X267741Y27348D01*
X269726Y28674D01*
X271052Y30659D01*
X271401Y32412D01*
X603106D01*
X603118Y32368D01*
X604698Y29632D01*
X606932Y27398D01*
X609668Y25818D01*
X612720Y25000D01*
X615880D01*
X618932Y25818D01*
X619736Y26282D01*
X625520Y21313D01*
X625933Y21081D01*
X627640Y19771D01*
X631045Y18360D01*
X633958Y17977D01*
X634195Y17921D01*
X938614Y7003D01*
X938856Y7042D01*
X939800Y6968D01*
X940918Y7056D01*
X941203Y7012D01*
X1151294Y15931D01*
X1151679Y16024D01*
X1154517Y16304D01*
X1158475Y17505D01*
X1162123Y19455D01*
X1163211Y20347D01*
X1163583Y20540D01*
X1171561Y26930D01*
X1171800Y26883D01*
X1179800D01*
X1182141Y27348D01*
X1184126Y28674D01*
X1185452Y30659D01*
X1185918Y33000D01*
Y41000D01*
X1185452Y43341D01*
X1184126Y45326D01*
X1182141Y46652D01*
X1179800Y47118D01*
X1171800D01*
X1170414Y46842D01*
X1169470Y47949D01*
X1208680Y153402D01*
X1221503Y182911D01*
X1221571Y183223D01*
X1222192Y184722D01*
X1222639Y188116D01*
X1222585D01*
X1222585Y188116D01*
Y233647D01*
X1222585Y234095D01*
X1222604Y234095D01*
X1222562Y234626D01*
X1222508Y234898D01*
X1222507Y234899D01*
X1222491Y234980D01*
X1222450Y235292D01*
X1222448Y235308D01*
X1222448Y235308D01*
X1222188Y237283D01*
X1220779Y240684D01*
X1218538Y243605D01*
X1215617Y245846D01*
X1213037Y246915D01*
X1213289Y248185D01*
X1213349D01*
X1215187Y248946D01*
X1216359Y250119D01*
X1307268Y249948D01*
X1308538Y249932D01*
X1308538Y249932D01*
X1309702Y249675D01*
X1310373Y249226D01*
X1310407Y249267D01*
X1323014Y238788D01*
X1323284Y238642D01*
X1324940Y237371D01*
X1324942Y237370D01*
X1324973Y237423D01*
X1328499Y235389D01*
X1328333Y234130D01*
X1327932Y234022D01*
X1325528Y232634D01*
X1323566Y230672D01*
X1322178Y228268D01*
X1321460Y225588D01*
Y225470D01*
X1332000D01*
Y224200D01*
X1333270D01*
Y213660D01*
X1333388D01*
X1336068Y214378D01*
X1338472Y215766D01*
X1340434Y217728D01*
X1341822Y220132D01*
X1342540Y222812D01*
Y223274D01*
X1343712Y223762D01*
X1351079Y216448D01*
X1350681Y215760D01*
X1350000Y213217D01*
Y210584D01*
X1350681Y208040D01*
X1351998Y205760D01*
X1353860Y203898D01*
X1356140Y202582D01*
X1358683Y201900D01*
X1361317D01*
X1363860Y202582D01*
X1366140Y203898D01*
X1368002Y205760D01*
X1369319Y208040D01*
X1370000Y210584D01*
Y213217D01*
X1369319Y215760D01*
X1368002Y218040D01*
X1366140Y219902D01*
X1363860Y221219D01*
X1361317Y221900D01*
X1358683D01*
X1356140Y221219D01*
X1355392Y220786D01*
X1341906Y234177D01*
X1341945Y234216D01*
X1339967Y235734D01*
X1339060Y236429D01*
X1338968Y236467D01*
X1337859Y237051D01*
X1334839Y238793D01*
X1335004Y240052D01*
X1335860Y240282D01*
X1338140Y241598D01*
X1340002Y243460D01*
X1341319Y245740D01*
X1342000Y248284D01*
Y250917D01*
X1341319Y253460D01*
X1340002Y255740D01*
X1338140Y257602D01*
X1335860Y258919D01*
X1333316Y259600D01*
X1330683D01*
X1328140Y258919D01*
X1325860Y257602D01*
X1325450Y257193D01*
X1318043Y261724D01*
X1318017Y261734D01*
X1317953Y261783D01*
X1317862Y262511D01*
X1317949Y263174D01*
X1317950Y263174D01*
X1317946Y263180D01*
X1317947Y263185D01*
X1325330Y267528D01*
X1325860Y266998D01*
X1328140Y265682D01*
X1330683Y265000D01*
X1333316D01*
X1335860Y265682D01*
X1338140Y266998D01*
X1340002Y268860D01*
X1340843Y270317D01*
X1342241Y270198D01*
X1346813Y257827D01*
X1346974Y257565D01*
X1347262Y256869D01*
X1347328Y256612D01*
X1353118Y244560D01*
X1351998Y243440D01*
X1350681Y241160D01*
X1350000Y238617D01*
Y235984D01*
X1350681Y233440D01*
X1351998Y231160D01*
X1353860Y229298D01*
X1356140Y227982D01*
X1358683Y227300D01*
X1361317D01*
X1363860Y227982D01*
X1366140Y229298D01*
X1368002Y231160D01*
X1369319Y233440D01*
X1370000Y235984D01*
Y238617D01*
X1369319Y241160D01*
X1368002Y243440D01*
X1366140Y245302D01*
X1363860Y246619D01*
X1361317Y247300D01*
X1358683D01*
X1358600Y247278D01*
X1356630Y251376D01*
X1357522Y252452D01*
X1358612Y252160D01*
X1358730D01*
Y262700D01*
Y273240D01*
X1358612D01*
X1355932Y272522D01*
X1353528Y271134D01*
X1351566Y269172D01*
X1350914Y268042D01*
X1349516Y268161D01*
X1345187Y279874D01*
X1345026Y280135D01*
X1344229Y282061D01*
X1341985Y284985D01*
X1339060Y287229D01*
X1335655Y288640D01*
X1332823Y289013D01*
X1332906Y290283D01*
X1336000D01*
X1338341Y290748D01*
X1340326Y292074D01*
X1341652Y294059D01*
X1342117Y296400D01*
Y299532D01*
X1352647Y304525D01*
X1353659Y303848D01*
X1356000Y303383D01*
X1364000D01*
X1366341Y303848D01*
X1368326Y305174D01*
X1369652Y307159D01*
X1370117Y309500D01*
Y317500D01*
X1369652Y319841D01*
X1368326Y321826D01*
X1366341Y323152D01*
X1364000Y323618D01*
X1356000D01*
X1353659Y323152D01*
X1351674Y321826D01*
X1350348Y319841D01*
X1349883Y317500D01*
Y309984D01*
X1342327Y306402D01*
X1341652Y306741D01*
X1340326Y308726D01*
X1338341Y310052D01*
X1336000Y310518D01*
X1328000D01*
X1325659Y310052D01*
X1323674Y308726D01*
X1322348Y306741D01*
X1321882Y304400D01*
Y296707D01*
X1314788Y293342D01*
X1314772Y293376D01*
X1314649Y293294D01*
X1313528Y293071D01*
Y293059D01*
X1250849D01*
X1250000Y294329D01*
X1250298Y295048D01*
Y297037D01*
X1249537Y298875D01*
X1249389Y299023D01*
X1249669Y367874D01*
X1250177Y368634D01*
X1250449Y370000D01*
Y370422D01*
X1253011D01*
Y370000D01*
X1253283Y368634D01*
X1254057Y367477D01*
X1255214Y366703D01*
X1256580Y366432D01*
X1259580D01*
X1260946Y366703D01*
X1262103Y367477D01*
X1262877Y368634D01*
X1263149Y370000D01*
Y370422D01*
X1265712D01*
Y370000D01*
X1265983Y368634D01*
X1266757Y367477D01*
X1267914Y366703D01*
X1269280Y366432D01*
X1272280D01*
X1273646Y366703D01*
X1274803Y367477D01*
X1275577Y368634D01*
X1275849Y370000D01*
Y379000D01*
X1275577Y380366D01*
X1274803Y381523D01*
X1273646Y382297D01*
X1272280Y382569D01*
X1269280D01*
X1267914Y382297D01*
X1266757Y381523D01*
X1265983Y380366D01*
X1265712Y379000D01*
Y378578D01*
X1263149D01*
Y379000D01*
X1262877Y380366D01*
X1262103Y381523D01*
X1260946Y382297D01*
X1259580Y382569D01*
X1256580D01*
X1255214Y382297D01*
X1254057Y381523D01*
X1253283Y380366D01*
X1253011Y379000D01*
Y378578D01*
X1250449D01*
Y379000D01*
X1250177Y380366D01*
X1249403Y381523D01*
X1248246Y382297D01*
X1246880Y382569D01*
X1243880D01*
X1242514Y382297D01*
X1241357Y381523D01*
X1240583Y380366D01*
X1240312Y379000D01*
Y378578D01*
X1237749D01*
Y379000D01*
X1237477Y380366D01*
X1236703Y381523D01*
X1235546Y382297D01*
X1234180Y382569D01*
X1231180D01*
X1229814Y382297D01*
X1228657Y381523D01*
X1227883Y380366D01*
X1227611Y379000D01*
Y370000D01*
X1227883Y368634D01*
X1228657Y367477D01*
X1229814Y366703D01*
X1231180Y366432D01*
X1234180D01*
X1235546Y366703D01*
X1236703Y367477D01*
X1237477Y368634D01*
X1237749Y370000D01*
Y370422D01*
X1240312D01*
Y370000D01*
X1240583Y368634D01*
X1241357Y367477D01*
X1241510Y367374D01*
X1241232Y299048D01*
X1241059Y298875D01*
X1240298Y297037D01*
Y295048D01*
X1240596Y294329D01*
X1239747Y293059D01*
X1224450D01*
X1224093Y293593D01*
X1223169Y294211D01*
X1223635Y295337D01*
Y297326D01*
X1223025Y298799D01*
X1223229Y299180D01*
X1224482Y300018D01*
X1225320Y301271D01*
X1225610Y302730D01*
X1219000D01*
X1212390D01*
X1212680Y301271D01*
X1213518Y300018D01*
X1214369Y299449D01*
X1214397Y299164D01*
X1213635Y297326D01*
Y295337D01*
X1214260Y293829D01*
X1213907Y293593D01*
X1213396Y292829D01*
X1203750D01*
X1203602Y292799D01*
X1203451Y292814D01*
X1203001Y292770D01*
X1195250D01*
Y288310D01*
X1194710D01*
Y285770D01*
X1201000D01*
Y283230D01*
X1194710D01*
Y280690D01*
X1194710D01*
X1194813Y279834D01*
X1193679Y279132D01*
X1192490Y279625D01*
X1191619D01*
X1190746Y280895D01*
X1191460Y282763D01*
X1191503Y283009D01*
X1191768Y283651D01*
X1191893Y284600D01*
X1191991Y284897D01*
X1193784Y299513D01*
X1193779Y299579D01*
X1193798Y299642D01*
X1204772Y408500D01*
X1211000D01*
Y408500D01*
X1212000D01*
Y408500D01*
X1224000D01*
Y409941D01*
X1232509D01*
Y409922D01*
X1234859Y410232D01*
X1237048Y411139D01*
X1238928Y412581D01*
X1239758Y413663D01*
X1239987Y413887D01*
X1245145Y421432D01*
X1246880D01*
X1248246Y421703D01*
X1249403Y422477D01*
X1250177Y423634D01*
X1250449Y425000D01*
Y434000D01*
X1250177Y435366D01*
X1249403Y436523D01*
X1249012Y436785D01*
Y440412D01*
X1254715D01*
Y436963D01*
X1254057Y436523D01*
X1253283Y435366D01*
X1253011Y434000D01*
Y425000D01*
X1253283Y423634D01*
X1254057Y422477D01*
X1255214Y421703D01*
X1256580Y421432D01*
X1259580D01*
X1260946Y421703D01*
X1262103Y422477D01*
X1262877Y423634D01*
X1263149Y425000D01*
Y434000D01*
X1262877Y435366D01*
X1262103Y436523D01*
X1261852Y436692D01*
Y440412D01*
X1267258D01*
Y436858D01*
X1266757Y436523D01*
X1265983Y435366D01*
X1265712Y434000D01*
Y425000D01*
X1265983Y423634D01*
X1266757Y422477D01*
X1267914Y421703D01*
X1269280Y421432D01*
X1272280D01*
X1273646Y421703D01*
X1274803Y422477D01*
X1275577Y423634D01*
X1275849Y425000D01*
Y434000D01*
X1275577Y435366D01*
X1274803Y436523D01*
X1274395Y436796D01*
Y440412D01*
X1284996D01*
X1285000Y440413D01*
X1285005Y440409D01*
Y440409D01*
X1288792Y440782D01*
X1292467Y441897D01*
X1294445Y442954D01*
X1294885Y443107D01*
X1302669Y447677D01*
X1305368Y446118D01*
X1308420Y445300D01*
X1311580D01*
X1314632Y446118D01*
X1317368Y447698D01*
X1319603Y449932D01*
X1321182Y452668D01*
X1322000Y455720D01*
Y458880D01*
X1321182Y461932D01*
X1319603Y464668D01*
X1319355Y464916D01*
X1323929Y471175D01*
X1324036Y471407D01*
X1324609Y472153D01*
X1325717Y474829D01*
X1326095Y477700D01*
X1326059D01*
Y487700D01*
X1326095D01*
X1325717Y490572D01*
X1325004Y492294D01*
X1324934Y492560D01*
X1205063Y738931D01*
Y741250D01*
X1204811Y742518D01*
X1204093Y743593D01*
X1204034Y743632D01*
X1204419Y744902D01*
X1394902D01*
X1394902Y504858D01*
D02*
G37*
G36*
X1169917Y569027D02*
X1171074Y568253D01*
X1172440Y567981D01*
X1181440D01*
X1182806Y568253D01*
X1182939Y568343D01*
X1195500Y567201D01*
Y561000D01*
X1204500D01*
Y567953D01*
X1208440Y569633D01*
X1209500Y568932D01*
Y561000D01*
X1210941D01*
Y558450D01*
X1210407Y558093D01*
X1210345Y558000D01*
X1203655D01*
X1203593Y558093D01*
X1202518Y558811D01*
X1201250Y559064D01*
X1198750D01*
X1198204Y558955D01*
X1185009Y561318D01*
Y561850D01*
X1184737Y563216D01*
X1183963Y564373D01*
X1182806Y565147D01*
X1181440Y565419D01*
X1172440D01*
X1171074Y565147D01*
X1169917Y564373D01*
X1169143Y563216D01*
X1168871Y561850D01*
Y558850D01*
X1169143Y557484D01*
X1169917Y556327D01*
X1171074Y555553D01*
X1172440Y555281D01*
X1181440D01*
X1182660Y555524D01*
X1195436Y553236D01*
Y550250D01*
X1195688Y548982D01*
X1196407Y547907D01*
X1197482Y547189D01*
X1198750Y546936D01*
X1201250D01*
X1202518Y547189D01*
X1203593Y547907D01*
X1203655Y548000D01*
X1210345D01*
X1210407Y547907D01*
X1210941Y547550D01*
Y544450D01*
X1210407Y544093D01*
X1210345Y544000D01*
X1203655D01*
X1203593Y544093D01*
X1202518Y544812D01*
X1201250Y545064D01*
X1198750D01*
X1198402Y544995D01*
X1185009Y548399D01*
Y549150D01*
X1184737Y550516D01*
X1183963Y551673D01*
X1182806Y552447D01*
X1181440Y552719D01*
X1172440D01*
X1171074Y552447D01*
X1169917Y551673D01*
X1169143Y550516D01*
X1168871Y549150D01*
Y546150D01*
X1169143Y544784D01*
X1169917Y543627D01*
X1171074Y542853D01*
X1172440Y542581D01*
X1173754D01*
X1174008Y541311D01*
X1173391Y541054D01*
X1171932Y539927D01*
X1171924Y539916D01*
X1171074Y539747D01*
X1169917Y538973D01*
X1169143Y537816D01*
X1168871Y536450D01*
Y533450D01*
X1169143Y532084D01*
X1169892Y530964D01*
X1169940Y515486D01*
X1169940Y507498D01*
X1135436Y507194D01*
X1134500Y508456D01*
Y522000D01*
X1128123D01*
X1128121Y530984D01*
X1128857Y532084D01*
X1129129Y533450D01*
Y534393D01*
X1129539Y534562D01*
X1131419Y536005D01*
X1132633Y537587D01*
X1133693Y537719D01*
X1134131Y537631D01*
X1134531Y537032D01*
X1135802Y536183D01*
X1137300Y535885D01*
X1147730D01*
Y554000D01*
X1149000D01*
Y555270D01*
X1164615D01*
Y568200D01*
X1164520Y568678D01*
X1165562Y569948D01*
X1169301D01*
X1169917Y569027D01*
D02*
G37*
G36*
X1253920Y561303D02*
X1254931Y559929D01*
X1254895Y559750D01*
Y556770D01*
X1260500D01*
X1266105D01*
Y558474D01*
X1267117Y559241D01*
X1274446Y557181D01*
Y551250D01*
X1274660Y550177D01*
X1275267Y549268D01*
X1276177Y548660D01*
X1277250Y548446D01*
X1281750D01*
X1282823Y548660D01*
X1283733Y549268D01*
X1284340Y550177D01*
X1284554Y551250D01*
Y558668D01*
X1285824Y558960D01*
X1316535Y495840D01*
X1315692Y494669D01*
X1315000Y494761D01*
X1305000D01*
X1303173Y494520D01*
X1301470Y493815D01*
X1301225Y493627D01*
X1289821Y495205D01*
X1289339Y495209D01*
X1288862Y495272D01*
X1282425Y495280D01*
X1275196Y495289D01*
Y508064D01*
X1275577Y508634D01*
X1275849Y510000D01*
Y519000D01*
X1275577Y520366D01*
X1274803Y521523D01*
X1273646Y522297D01*
X1272280Y522569D01*
X1269280D01*
X1267914Y522297D01*
X1266757Y521523D01*
X1265983Y520366D01*
X1265712Y519000D01*
Y510000D01*
X1265983Y508634D01*
X1266019Y508580D01*
Y496199D01*
X1265121Y495302D01*
X1262705Y495305D01*
Y508377D01*
X1262877Y508634D01*
X1263149Y510000D01*
Y519000D01*
X1262877Y520366D01*
X1262103Y521523D01*
X1260946Y522297D01*
X1259580Y522569D01*
X1256580D01*
X1255214Y522297D01*
X1254057Y521523D01*
X1253283Y520366D01*
X1253011Y519000D01*
Y510000D01*
X1253283Y508634D01*
X1253529Y508267D01*
Y496215D01*
X1252630Y495317D01*
X1249704Y495321D01*
Y507927D01*
X1250177Y508634D01*
X1250449Y510000D01*
Y519000D01*
X1250177Y520366D01*
X1249403Y521523D01*
X1248976Y521809D01*
X1249016Y526000D01*
X1250500D01*
Y530057D01*
X1250588Y530500D01*
Y532000D01*
X1250500Y532443D01*
Y536197D01*
X1251490Y536993D01*
X1264946Y534039D01*
Y528250D01*
X1265160Y527177D01*
X1265767Y526268D01*
X1266677Y525660D01*
X1267750Y525446D01*
X1272250D01*
X1273323Y525660D01*
X1274233Y526268D01*
X1274840Y527177D01*
X1275054Y528250D01*
Y536750D01*
X1274840Y537823D01*
X1274233Y538733D01*
X1273323Y539341D01*
X1272250Y539554D01*
X1268354D01*
X1250500Y543473D01*
X1250500Y550000D01*
X1250500Y551270D01*
Y560690D01*
X1251441Y561544D01*
X1253920Y561303D01*
D02*
G37*
G36*
X1195563Y483000D02*
X1195802Y482914D01*
X1198345Y481860D01*
X1202000Y481379D01*
Y481379D01*
X1202060Y481439D01*
X1238480Y481214D01*
X1238498Y481217D01*
X1238516Y481214D01*
X1245107Y481206D01*
X1258108Y481190D01*
X1270599Y481174D01*
X1282407Y481159D01*
X1288362Y481152D01*
X1297940Y479826D01*
Y477700D01*
X1298180Y475873D01*
X1298886Y474170D01*
X1300008Y472708D01*
X1301470Y471586D01*
X1303173Y470880D01*
X1305000Y470640D01*
X1314294D01*
X1314853Y469563D01*
X1314144Y468613D01*
X1311580Y469300D01*
X1308420D01*
X1305368Y468482D01*
X1302632Y466903D01*
X1300398Y464668D01*
X1298818Y461932D01*
X1298000Y458880D01*
Y455720D01*
X1298033Y455596D01*
X1290240Y451021D01*
X1290102Y450899D01*
X1287677Y449894D01*
X1285139Y449560D01*
X1284996Y449588D01*
X1274395D01*
Y452204D01*
X1274803Y452477D01*
X1275577Y453634D01*
X1275849Y455000D01*
Y464000D01*
X1275577Y465366D01*
X1274803Y466523D01*
X1273646Y467297D01*
X1272280Y467569D01*
X1269280D01*
X1267914Y467297D01*
X1266757Y466523D01*
X1265983Y465366D01*
X1265712Y464000D01*
Y455000D01*
X1265983Y453634D01*
X1266757Y452477D01*
X1267258Y452142D01*
Y449588D01*
X1261852D01*
Y452309D01*
X1262103Y452477D01*
X1262877Y453634D01*
X1263149Y455000D01*
Y464000D01*
X1262877Y465366D01*
X1262103Y466523D01*
X1260946Y467297D01*
X1259580Y467569D01*
X1256580D01*
X1255214Y467297D01*
X1254057Y466523D01*
X1253283Y465366D01*
X1253011Y464000D01*
Y455000D01*
X1253283Y453634D01*
X1254057Y452477D01*
X1254715Y452037D01*
Y449588D01*
X1249012D01*
Y452215D01*
X1249403Y452477D01*
X1250177Y453634D01*
X1250449Y455000D01*
Y464000D01*
X1250177Y465366D01*
X1249403Y466523D01*
X1248246Y467297D01*
X1246880Y467569D01*
X1243880D01*
X1242514Y467297D01*
X1241357Y466523D01*
X1240583Y465366D01*
X1240312Y464000D01*
Y455000D01*
X1240583Y453634D01*
X1241357Y452477D01*
X1241875Y452130D01*
Y449588D01*
X1236569D01*
Y452387D01*
X1236703Y452477D01*
X1237477Y453634D01*
X1237749Y455000D01*
Y464000D01*
X1237477Y465366D01*
X1236703Y466523D01*
X1235546Y467297D01*
X1234180Y467569D01*
X1231180D01*
X1229814Y467297D01*
X1228657Y466523D01*
X1227883Y465366D01*
X1227611Y464000D01*
Y461569D01*
X1213500D01*
X1213475Y461564D01*
X1209791D01*
X1206055Y464657D01*
X1205707Y464846D01*
X1204911Y465456D01*
X1202904Y466288D01*
X1201865Y466424D01*
X1201483Y466536D01*
X1187554Y467768D01*
Y470250D01*
X1187340Y471323D01*
X1186733Y472233D01*
X1185823Y472840D01*
X1184750Y473054D01*
X1180250D01*
X1179177Y472840D01*
X1179057Y472760D01*
X1177622Y472622D01*
X1176534Y473349D01*
X1175250Y473605D01*
X1174270D01*
Y467000D01*
X1171730D01*
Y473605D01*
X1170750D01*
X1169466Y473349D01*
X1168378Y472622D01*
X1166943Y472760D01*
X1166823Y472840D01*
X1165750Y473054D01*
X1161250D01*
X1160177Y472840D01*
X1159267Y472233D01*
X1158660Y471323D01*
X1158446Y470250D01*
Y466793D01*
X1144586Y465529D01*
X1144260Y465432D01*
X1143357Y465313D01*
X1141594Y464583D01*
X1140079Y463421D01*
X1139721Y462954D01*
X1139508Y462772D01*
X1087098Y396224D01*
X1086954Y395941D01*
X1086265Y395043D01*
X1085257Y392611D01*
X1085215Y392288D01*
X1085194Y392241D01*
X1080394Y371241D01*
X1080390Y371099D01*
X1080243Y369982D01*
X1080165Y369697D01*
X1073142Y268500D01*
X1067000D01*
Y259500D01*
X1078414D01*
X1079460Y258960D01*
X1079460Y258960D01*
X1079460Y258960D01*
X1086534D01*
X1087179Y257995D01*
Y256005D01*
X1087366Y255556D01*
X1086660Y254500D01*
X1080000D01*
Y254500D01*
X1079000Y254500D01*
Y254500D01*
X1067000D01*
Y245500D01*
X1079000D01*
Y245500D01*
X1080000Y245500D01*
Y245500D01*
X1087981D01*
X1092175Y242683D01*
X1092334Y242617D01*
X1092594Y242417D01*
X1094357Y241687D01*
X1096250Y241437D01*
Y241441D01*
X1111250D01*
Y231230D01*
X1110270Y230531D01*
X975692Y228596D01*
X975366Y229861D01*
X977886Y231208D01*
X980855Y233645D01*
X983292Y236614D01*
X985102Y240002D01*
X986218Y243677D01*
X986594Y247500D01*
Y262399D01*
X987713Y262928D01*
X994618Y267067D01*
X1001085Y271863D01*
X1007050Y277270D01*
X1012457Y283235D01*
X1017253Y289702D01*
X1021392Y296607D01*
X1024834Y303885D01*
X1027546Y311466D01*
X1029503Y319275D01*
X1030684Y327239D01*
X1031019Y334050D01*
X1031079Y335280D01*
X1031077Y335311D01*
X1031040Y336581D01*
X1030982Y492151D01*
X1103795Y492794D01*
X1104960Y491534D01*
Y486270D01*
X1135040D01*
Y491799D01*
X1135040Y492540D01*
X1136087Y493078D01*
X1175318Y493425D01*
X1195563Y483000D01*
D02*
G37*
G36*
X1183686Y460945D02*
X1191282Y460274D01*
X1192071Y458929D01*
X1191936Y458250D01*
Y456874D01*
X1183314Y449054D01*
X1180250D01*
X1179177Y448840D01*
X1178267Y448233D01*
X1177660Y447323D01*
X1177446Y446250D01*
Y439750D01*
X1177660Y438677D01*
X1178267Y437767D01*
X1178912Y437337D01*
Y434302D01*
X1178884Y434297D01*
X1177727Y433523D01*
X1176953Y432366D01*
X1176681Y431000D01*
Y422864D01*
X1170960Y420568D01*
X1169869Y421499D01*
Y424730D01*
X1164250D01*
X1158631D01*
Y421000D01*
X1158944Y419424D01*
X1159837Y418087D01*
X1160412Y417704D01*
X1160263Y416275D01*
X1106666Y394767D01*
X1105341Y395652D01*
X1103000Y396118D01*
X1096418D01*
X1095801Y397388D01*
X1140507Y454153D01*
X1141926Y453903D01*
X1142518Y453018D01*
X1143771Y452180D01*
X1145250Y451886D01*
X1146730D01*
Y457000D01*
X1148000D01*
Y458270D01*
X1154610D01*
X1154463Y459011D01*
X1155307Y460364D01*
X1161693Y460946D01*
X1164126D01*
X1165671Y459216D01*
X1165790Y459126D01*
X1165936Y458936D01*
X1167346Y457854D01*
X1168988Y457174D01*
X1170742Y456943D01*
X1170750Y456941D01*
X1175250D01*
X1175258Y456943D01*
X1177012Y457174D01*
X1178654Y457854D01*
X1180064Y458936D01*
X1180210Y459126D01*
X1180329Y459216D01*
X1181874Y460946D01*
X1183683D01*
X1183686Y460945D01*
D02*
G37*
G36*
X1205189Y454482D02*
X1205907Y453407D01*
X1206982Y452689D01*
X1208250Y452436D01*
X1213750D01*
X1215018Y452689D01*
X1216093Y453407D01*
X1216778Y454431D01*
X1227725D01*
X1227883Y453634D01*
X1228657Y452477D01*
X1229431Y451959D01*
Y447759D01*
X1228761Y446756D01*
X1228412Y445000D01*
X1228761Y443244D01*
X1229756Y441756D01*
X1231244Y440761D01*
X1233000Y440412D01*
X1241875D01*
Y436870D01*
X1241357Y436523D01*
X1240583Y435366D01*
X1240312Y434000D01*
Y425200D01*
X1235640Y418368D01*
X1234881Y417378D01*
X1234018Y416553D01*
X1233630Y416294D01*
X1232509Y416071D01*
Y416059D01*
X1224000D01*
Y417500D01*
X1212000D01*
Y417500D01*
X1211000D01*
Y417500D01*
X1199000D01*
Y411949D01*
X1198957Y411807D01*
X1198599Y408261D01*
X1197285Y407884D01*
X1186819Y421389D01*
Y431000D01*
X1186547Y432366D01*
X1185773Y433523D01*
X1185029Y434021D01*
Y437002D01*
X1185823Y437160D01*
X1186733Y437767D01*
X1187340Y438677D01*
X1187554Y439750D01*
Y444640D01*
X1196149Y452436D01*
X1200750D01*
X1202018Y452689D01*
X1203093Y453407D01*
X1203811Y454482D01*
X1203853Y454689D01*
X1205147D01*
X1205189Y454482D01*
D02*
G37*
G36*
X1180250Y417432D02*
X1182146D01*
X1192473Y404105D01*
X1193202Y403064D01*
X1193689Y402043D01*
X1193793Y401016D01*
Y401016D01*
X1193723Y399768D01*
X1188854Y351470D01*
X1188747Y350753D01*
X1188727Y350755D01*
X1188636Y350299D01*
X1188563Y349717D01*
X1188426Y349038D01*
X1185156Y332907D01*
X1184533Y332649D01*
X1183127Y331243D01*
X1182366Y329405D01*
Y327416D01*
X1183127Y325578D01*
X1184533Y324172D01*
X1186371Y323411D01*
X1188360D01*
X1188976Y323666D01*
X1189995Y322908D01*
X1189603Y319023D01*
X1188254Y318305D01*
X1187113Y318778D01*
X1185124D01*
X1183286Y318016D01*
X1181880Y316610D01*
X1181118Y314772D01*
Y312783D01*
X1181880Y310945D01*
X1181902Y310923D01*
X1181416Y309750D01*
X1164525D01*
Y319742D01*
X1164537Y321008D01*
X1164537D01*
X1164577Y321211D01*
X1164620Y322462D01*
X1165407Y333675D01*
X1165473Y333702D01*
X1166879Y335108D01*
X1167640Y336946D01*
Y338935D01*
X1166879Y340773D01*
X1165473Y342179D01*
X1163635Y342941D01*
X1162879D01*
X1162031Y344211D01*
X1162360Y345005D01*
Y346994D01*
X1161599Y348832D01*
X1160192Y350239D01*
X1158354Y351000D01*
X1156365D01*
X1155127Y350487D01*
X1154528Y350239D01*
X1153612Y351119D01*
X1153221Y352061D01*
X1151779Y353941D01*
X1149899Y355384D01*
X1149880Y355391D01*
X1148776Y356007D01*
X1135200Y363804D01*
Y371000D01*
X1131566D01*
X1129812Y377578D01*
X1130540Y377998D01*
X1132402Y379860D01*
X1133718Y382140D01*
X1134400Y384683D01*
Y387317D01*
X1133718Y389860D01*
X1132402Y392140D01*
X1130540Y394002D01*
X1128260Y395319D01*
X1127925Y395408D01*
X1127849Y396676D01*
X1179796Y417522D01*
X1180250Y417432D01*
D02*
G37*
G36*
X1115381Y390379D02*
X1115081Y389860D01*
X1114400Y387317D01*
Y384683D01*
X1115081Y382140D01*
X1116398Y379860D01*
X1118260Y377998D01*
X1120540Y376682D01*
X1123083Y376000D01*
X1123901D01*
X1126200Y367379D01*
Y359000D01*
X1131282D01*
X1143466Y352002D01*
X1143375Y350589D01*
X1142527Y350239D01*
X1141121Y348832D01*
X1140360Y346994D01*
Y345005D01*
X1140615Y344389D01*
X1139909Y343333D01*
X1139190D01*
X1137353Y342572D01*
X1135946Y341165D01*
X1135185Y339328D01*
Y337338D01*
X1135946Y335501D01*
X1137353Y334094D01*
X1137432Y334062D01*
X1138411Y320728D01*
X1138365Y320725D01*
X1138407Y320512D01*
X1138419Y319247D01*
Y310290D01*
X1137770D01*
Y304000D01*
Y297710D01*
X1140310D01*
Y298250D01*
X1155519D01*
X1155562Y298184D01*
X1155909Y296980D01*
X1154761Y295832D01*
X1154000Y293995D01*
Y292006D01*
X1154761Y290168D01*
X1156168Y288761D01*
X1158005Y288000D01*
X1159042D01*
X1159999Y286995D01*
X1160000Y286827D01*
Y285005D01*
X1160761Y283168D01*
X1162168Y281761D01*
X1164005Y281000D01*
X1165995D01*
X1167832Y281761D01*
X1169239Y283168D01*
X1170000Y285005D01*
Y286995D01*
X1169661Y287812D01*
X1171030Y290085D01*
X1172456Y289992D01*
X1173661Y288787D01*
X1175499Y288026D01*
X1177052D01*
X1177889Y287116D01*
X1178000Y286863D01*
Y285005D01*
X1178761Y283168D01*
X1180168Y281761D01*
X1182005Y281000D01*
X1182876D01*
X1183750Y279730D01*
X1183035Y277862D01*
X1182993Y277616D01*
X1182727Y276974D01*
X1182671Y276546D01*
X1182615Y276412D01*
X1173733Y232508D01*
X1173732Y232214D01*
X1173534Y230712D01*
X1173553D01*
Y225750D01*
X1169346D01*
X1169255Y226672D01*
X1168122Y230407D01*
X1166499Y233443D01*
X1166499D01*
X1166499Y233443D01*
X1166485Y233465D01*
X1166480Y233478D01*
X1165823Y234516D01*
X1142727Y270987D01*
X1131933Y288032D01*
X1131933Y288032D01*
X1128943Y292753D01*
X1128644Y293475D01*
X1128397Y295354D01*
X1128280Y296245D01*
X1128295Y296324D01*
Y298250D01*
X1132690D01*
Y297710D01*
X1135230D01*
Y304000D01*
Y310290D01*
X1134478D01*
Y315830D01*
X1134593Y315907D01*
X1135311Y316982D01*
X1135564Y318250D01*
Y323750D01*
X1135311Y325018D01*
X1134593Y326093D01*
X1133518Y326811D01*
X1132250Y327064D01*
X1131032D01*
X1107178Y357317D01*
X1107733Y358460D01*
X1115430D01*
Y365000D01*
Y371540D01*
X1107970D01*
Y365000D01*
X1105430D01*
Y371540D01*
X1104259D01*
Y376133D01*
X1105341Y376348D01*
X1107326Y377674D01*
X1108652Y379659D01*
X1109118Y382000D01*
Y389159D01*
X1114549Y391339D01*
X1115381Y390379D01*
D02*
G37*
G36*
X1116013Y328758D02*
X1115353Y327535D01*
X1114271Y327320D01*
X1113018Y326483D01*
X1112180Y325229D01*
X1111886Y323750D01*
Y322270D01*
X1117000D01*
Y321000D01*
X1118270D01*
Y314390D01*
X1119729Y314680D01*
X1120677Y315314D01*
X1121715Y314944D01*
X1121955Y314756D01*
X1122178Y298981D01*
Y296324D01*
X1122154D01*
X1122262Y295225D01*
X1122233Y295078D01*
X1122319Y294643D01*
X1122379Y294040D01*
X1121266Y292770D01*
X1114998D01*
X1114549Y292814D01*
X1114398Y292799D01*
X1114250Y292829D01*
X1104604D01*
X1104093Y293593D01*
X1103018Y294312D01*
X1101750Y294564D01*
X1097571D01*
X1096723Y295834D01*
X1097133Y296825D01*
Y298814D01*
X1098250Y299436D01*
X1101750D01*
X1103018Y299689D01*
X1104093Y300407D01*
X1104811Y301482D01*
X1105064Y302750D01*
Y305250D01*
X1104811Y306518D01*
X1104093Y307593D01*
X1103018Y308312D01*
X1101750Y308564D01*
X1097519D01*
X1088483Y319888D01*
X1087736Y320917D01*
X1087736Y320917D01*
X1087288Y321588D01*
X1087065Y322709D01*
X1087107Y322917D01*
X1087068Y322920D01*
X1087061Y322929D01*
X1089565Y359000D01*
X1092652D01*
X1116013Y328758D01*
D02*
G37*
G36*
X1126765Y284759D02*
X1137559Y267714D01*
X1161312Y230205D01*
X1161312Y230203D01*
X1161256Y230168D01*
X1161267Y230150D01*
X1161939Y229073D01*
X1162789Y227020D01*
X1162014Y225750D01*
X1138590D01*
X1138362Y226301D01*
X1138003Y226768D01*
X1137917Y226963D01*
X1137731Y227229D01*
X1137671Y227286D01*
X1137667Y227290D01*
X1137446Y227551D01*
X1137096Y228076D01*
X1136882Y228219D01*
X1136634Y228428D01*
X1136452Y228539D01*
X1135039Y229624D01*
X1132849Y230530D01*
X1131580Y230697D01*
X1131564Y230700D01*
X1131563Y230700D01*
X1130500Y230840D01*
X1130349Y230820D01*
Y230820D01*
X1130349Y230819D01*
X1123811Y230725D01*
X1122750Y231980D01*
Y241230D01*
Y250690D01*
X1123290D01*
Y254694D01*
X1124560Y255220D01*
X1124588Y255193D01*
X1126425Y254431D01*
X1128415D01*
X1130252Y255193D01*
X1131659Y256599D01*
X1132420Y258437D01*
Y260426D01*
X1131659Y262264D01*
X1130252Y263670D01*
X1128415Y264431D01*
X1126425D01*
X1124588Y263670D01*
X1124020Y263102D01*
X1122750Y263629D01*
Y276230D01*
Y288725D01*
X1124020Y289093D01*
X1126765Y284759D01*
D02*
G37*
G36*
X1092936Y304499D02*
Y303542D01*
X1092331Y302819D01*
X1091139D01*
X1089301Y302058D01*
X1087894Y300651D01*
X1087133Y298814D01*
Y296825D01*
X1087894Y294987D01*
X1089301Y293580D01*
X1091139Y292819D01*
X1091979D01*
X1092996Y291549D01*
X1092936Y291250D01*
Y288750D01*
X1093189Y287482D01*
X1093907Y286407D01*
X1094982Y285689D01*
X1096250Y285436D01*
X1101750D01*
X1103018Y285689D01*
X1104093Y286407D01*
X1104296Y286711D01*
X1111250D01*
Y281230D01*
Y271230D01*
Y258310D01*
X1110710D01*
Y255770D01*
X1117000D01*
Y253230D01*
X1110710D01*
Y252551D01*
X1104790D01*
X1104093Y253593D01*
X1103018Y254312D01*
X1101750Y254564D01*
X1097683D01*
X1096996Y255562D01*
X1097179Y256005D01*
Y257995D01*
X1097730Y258819D01*
Y264000D01*
Y269114D01*
X1096250D01*
X1094771Y268820D01*
X1093810Y268178D01*
X1092801Y268538D01*
X1092540Y268741D01*
Y269040D01*
X1087270D01*
Y264000D01*
X1084730D01*
Y269040D01*
X1080585D01*
X1079398Y270285D01*
X1082536Y315496D01*
X1083837Y315902D01*
X1092936Y304499D01*
D02*
G37*
%LPC*%
G36*
X991710Y702638D02*
X982980D01*
Y691260D01*
X1004191D01*
X1003927Y693264D01*
X1002663Y696314D01*
X1000653Y698934D01*
X998034Y700944D01*
X994983Y702207D01*
X991710Y702638D01*
D02*
G37*
G36*
X980440D02*
X971710D01*
X968436Y702207D01*
X965386Y700944D01*
X962766Y698934D01*
X960756Y696314D01*
X959492Y693264D01*
X959229Y691260D01*
X980440D01*
Y702638D01*
D02*
G37*
G36*
X178533Y717840D02*
X174987D01*
X171509Y717148D01*
X168234Y715791D01*
X165285Y713821D01*
X162778Y711314D01*
X160808Y708366D01*
X159451Y705090D01*
X158760Y701613D01*
Y698067D01*
X159451Y694590D01*
X160808Y691314D01*
X162778Y688366D01*
X165285Y685859D01*
X168234Y683889D01*
X171509Y682532D01*
X174987Y681840D01*
X178533D01*
X182010Y682532D01*
X185286Y683889D01*
X188234Y685859D01*
X190741Y688366D01*
X192711Y691314D01*
X194068Y694590D01*
X194760Y698067D01*
Y701613D01*
X194068Y705090D01*
X192711Y708366D01*
X190741Y711314D01*
X188234Y713821D01*
X185286Y715791D01*
X182010Y717148D01*
X178533Y717840D01*
D02*
G37*
G36*
X64233D02*
X60687D01*
X57209Y717148D01*
X53934Y715791D01*
X50985Y713821D01*
X48478Y711314D01*
X46508Y708366D01*
X45151Y705090D01*
X44460Y701613D01*
Y698067D01*
X45151Y694590D01*
X46508Y691314D01*
X48478Y688366D01*
X50985Y685859D01*
X53934Y683889D01*
X57209Y682532D01*
X60687Y681840D01*
X64233D01*
X67710Y682532D01*
X70986Y683889D01*
X73934Y685859D01*
X76441Y688366D01*
X78411Y691314D01*
X79768Y694590D01*
X80460Y698067D01*
Y701613D01*
X79768Y705090D01*
X78411Y708366D01*
X76441Y711314D01*
X73934Y713821D01*
X70986Y715791D01*
X67710Y717148D01*
X64233Y717840D01*
D02*
G37*
G36*
X1204750Y699419D02*
X1192750D01*
Y690419D01*
X1194551D01*
X1195078Y689149D01*
X1194761Y688832D01*
X1194000Y686995D01*
Y685006D01*
X1194761Y683168D01*
X1196168Y681761D01*
X1198006Y681000D01*
X1199995D01*
X1201832Y681761D01*
X1203239Y683168D01*
X1204000Y685006D01*
Y686995D01*
X1203239Y688832D01*
X1202923Y689149D01*
X1203449Y690419D01*
X1204750D01*
Y699419D01*
D02*
G37*
G36*
X1186095D02*
X1174095D01*
Y690419D01*
X1175551D01*
X1176077Y689149D01*
X1175761Y688832D01*
X1175000Y686995D01*
Y685006D01*
X1175761Y683168D01*
X1177168Y681761D01*
X1179006Y681000D01*
X1180995D01*
X1182832Y681761D01*
X1184239Y683168D01*
X1185000Y685006D01*
Y686995D01*
X1184239Y688832D01*
X1183923Y689149D01*
X1184449Y690419D01*
X1186095D01*
Y699419D01*
D02*
G37*
G36*
X1167066Y699606D02*
X1155067D01*
Y690606D01*
X1156739D01*
X1157265Y689336D01*
X1156761Y688832D01*
X1156000Y686995D01*
Y685006D01*
X1156761Y683168D01*
X1158168Y681761D01*
X1160006Y681000D01*
X1161995D01*
X1163832Y681761D01*
X1165239Y683168D01*
X1166000Y685006D01*
Y686995D01*
X1165239Y688832D01*
X1164735Y689336D01*
X1165261Y690606D01*
X1167066D01*
Y699606D01*
D02*
G37*
G36*
X1147975Y699616D02*
X1135975D01*
Y690616D01*
X1137749D01*
X1138275Y689346D01*
X1137761Y688832D01*
X1137000Y686995D01*
Y685006D01*
X1137761Y683168D01*
X1139168Y681761D01*
X1141006Y681000D01*
X1142995D01*
X1144832Y681761D01*
X1146239Y683168D01*
X1147000Y685006D01*
Y686995D01*
X1146239Y688832D01*
X1145725Y689346D01*
X1146251Y690616D01*
X1147975D01*
Y699616D01*
D02*
G37*
G36*
X1004191Y688720D02*
X982980D01*
Y677342D01*
X991710D01*
X994983Y677773D01*
X998034Y679036D01*
X1000653Y681046D01*
X1002663Y683666D01*
X1003927Y686716D01*
X1004191Y688720D01*
D02*
G37*
G36*
X980440D02*
X959229D01*
X959492Y686716D01*
X960756Y683666D01*
X962766Y681046D01*
X965386Y679036D01*
X968436Y677773D01*
X971710Y677342D01*
X980440D01*
Y688720D01*
D02*
G37*
G36*
X932980Y682471D02*
Y661260D01*
X944358D01*
Y669990D01*
X943927Y673264D01*
X942663Y676314D01*
X940653Y678934D01*
X938034Y680944D01*
X934983Y682207D01*
X932980Y682471D01*
D02*
G37*
G36*
X930440D02*
X928436Y682207D01*
X925386Y680944D01*
X922766Y678934D01*
X920756Y676314D01*
X919492Y673264D01*
X919062Y669990D01*
Y661260D01*
X930440D01*
Y682471D01*
D02*
G37*
G36*
X1331611Y707420D02*
X1326489D01*
X1321466Y706421D01*
X1316734Y704461D01*
X1312476Y701616D01*
X1308854Y697994D01*
X1306009Y693736D01*
X1304049Y689004D01*
X1303050Y683981D01*
Y678859D01*
X1304049Y673836D01*
X1306009Y669104D01*
X1308854Y664846D01*
X1312476Y661225D01*
X1316734Y658379D01*
X1321466Y656419D01*
X1326489Y655420D01*
X1331611D01*
X1336634Y656419D01*
X1341365Y658379D01*
X1345624Y661225D01*
X1349245Y664846D01*
X1352091Y669104D01*
X1354051Y673836D01*
X1355050Y678859D01*
Y683981D01*
X1354051Y689004D01*
X1352091Y693736D01*
X1349245Y697994D01*
X1345624Y701616D01*
X1341365Y704461D01*
X1336634Y706421D01*
X1331611Y707420D01*
D02*
G37*
G36*
X340381Y701700D02*
X335259D01*
X330236Y700701D01*
X325504Y698741D01*
X321246Y695895D01*
X317624Y692274D01*
X314779Y688016D01*
X312819Y683284D01*
X311820Y678261D01*
Y673139D01*
X312819Y668116D01*
X314779Y663384D01*
X317624Y659126D01*
X321246Y655505D01*
X325504Y652659D01*
X330236Y650699D01*
X335259Y649700D01*
X340381D01*
X345404Y650699D01*
X350135Y652659D01*
X354394Y655505D01*
X358015Y659126D01*
X360861Y663384D01*
X362821Y668116D01*
X363820Y673139D01*
Y678261D01*
X362821Y683284D01*
X360861Y688016D01*
X358015Y692274D01*
X354394Y695895D01*
X350135Y698741D01*
X345404Y700701D01*
X340381Y701700D01*
D02*
G37*
G36*
X89130Y645876D02*
Y637610D01*
X97396D01*
X96750Y640022D01*
X95494Y642198D01*
X93717Y643974D01*
X91542Y645230D01*
X89130Y645876D01*
D02*
G37*
G36*
X86590D02*
X84177Y645230D01*
X82002Y643974D01*
X80226Y642198D01*
X78970Y640022D01*
X78323Y637610D01*
X86590D01*
Y645876D01*
D02*
G37*
G36*
X930440Y658720D02*
X919062D01*
Y649990D01*
X919492Y646716D01*
X920756Y643666D01*
X922766Y641046D01*
X925386Y639036D01*
X928436Y637773D01*
X930440Y637509D01*
Y658720D01*
D02*
G37*
G36*
X944358D02*
X932980D01*
Y637509D01*
X934983Y637773D01*
X938034Y639036D01*
X940653Y641046D01*
X942663Y643666D01*
X943927Y646716D01*
X944358Y649990D01*
Y658720D01*
D02*
G37*
G36*
X139845Y645340D02*
X137475D01*
X135186Y644727D01*
X133134Y643542D01*
X131458Y641866D01*
X130273Y639814D01*
X129660Y637525D01*
Y635155D01*
X130273Y632866D01*
X131458Y630814D01*
X133134Y629138D01*
X135186Y627953D01*
X137475Y627340D01*
X139845D01*
X142134Y627953D01*
X144186Y629138D01*
X145862Y630814D01*
X147046Y632866D01*
X147660Y635155D01*
Y637525D01*
X147046Y639814D01*
X145862Y641866D01*
X144186Y643542D01*
X142134Y644727D01*
X139845Y645340D01*
D02*
G37*
G36*
X114445D02*
X112075D01*
X109786Y644727D01*
X107734Y643542D01*
X106058Y641866D01*
X104873Y639814D01*
X104260Y637525D01*
Y635155D01*
X104873Y632866D01*
X106058Y630814D01*
X107734Y629138D01*
X109786Y627953D01*
X112075Y627340D01*
X114445D01*
X116734Y627953D01*
X118786Y629138D01*
X120462Y630814D01*
X121646Y632866D01*
X122260Y635155D01*
Y637525D01*
X121646Y639814D01*
X120462Y641866D01*
X118786Y643542D01*
X116734Y644727D01*
X114445Y645340D01*
D02*
G37*
G36*
X97396Y635070D02*
X89130D01*
Y626804D01*
X91542Y627450D01*
X93717Y628706D01*
X95494Y630482D01*
X96750Y632658D01*
X97396Y635070D01*
D02*
G37*
G36*
X86590D02*
X78323D01*
X78970Y632658D01*
X80226Y630482D01*
X82002Y628706D01*
X84177Y627450D01*
X86590Y626804D01*
Y635070D01*
D02*
G37*
G36*
X76430Y620476D02*
Y612210D01*
X84696D01*
X84050Y614622D01*
X82794Y616798D01*
X81017Y618574D01*
X78842Y619830D01*
X76430Y620476D01*
D02*
G37*
G36*
X73890D02*
X71477Y619830D01*
X69302Y618574D01*
X67526Y616798D01*
X66270Y614622D01*
X65623Y612210D01*
X73890D01*
Y620476D01*
D02*
G37*
G36*
X127145Y619940D02*
X124775D01*
X122486Y619327D01*
X120434Y618142D01*
X118758Y616466D01*
X117573Y614414D01*
X116960Y612125D01*
Y609755D01*
X117573Y607466D01*
X118758Y605414D01*
X120434Y603738D01*
X122486Y602553D01*
X124775Y601940D01*
X127145D01*
X129434Y602553D01*
X131486Y603738D01*
X133161Y605414D01*
X134346Y607466D01*
X134960Y609755D01*
Y612125D01*
X134346Y614414D01*
X133161Y616466D01*
X131486Y618142D01*
X129434Y619327D01*
X127145Y619940D01*
D02*
G37*
G36*
X101745D02*
X99375D01*
X97086Y619327D01*
X95034Y618142D01*
X93358Y616466D01*
X92173Y614414D01*
X91560Y612125D01*
Y609755D01*
X92173Y607466D01*
X93358Y605414D01*
X95034Y603738D01*
X97086Y602553D01*
X99375Y601940D01*
X101745D01*
X104034Y602553D01*
X106086Y603738D01*
X107761Y605414D01*
X108946Y607466D01*
X109560Y609755D01*
Y612125D01*
X108946Y614414D01*
X107761Y616466D01*
X106086Y618142D01*
X104034Y619327D01*
X101745Y619940D01*
D02*
G37*
G36*
X84696Y609670D02*
X76430D01*
Y601404D01*
X78842Y602050D01*
X81017Y603306D01*
X82794Y605082D01*
X84050Y607258D01*
X84696Y609670D01*
D02*
G37*
G36*
X73890D02*
X65623D01*
X66270Y607258D01*
X67526Y605082D01*
X69302Y603306D01*
X71477Y602050D01*
X73890Y601404D01*
Y609670D01*
D02*
G37*
G36*
X1089040Y573540D02*
X1085270D01*
Y568270D01*
X1089040D01*
Y573540D01*
D02*
G37*
G36*
X1082730D02*
X1078960D01*
Y568270D01*
X1082730D01*
Y573540D01*
D02*
G37*
G36*
X1089040Y565730D02*
X1085270D01*
Y560460D01*
X1089040D01*
Y565730D01*
D02*
G37*
G36*
X1082730D02*
X1078960D01*
Y560460D01*
X1082730D01*
Y565730D01*
D02*
G37*
G36*
X1096730Y559540D02*
X1092960D01*
Y554270D01*
X1096730D01*
Y559540D01*
D02*
G37*
G36*
X1119790Y553269D02*
X1116560D01*
X1114984Y552956D01*
X1113647Y552063D01*
X1112754Y550726D01*
X1112441Y549150D01*
Y548920D01*
X1119790D01*
Y553269D01*
D02*
G37*
G36*
X1103040Y551730D02*
X1099270D01*
Y546460D01*
X1103040D01*
Y551730D01*
D02*
G37*
G36*
X1096730D02*
X1092960D01*
Y546460D01*
X1096730D01*
Y551730D01*
D02*
G37*
G36*
X1214540Y523040D02*
X1208270D01*
Y509270D01*
X1214540D01*
Y523040D01*
D02*
G37*
G36*
X1205730D02*
X1199460D01*
Y509270D01*
X1205730D01*
Y523040D01*
D02*
G37*
G36*
X1237040Y554730D02*
X1232000D01*
X1226960D01*
Y549460D01*
X1227500D01*
Y539270D01*
X1227500Y538000D01*
X1227500D01*
Y538000D01*
X1227500D01*
Y526000D01*
X1229621D01*
Y522168D01*
X1228657Y521523D01*
X1227883Y520366D01*
X1227611Y519000D01*
Y510000D01*
X1227883Y508634D01*
X1228657Y507477D01*
X1229814Y506703D01*
X1231180Y506432D01*
X1234180D01*
X1235546Y506703D01*
X1236703Y507477D01*
X1237477Y508634D01*
X1237749Y510000D01*
Y519000D01*
X1237477Y520366D01*
X1236703Y521523D01*
X1235739Y522168D01*
Y526000D01*
X1236500D01*
Y536730D01*
X1236500Y538000D01*
X1236500D01*
Y538000D01*
X1236500D01*
Y549460D01*
X1237040D01*
Y554730D01*
D02*
G37*
G36*
X244270Y495512D02*
Y469270D01*
X263137D01*
Y475500D01*
X262750Y479428D01*
X261604Y483206D01*
X259743Y486688D01*
X257239Y489739D01*
X254187Y492243D01*
X250706Y494104D01*
X246928Y495250D01*
X244270Y495512D01*
D02*
G37*
G36*
X241730D02*
X239071Y495250D01*
X235294Y494104D01*
X231812Y492243D01*
X228761Y489739D01*
X226257Y486688D01*
X224396Y483206D01*
X223250Y479428D01*
X222863Y475500D01*
Y469270D01*
X241730D01*
Y495512D01*
D02*
G37*
G36*
X884674Y485000D02*
X881325D01*
X878041Y484347D01*
X874947Y483065D01*
X872163Y481205D01*
X869795Y478837D01*
X867934Y476053D01*
X866653Y472959D01*
X866000Y469674D01*
Y466326D01*
X866653Y463041D01*
X867934Y459948D01*
X869795Y457163D01*
X872163Y454795D01*
X874947Y452935D01*
X878041Y451653D01*
X881325Y451000D01*
X884674D01*
X887958Y451653D01*
X891052Y452935D01*
X893837Y454795D01*
X896205Y457163D01*
X898065Y459948D01*
X899346Y463041D01*
X900000Y466326D01*
Y469674D01*
X899346Y472959D01*
X898065Y476053D01*
X896205Y478837D01*
X893837Y481205D01*
X891052Y483065D01*
X887958Y484347D01*
X884674Y485000D01*
D02*
G37*
G36*
X328674D02*
X325325D01*
X322041Y484347D01*
X318947Y483065D01*
X316163Y481205D01*
X313795Y478837D01*
X311935Y476053D01*
X310653Y472959D01*
X310000Y469674D01*
Y466326D01*
X310653Y463041D01*
X311935Y459948D01*
X313795Y457163D01*
X316163Y454795D01*
X318947Y452935D01*
X322041Y451653D01*
X325325Y451000D01*
X328674D01*
X331958Y451653D01*
X335052Y452935D01*
X337837Y454795D01*
X340205Y457163D01*
X342065Y459948D01*
X343346Y463041D01*
X344000Y466326D01*
Y469674D01*
X343346Y472959D01*
X342065Y476053D01*
X340205Y478837D01*
X337837Y481205D01*
X335052Y483065D01*
X331958Y484347D01*
X328674Y485000D01*
D02*
G37*
G36*
X263137Y466730D02*
X244270D01*
Y440488D01*
X246928Y440750D01*
X250706Y441896D01*
X254187Y443757D01*
X257239Y446261D01*
X259743Y449313D01*
X261604Y452794D01*
X262750Y456572D01*
X263137Y460500D01*
Y466730D01*
D02*
G37*
G36*
X241730D02*
X222863D01*
Y460500D01*
X223250Y456572D01*
X224396Y452794D01*
X226257Y449313D01*
X228761Y446261D01*
X231812Y443757D01*
X235294Y441896D01*
X239071Y440750D01*
X241730Y440488D01*
Y466730D01*
D02*
G37*
G36*
X56580Y358800D02*
X53420D01*
X50368Y357982D01*
X47632Y356403D01*
X45398Y354168D01*
X43818Y351432D01*
X43000Y348380D01*
Y345220D01*
X43818Y342168D01*
X45398Y339432D01*
X47632Y337198D01*
X50368Y335618D01*
X53420Y334800D01*
X56580D01*
X59632Y335618D01*
X62368Y337198D01*
X64602Y339432D01*
X66182Y342168D01*
X66604Y343741D01*
X109000D01*
Y336500D01*
X121000D01*
Y357500D01*
X109000D01*
Y349859D01*
X66604D01*
X66182Y351432D01*
X64602Y354168D01*
X62368Y356403D01*
X59632Y357982D01*
X56580Y358800D01*
D02*
G37*
G36*
Y333400D02*
X53420D01*
X50368Y332582D01*
X47632Y331003D01*
X45398Y328768D01*
X43818Y326032D01*
X43000Y322980D01*
Y319820D01*
X43818Y316768D01*
X45398Y314032D01*
X47632Y311798D01*
X50368Y310218D01*
X53420Y309400D01*
X56580D01*
X59632Y310218D01*
X62368Y311798D01*
X64602Y314032D01*
X66182Y316768D01*
X66604Y318341D01*
X109000D01*
Y310500D01*
X121000D01*
Y331500D01*
X109000D01*
Y324459D01*
X66604D01*
X66182Y326032D01*
X64602Y328768D01*
X62368Y331003D01*
X59632Y332582D01*
X56580Y333400D01*
D02*
G37*
G36*
X1221750Y309114D02*
X1220270D01*
Y305270D01*
X1225610D01*
X1225320Y306729D01*
X1224482Y307983D01*
X1223229Y308820D01*
X1221750Y309114D01*
D02*
G37*
G36*
X1217730D02*
X1216250D01*
X1214771Y308820D01*
X1213518Y307983D01*
X1212680Y306729D01*
X1212390Y305270D01*
X1217730D01*
Y309114D01*
D02*
G37*
G36*
X56580Y308000D02*
X53420D01*
X50368Y307182D01*
X47632Y305602D01*
X45398Y303368D01*
X43818Y300632D01*
X43000Y297580D01*
Y294420D01*
X43818Y291368D01*
X45398Y288632D01*
X47632Y286398D01*
X50368Y284818D01*
X53420Y284000D01*
X56580D01*
X59632Y284818D01*
X62368Y286398D01*
X64602Y288632D01*
X66182Y291368D01*
X66604Y292941D01*
X109000D01*
Y285500D01*
X121000D01*
Y306500D01*
X109000D01*
Y299059D01*
X66604D01*
X66182Y300632D01*
X64602Y303368D01*
X62368Y305602D01*
X59632Y307182D01*
X56580Y308000D01*
D02*
G37*
G36*
X1361317Y298100D02*
X1358683D01*
X1356140Y297419D01*
X1353860Y296102D01*
X1351998Y294240D01*
X1350681Y291960D01*
X1350000Y289417D01*
Y286784D01*
X1350681Y284240D01*
X1351998Y281960D01*
X1353860Y280098D01*
X1356140Y278782D01*
X1358683Y278100D01*
X1361317D01*
X1363860Y278782D01*
X1366140Y280098D01*
X1368002Y281960D01*
X1369319Y284240D01*
X1370000Y286784D01*
Y289417D01*
X1369319Y291960D01*
X1368002Y294240D01*
X1366140Y296102D01*
X1363860Y297419D01*
X1361317Y298100D01*
D02*
G37*
G36*
X1361388Y273240D02*
X1361270D01*
Y263970D01*
X1370540D01*
Y264088D01*
X1369822Y266768D01*
X1368434Y269172D01*
X1366472Y271134D01*
X1364068Y272522D01*
X1361388Y273240D01*
D02*
G37*
G36*
X60000Y282661D02*
X50000D01*
X48173Y282420D01*
X46470Y281714D01*
X45008Y280592D01*
X43885Y279130D01*
X43180Y277427D01*
X42940Y275600D01*
Y265600D01*
X43180Y263773D01*
X43885Y262070D01*
X45008Y260608D01*
X46470Y259486D01*
X48173Y258780D01*
X50000Y258540D01*
X60000D01*
X61827Y258780D01*
X63530Y259486D01*
X64992Y260608D01*
X66115Y262070D01*
X66820Y263773D01*
X67060Y265600D01*
Y267921D01*
X109000D01*
Y260500D01*
X121000D01*
Y281500D01*
X109000D01*
Y274039D01*
X67060D01*
Y275600D01*
X66820Y277427D01*
X66115Y279130D01*
X64992Y280592D01*
X63530Y281714D01*
X61827Y282420D01*
X60000Y282661D01*
D02*
G37*
G36*
X244270Y282512D02*
Y256270D01*
X263137D01*
Y262500D01*
X262750Y266429D01*
X261604Y270206D01*
X259743Y273687D01*
X257239Y276739D01*
X254187Y279243D01*
X250706Y281104D01*
X246928Y282250D01*
X244270Y282512D01*
D02*
G37*
G36*
X241730D02*
X239071Y282250D01*
X235294Y281104D01*
X231812Y279243D01*
X228761Y276739D01*
X226257Y273687D01*
X224396Y270206D01*
X223250Y266429D01*
X222863Y262500D01*
Y256270D01*
X241730D01*
Y282512D01*
D02*
G37*
G36*
X1370540Y261430D02*
X1361270D01*
Y252160D01*
X1361388D01*
X1364068Y252878D01*
X1366472Y254266D01*
X1368434Y256228D01*
X1369822Y258632D01*
X1370540Y261313D01*
Y261430D01*
D02*
G37*
G36*
X174750Y251105D02*
X171770D01*
Y246770D01*
X178104D01*
Y247750D01*
X177849Y249034D01*
X177122Y250122D01*
X176034Y250849D01*
X174750Y251105D01*
D02*
G37*
G36*
X169230D02*
X166250D01*
X164966Y250849D01*
X163878Y250122D01*
X163151Y249034D01*
X162896Y247750D01*
Y246770D01*
X169230D01*
Y251105D01*
D02*
G37*
G36*
X178104Y244230D02*
X171770D01*
Y239896D01*
X174750D01*
X176034Y240151D01*
X177122Y240878D01*
X177849Y241966D01*
X178104Y243250D01*
Y244230D01*
D02*
G37*
G36*
X169230D02*
X162896D01*
Y243250D01*
X163151Y241966D01*
X163878Y240878D01*
X164966Y240151D01*
X166250Y239896D01*
X169230D01*
Y244230D01*
D02*
G37*
G36*
X884674Y272000D02*
X881325D01*
X878041Y271347D01*
X874947Y270065D01*
X872163Y268205D01*
X869795Y265837D01*
X867934Y263053D01*
X866653Y259959D01*
X866000Y256674D01*
Y253326D01*
X866653Y250041D01*
X867934Y246947D01*
X869795Y244163D01*
X872163Y241795D01*
X874947Y239935D01*
X878041Y238653D01*
X881325Y238000D01*
X884674D01*
X887958Y238653D01*
X891052Y239935D01*
X893837Y241795D01*
X896205Y244163D01*
X898065Y246947D01*
X899346Y250041D01*
X900000Y253326D01*
Y256674D01*
X899346Y259959D01*
X898065Y263053D01*
X896205Y265837D01*
X893837Y268205D01*
X891052Y270065D01*
X887958Y271347D01*
X884674Y272000D01*
D02*
G37*
G36*
X328674D02*
X325325D01*
X322041Y271347D01*
X318947Y270065D01*
X316163Y268205D01*
X313795Y265837D01*
X311935Y263053D01*
X310653Y259959D01*
X310000Y256674D01*
Y253326D01*
X310653Y250041D01*
X311935Y246947D01*
X313795Y244163D01*
X316163Y241795D01*
X318947Y239935D01*
X322041Y238653D01*
X325325Y238000D01*
X328674D01*
X331958Y238653D01*
X335052Y239935D01*
X337837Y241795D01*
X340205Y244163D01*
X342065Y246947D01*
X343346Y250041D01*
X344000Y253326D01*
Y256674D01*
X343346Y259959D01*
X342065Y263053D01*
X340205Y265837D01*
X337837Y268205D01*
X335052Y270065D01*
X331958Y271347D01*
X328674Y272000D01*
D02*
G37*
G36*
X153000Y357500D02*
X141000D01*
Y336500D01*
X143941D01*
Y331500D01*
X141000D01*
Y310500D01*
X143941D01*
Y306500D01*
X141000D01*
Y285500D01*
X143941D01*
Y281500D01*
X141000D01*
Y260500D01*
X144413D01*
Y241054D01*
X143250D01*
X142177Y240840D01*
X141267Y240233D01*
X140660Y239323D01*
X140446Y238250D01*
Y233750D01*
X140660Y232677D01*
X141267Y231768D01*
X142177Y231160D01*
X143250Y230946D01*
X151750D01*
X152823Y231160D01*
X153733Y231768D01*
X154340Y232677D01*
X154554Y233750D01*
Y238250D01*
X154340Y239323D01*
X153733Y240233D01*
X152823Y240840D01*
X151750Y241054D01*
X150530D01*
Y260500D01*
X153000D01*
Y281500D01*
X150059D01*
Y285500D01*
X153000D01*
Y306500D01*
X150059D01*
Y310500D01*
X153000D01*
Y331500D01*
X150059D01*
Y336500D01*
X153000D01*
Y357500D01*
D02*
G37*
G36*
X263137Y253730D02*
X244270D01*
Y227488D01*
X246928Y227750D01*
X250706Y228896D01*
X254187Y230757D01*
X257239Y233261D01*
X259743Y236313D01*
X261604Y239794D01*
X262750Y243571D01*
X263137Y247500D01*
Y253730D01*
D02*
G37*
G36*
X241730D02*
X222863D01*
Y247500D01*
X223250Y243571D01*
X224396Y239794D01*
X226257Y236313D01*
X228761Y233261D01*
X231812Y230757D01*
X235294Y228896D01*
X239071Y227750D01*
X241730Y227488D01*
Y253730D01*
D02*
G37*
G36*
X1330730Y222930D02*
X1321460D01*
Y222812D01*
X1322178Y220132D01*
X1323566Y217728D01*
X1325528Y215766D01*
X1327932Y214378D01*
X1330612Y213660D01*
X1330730D01*
Y222930D01*
D02*
G37*
G36*
X1202270Y207610D02*
Y202270D01*
X1206114D01*
Y203750D01*
X1205820Y205229D01*
X1204983Y206483D01*
X1203729Y207320D01*
X1202270Y207610D01*
D02*
G37*
G36*
X1199730D02*
X1198271Y207320D01*
X1197018Y206483D01*
X1196180Y205229D01*
X1195886Y203750D01*
Y202270D01*
X1199730D01*
Y207610D01*
D02*
G37*
G36*
X1206114Y199730D02*
X1202270D01*
Y194390D01*
X1203729Y194680D01*
X1204983Y195518D01*
X1205820Y196771D01*
X1206114Y198250D01*
Y199730D01*
D02*
G37*
G36*
X1199730D02*
X1195886D01*
Y198250D01*
X1196180Y196771D01*
X1197018Y195518D01*
X1198271Y194680D01*
X1199730Y194390D01*
Y199730D01*
D02*
G37*
G36*
X174750Y231554D02*
X166250D01*
X165177Y231341D01*
X164267Y230733D01*
X163660Y229823D01*
X163446Y228750D01*
Y225434D01*
X157824Y217000D01*
X153500D01*
Y205000D01*
X153655D01*
X153687Y203743D01*
X153687D01*
Y191743D01*
X162687D01*
Y203743D01*
X162532D01*
X162500Y205000D01*
X162500D01*
Y212986D01*
X168140Y221446D01*
X174750D01*
X175823Y221660D01*
X176733Y222267D01*
X177340Y223177D01*
X177554Y224250D01*
Y228750D01*
X177340Y229823D01*
X176733Y230733D01*
X175823Y231341D01*
X174750Y231554D01*
D02*
G37*
G36*
X177227Y196473D02*
X173457D01*
Y191203D01*
X177227D01*
Y196473D01*
D02*
G37*
G36*
X170917D02*
X167147D01*
Y191203D01*
X170917D01*
Y196473D01*
D02*
G37*
G36*
X1185310Y226290D02*
X1182770D01*
Y220000D01*
Y213710D01*
X1183513D01*
Y206164D01*
X1183407Y206093D01*
X1182689Y205018D01*
X1182436Y203750D01*
Y198250D01*
X1182689Y196982D01*
X1183407Y195907D01*
X1183941Y195550D01*
Y192012D01*
X1182761Y190832D01*
X1182000Y188995D01*
Y187006D01*
X1182761Y185168D01*
X1184168Y183761D01*
X1186005Y183000D01*
X1187995D01*
X1189832Y183761D01*
X1191239Y185168D01*
X1192000Y187006D01*
Y188995D01*
X1191239Y190832D01*
X1190059Y192012D01*
Y195550D01*
X1190593Y195907D01*
X1191311Y196982D01*
X1191564Y198250D01*
Y203750D01*
X1191311Y205018D01*
X1190593Y206093D01*
X1189631Y206736D01*
Y214250D01*
X1189770D01*
Y225750D01*
X1185310D01*
Y226290D01*
D02*
G37*
G36*
X674750Y67105D02*
X673770D01*
Y60770D01*
X678104D01*
Y63750D01*
X677849Y65034D01*
X677122Y66122D01*
X676034Y66849D01*
X674750Y67105D01*
D02*
G37*
G36*
X671230D02*
X670250D01*
X668966Y66849D01*
X667878Y66122D01*
X667151Y65034D01*
X666896Y63750D01*
Y60770D01*
X671230D01*
Y67105D01*
D02*
G37*
G36*
X693750Y66554D02*
X689250D01*
X688177Y66340D01*
X687267Y65733D01*
X686660Y64823D01*
X686446Y63750D01*
Y55250D01*
X686660Y54177D01*
X687267Y53267D01*
X688177Y52660D01*
X689250Y52446D01*
X693750D01*
X694823Y52660D01*
X695733Y53267D01*
X696340Y54177D01*
X696554Y55250D01*
Y57778D01*
X701000D01*
Y56500D01*
X711730D01*
X713000Y56500D01*
Y56500D01*
X713000D01*
Y56500D01*
X725000D01*
Y65500D01*
X714270D01*
X713000Y65500D01*
Y65500D01*
X713000D01*
Y65500D01*
X701000D01*
Y63895D01*
X696525D01*
X696340Y64823D01*
X695733Y65733D01*
X694823Y66340D01*
X693750Y66554D01*
D02*
G37*
G36*
X678104Y58230D02*
X673770D01*
Y51896D01*
X674750D01*
X676034Y52151D01*
X677122Y52878D01*
X677849Y53966D01*
X678104Y55250D01*
Y58230D01*
D02*
G37*
G36*
X671230D02*
X666896D01*
Y55250D01*
X667151Y53966D01*
X667878Y52878D01*
X668966Y52151D01*
X670250Y51896D01*
X671230D01*
Y58230D01*
D02*
G37*
G36*
X705730Y52040D02*
X700460D01*
Y48270D01*
X705730D01*
Y52040D01*
D02*
G37*
G36*
Y45730D02*
X700460D01*
Y41960D01*
X705730D01*
Y45730D01*
D02*
G37*
G36*
X1100988Y47540D02*
X1100870D01*
Y38270D01*
X1110140D01*
Y38388D01*
X1109422Y41068D01*
X1108034Y43472D01*
X1106072Y45434D01*
X1103668Y46822D01*
X1100988Y47540D01*
D02*
G37*
G36*
X186588D02*
X186470D01*
Y38270D01*
X195740D01*
Y38388D01*
X195022Y41068D01*
X193634Y43472D01*
X191672Y45434D01*
X189268Y46822D01*
X186588Y47540D01*
D02*
G37*
G36*
X1098330D02*
X1098212D01*
X1095532Y46822D01*
X1093128Y45434D01*
X1091166Y43472D01*
X1089778Y41068D01*
X1089060Y38388D01*
Y38270D01*
X1098330D01*
Y47540D01*
D02*
G37*
G36*
X1110140Y35730D02*
X1100870D01*
Y26460D01*
X1100988D01*
X1103668Y27178D01*
X1106072Y28566D01*
X1108034Y30528D01*
X1109422Y32932D01*
X1110140Y35612D01*
Y35730D01*
D02*
G37*
G36*
X1098330D02*
X1089060D01*
Y35612D01*
X1089778Y32932D01*
X1091166Y30528D01*
X1093128Y28566D01*
X1095532Y27178D01*
X1098212Y26460D01*
X1098330D01*
Y35730D01*
D02*
G37*
G36*
X1164615Y552730D02*
X1150270D01*
Y535885D01*
X1160700D01*
X1162198Y536183D01*
X1163468Y537032D01*
X1164317Y538302D01*
X1164615Y539800D01*
Y552730D01*
D02*
G37*
G36*
X1266105Y554230D02*
X1261770D01*
Y547896D01*
X1262750D01*
X1264034Y548151D01*
X1265122Y548878D01*
X1265849Y549966D01*
X1266105Y551250D01*
Y554230D01*
D02*
G37*
G36*
X1259230D02*
X1254895D01*
Y551250D01*
X1255151Y549966D01*
X1255878Y548878D01*
X1256966Y548151D01*
X1258250Y547896D01*
X1259230D01*
Y554230D01*
D02*
G37*
G36*
X1135040Y483730D02*
X1121270D01*
Y477460D01*
X1135040D01*
Y483730D01*
D02*
G37*
G36*
X1118730D02*
X1104960D01*
Y477460D01*
X1118730D01*
Y483730D01*
D02*
G37*
G36*
X1154610Y455730D02*
X1149270D01*
Y451886D01*
X1150750D01*
X1152229Y452180D01*
X1153483Y453018D01*
X1154320Y454271D01*
X1154610Y455730D01*
D02*
G37*
G36*
X1165750Y449054D02*
X1161250D01*
X1160177Y448840D01*
X1159267Y448233D01*
X1158660Y447323D01*
X1158446Y446250D01*
Y446059D01*
X1153450D01*
X1153093Y446593D01*
X1152018Y447312D01*
X1150750Y447564D01*
X1145250D01*
X1143982Y447312D01*
X1142907Y446593D01*
X1142189Y445518D01*
X1141936Y444250D01*
Y441750D01*
X1142189Y440482D01*
X1142907Y439407D01*
X1143982Y438689D01*
X1145250Y438436D01*
X1150750D01*
X1152018Y438689D01*
X1153093Y439407D01*
X1153450Y439941D01*
X1158446D01*
Y439750D01*
X1158660Y438677D01*
X1159267Y437767D01*
X1160177Y437160D01*
X1161250Y436946D01*
X1165750D01*
X1166823Y437160D01*
X1167733Y437767D01*
X1168340Y438677D01*
X1168554Y439750D01*
Y446250D01*
X1168340Y447323D01*
X1167733Y448233D01*
X1166823Y448840D01*
X1165750Y449054D01*
D02*
G37*
G36*
Y435119D02*
X1165520D01*
Y427270D01*
X1169869D01*
Y431000D01*
X1169556Y432576D01*
X1168663Y433913D01*
X1167326Y434806D01*
X1165750Y435119D01*
D02*
G37*
G36*
X1162980D02*
X1162750D01*
X1161174Y434806D01*
X1159837Y433913D01*
X1158944Y432576D01*
X1158631Y431000D01*
Y427270D01*
X1162980D01*
Y435119D01*
D02*
G37*
G36*
X1196730Y448114D02*
X1195250D01*
X1193771Y447820D01*
X1192518Y446982D01*
X1191680Y445729D01*
X1191390Y444270D01*
X1196730D01*
Y448114D01*
D02*
G37*
G36*
X1213750Y448114D02*
X1212270D01*
Y444270D01*
X1217610D01*
X1217320Y445729D01*
X1216482Y446982D01*
X1215229Y447820D01*
X1213750Y448114D01*
D02*
G37*
G36*
X1196730Y441730D02*
X1191390D01*
X1191680Y440271D01*
X1192518Y439018D01*
X1193771Y438180D01*
X1195250Y437886D01*
X1196730D01*
Y441730D01*
D02*
G37*
G36*
X1217610Y441730D02*
X1212270D01*
Y437886D01*
X1213750D01*
X1215229Y438180D01*
X1216482Y439018D01*
X1217320Y440271D01*
X1217610Y441730D01*
D02*
G37*
G36*
X1200750Y448114D02*
X1199270D01*
Y443000D01*
Y437886D01*
X1200750D01*
X1202229Y438180D01*
X1203483Y439018D01*
X1203736Y439398D01*
X1205264D01*
X1205518Y439018D01*
X1206771Y438180D01*
X1208250Y437886D01*
X1209730D01*
Y443000D01*
Y448114D01*
X1208250D01*
X1206771Y447820D01*
X1205518Y446982D01*
X1205264Y446603D01*
X1203736D01*
X1203483Y446982D01*
X1202229Y447820D01*
X1200750Y448114D01*
D02*
G37*
G36*
X1234180Y437569D02*
X1231180D01*
X1229814Y437297D01*
X1228657Y436523D01*
X1227883Y435366D01*
X1227611Y434000D01*
Y431559D01*
X1221000D01*
X1220892Y431537D01*
X1220783Y431551D01*
X1220597Y431500D01*
X1212000D01*
Y431500D01*
X1211000D01*
Y431500D01*
X1199000D01*
Y422500D01*
X1211000D01*
Y422500D01*
X1212000D01*
Y422500D01*
X1224000D01*
Y425441D01*
X1227611D01*
Y425000D01*
X1227883Y423634D01*
X1228657Y422477D01*
X1229814Y421703D01*
X1231180Y421432D01*
X1234180D01*
X1235546Y421703D01*
X1236703Y422477D01*
X1237477Y423634D01*
X1237749Y425000D01*
Y434000D01*
X1237477Y435366D01*
X1236703Y436523D01*
X1235546Y437297D01*
X1234180Y437569D01*
D02*
G37*
G36*
X1121740Y371540D02*
X1117970D01*
Y366270D01*
X1121740D01*
Y371540D01*
D02*
G37*
G36*
Y363730D02*
X1117970D01*
Y358460D01*
X1121740D01*
Y363730D01*
D02*
G37*
G36*
X1115730Y319730D02*
X1111886D01*
Y318250D01*
X1112180Y316771D01*
X1113018Y315518D01*
X1114271Y314680D01*
X1115730Y314390D01*
Y319730D01*
D02*
G37*
G36*
X1101750Y269114D02*
X1100270D01*
Y265270D01*
X1105610D01*
X1105320Y266729D01*
X1104482Y267983D01*
X1103229Y268820D01*
X1101750Y269114D01*
D02*
G37*
G36*
X1105610Y262730D02*
X1100270D01*
Y258886D01*
X1101750D01*
X1103229Y259180D01*
X1104482Y260018D01*
X1105320Y261271D01*
X1105610Y262730D01*
D02*
G37*
%LPD*%
D13*
X236000Y24500D02*
G03*
X241175Y25621I0J12500D01*
G01*
X174579Y30409D02*
G03*
X185200Y24500I10621J6591D01*
G01*
X1151100Y20515D02*
G03*
X1160715Y24122I-700J16485D01*
G01*
X938778Y11588D02*
G03*
X941009Y11596I1022J28482D01*
G01*
X628510Y24794D02*
G03*
X634360Y22506I6190J7206D01*
G01*
X1284996Y445000D02*
G03*
X1292562Y447064I-28J15000D01*
G01*
X51048Y489380D02*
G03*
X44896Y475797I21982J-18140D01*
G01*
X1292562Y447064D02*
X1310000Y457300D01*
X261400Y37000D02*
X614300D01*
X257400Y33000D02*
X261400Y37000D01*
X241175Y25621D02*
X257400Y33000D01*
X185200Y24500D02*
X236000D01*
X28000Y266600D02*
X174579Y30409D01*
X24000Y270600D02*
X28000Y266600D01*
X1160715Y24122D02*
X1171800Y33000D01*
X941009Y11596D02*
X1151100Y20515D01*
X634360Y22506D02*
X938778Y11588D01*
X614300Y37000D02*
X628510Y24794D01*
X1171800Y33000D02*
X1175800Y37000D01*
X24000Y346800D02*
X44896Y475797D01*
X24000Y321400D02*
Y346800D01*
X1245116Y488266D02*
Y511000D01*
X1270608Y488234D02*
Y511000D01*
X1258117Y488250D02*
Y511000D01*
X1270827Y445000D02*
X1284996D01*
X24000Y296000D02*
Y321400D01*
Y270600D02*
Y296000D01*
X51048Y489380D02*
X151360Y610940D01*
X164060Y636340D01*
X1246000Y530500D02*
Y532000D01*
X1245380Y514500D02*
X1245880Y518000D01*
X1270608Y511000D02*
X1270780Y514500D01*
X1258080D02*
X1258117Y511000D01*
X1245116D02*
X1245380Y514500D01*
X1258283Y445000D02*
X1270827D01*
X1245443D02*
X1258283D01*
X1233000D02*
X1245443D01*
D14*
X147000Y347000D02*
D03*
X115000D02*
D03*
X147000Y321000D02*
D03*
X115000D02*
D03*
X147000Y296000D02*
D03*
X115000D02*
D03*
X147000Y271000D02*
D03*
X115000D02*
D03*
D15*
X158000Y211000D02*
D03*
X172000D02*
D03*
X158187Y197743D02*
D03*
X172187D02*
D03*
X1232000Y532000D02*
D03*
X1246000D02*
D03*
Y544000D02*
D03*
X1232000D02*
D03*
Y556000D02*
D03*
X1246000D02*
D03*
X1214000Y567000D02*
D03*
X1200000D02*
D03*
X1084000Y539000D02*
D03*
X1098000D02*
D03*
X1084000Y553000D02*
D03*
X1098000D02*
D03*
X1084000Y567000D02*
D03*
X1098000D02*
D03*
X1092700Y365000D02*
D03*
X1106700D02*
D03*
X1130700D02*
D03*
X1116700D02*
D03*
X1246000Y568000D02*
D03*
X1232000D02*
D03*
D16*
X170500Y226500D02*
D03*
Y245500D02*
D03*
X147500Y236000D02*
D03*
D17*
X691500Y59500D02*
D03*
X672500D02*
D03*
X682000Y36500D02*
D03*
X1279500Y555500D02*
D03*
X1260500D02*
D03*
X1270000Y532500D02*
D03*
D18*
X719000Y61000D02*
D03*
Y47000D02*
D03*
X707000Y61000D02*
D03*
Y47000D02*
D03*
X1198750Y694919D02*
D03*
Y708919D02*
D03*
X1180095Y694919D02*
D03*
Y708919D02*
D03*
X1161067Y695106D02*
D03*
Y709106D02*
D03*
X1141975Y695116D02*
D03*
Y709116D02*
D03*
X1205000Y427000D02*
D03*
Y413000D02*
D03*
X1218000Y427000D02*
D03*
Y413000D02*
D03*
X1086000Y250000D02*
D03*
Y264000D02*
D03*
X1073000Y250000D02*
D03*
Y264000D02*
D03*
D19*
X1199000Y726000D02*
D03*
Y740000D02*
D03*
X1180000Y726000D02*
D03*
Y740000D02*
D03*
X1161000Y726000D02*
D03*
Y740000D02*
D03*
X1142000Y726000D02*
D03*
Y740000D02*
D03*
X1148000Y457000D02*
D03*
Y443000D02*
D03*
X1198000D02*
D03*
Y457000D02*
D03*
X1211000Y443000D02*
D03*
Y457000D02*
D03*
X1219000Y304000D02*
D03*
Y290000D02*
D03*
X1099000D02*
D03*
Y304000D02*
D03*
X1099000Y264000D02*
D03*
Y250000D02*
D03*
D20*
X1270780Y514500D02*
D03*
X1258080D02*
D03*
X1245380D02*
D03*
X1232680D02*
D03*
Y459500D02*
D03*
X1245380D02*
D03*
X1258080D02*
D03*
X1270780D02*
D03*
Y429500D02*
D03*
X1258080D02*
D03*
X1245380D02*
D03*
X1232680D02*
D03*
Y374500D02*
D03*
X1245380D02*
D03*
X1258080D02*
D03*
X1270780D02*
D03*
D21*
X1120000Y515000D02*
D03*
Y485000D02*
D03*
D22*
X1149000Y554000D02*
D03*
D23*
X1121060Y573050D02*
D03*
Y560350D02*
D03*
Y547650D02*
D03*
Y534950D02*
D03*
X1176940D02*
D03*
Y547650D02*
D03*
Y560350D02*
D03*
Y573050D02*
D03*
D24*
X1177000Y508000D02*
D03*
X1207000D02*
D03*
D25*
X1164250Y426000D02*
D03*
X1181750Y426000D02*
D03*
D26*
X1182500Y443000D02*
D03*
X1163500Y467000D02*
D03*
X1173000D02*
D03*
X1182500D02*
D03*
X1163500Y443000D02*
D03*
D27*
X1201000Y201000D02*
D03*
X1187000D02*
D03*
X1117000Y321000D02*
D03*
X1131000D02*
D03*
X1200000Y553000D02*
D03*
X1214000D02*
D03*
X1200000Y539000D02*
D03*
X1214000D02*
D03*
D28*
X1117000Y289500D02*
D03*
Y284500D02*
D03*
Y279500D02*
D03*
Y274500D02*
D03*
Y269500D02*
D03*
Y264500D02*
D03*
Y259500D02*
D03*
Y254500D02*
D03*
Y249500D02*
D03*
Y244500D02*
D03*
Y239500D02*
D03*
Y234500D02*
D03*
X1201000D02*
D03*
Y239500D02*
D03*
Y244500D02*
D03*
Y249500D02*
D03*
Y254500D02*
D03*
Y259500D02*
D03*
Y264500D02*
D03*
Y269500D02*
D03*
Y274500D02*
D03*
Y279500D02*
D03*
Y284500D02*
D03*
Y289500D02*
D03*
D29*
X1131500Y220000D02*
D03*
X1136500D02*
D03*
X1141500D02*
D03*
X1146500D02*
D03*
X1151500D02*
D03*
X1156500D02*
D03*
X1161500D02*
D03*
X1166500D02*
D03*
X1171500D02*
D03*
X1176500D02*
D03*
X1181500D02*
D03*
X1186500D02*
D03*
X1166500Y304000D02*
D03*
X1171500D02*
D03*
X1176500D02*
D03*
X1181500D02*
D03*
X1156500D02*
D03*
X1151500D02*
D03*
X1146500D02*
D03*
X1161500D02*
D03*
X1186500D02*
D03*
X1141500D02*
D03*
X1131500D02*
D03*
X1136500D02*
D03*
D59*
X1125292Y295078D02*
G03*
X1126057Y291593I13985J1245D01*
G01*
X1125236Y296324D02*
G03*
X1125292Y295078I14040J0D01*
G01*
X1124937Y320246D02*
G03*
X1123691Y323822I-6000J-85D01*
G01*
X1323000Y487700D02*
G03*
X1322184Y491222I-8000J0D01*
G01*
X1321459Y472980D02*
G03*
X1323000Y477700I-6459J4720D01*
G01*
X1141478Y320513D02*
G03*
X1141462Y320952I-6000J0D01*
G01*
X1161481Y321428D02*
G03*
X1161466Y321008I5985J-420D01*
G01*
X1146450Y335982D02*
G03*
X1146412Y336653I-6000J0D01*
G01*
X1156520Y336917D02*
G03*
X1156495Y336365I5975J-552D01*
G01*
X1136500Y221762D02*
G03*
X1135413Y225207I-6000J-0D01*
G01*
X1135226Y225472D02*
G03*
X1134801Y225958I-2456J-1722D01*
G01*
X1134562Y226177D02*
G03*
X1130400Y227761I-4062J-4415D01*
G01*
X1218724Y294625D02*
G03*
X1218713Y294988I-6000J0D01*
G01*
X1191650Y349491D02*
G03*
X1191825Y350443I-5795J1554D01*
G01*
X1191646Y349474D02*
G03*
X1191561Y349110I5800J-1537D01*
G01*
X1196891Y400704D02*
G03*
X1195674Y404968I-5970J602D01*
G01*
X1097496Y303316D02*
G03*
X1095394Y301714I2499J-5455D01*
G01*
X1101200Y361000D02*
G03*
X1101844Y359143I3000J0D01*
G01*
X1090553Y378357D02*
G03*
X1088509Y375065I3803J-4641D01*
G01*
X1087207Y369202D02*
G03*
X1087207Y369200I2993J-201D01*
G01*
X1087277Y369674D02*
G03*
X1087207Y369202I2923J-674D01*
G01*
X1084010Y323141D02*
G03*
X1085294Y318980I5985J-432D01*
G01*
X1083376Y370560D02*
G03*
X1083217Y369485I6824J-1560D01*
G01*
X1089501Y394331D02*
G03*
X1088176Y391560I5499J-4331D01*
G01*
X1144864Y462482D02*
G03*
X1141911Y460880I386J-4232D01*
G01*
X1313528Y290000D02*
G03*
X1316098Y290579I-0J6000D01*
G01*
X1312362Y251619D02*
G03*
X1308549Y253005I-3835J-4614D01*
G01*
X1324969Y241141D02*
G03*
X1326502Y240073I7031J8459D01*
G01*
X1339750Y232006D02*
G03*
X1337433Y233765I-7750J-7806D01*
G01*
X1093880Y245222D02*
G03*
X1096250Y244500I2370J3528D01*
G01*
X1232509Y413000D02*
G03*
X1237462Y415614I-0J6000D01*
G01*
X1163920Y231804D02*
G03*
X1163896Y231841I-5091J-3175D01*
G01*
X1166541Y222694D02*
G03*
X1163920Y231804I-16811J95D01*
G01*
X1151360Y347522D02*
G03*
X1148348Y352725I-6000J-0D01*
G01*
X1185892Y276769D02*
G03*
X1185613Y275805I5604J-2144D01*
G01*
X1176731Y231902D02*
G03*
X1176612Y230712I5881J-1190D01*
G01*
X1188604Y283856D02*
G03*
X1188955Y285270I-5604J2144D01*
G01*
X1190748Y299885D02*
G03*
X1190755Y299949I-2978J365D01*
G01*
X1163385Y295461D02*
G03*
X1166455Y300697I-2931J5236D01*
G01*
X1163383Y295460D02*
G03*
X1163385Y295461I-2929J5237D01*
G01*
X1170634Y295359D02*
G03*
X1171499Y298463I-5135J3104D01*
G01*
X1181501Y297804D02*
G03*
X1181996Y295418I6000J0D01*
G01*
X1182479Y293445D02*
G03*
X1181996Y295418I-5985J-419D01*
G01*
X1215033Y185732D02*
G03*
X1215029Y185724I3665J-1602D01*
G01*
X1202172Y156136D02*
G03*
X1202092Y155939I3670J-1591D01*
G01*
X1202173Y156139D02*
G03*
X1202172Y156136I3669J-1594D01*
G01*
X1161893Y49183D02*
G03*
X1163151Y51207I-4367J4115D01*
G01*
X1161891Y49181D02*
G03*
X1161893Y49183I-4365J4117D01*
G01*
X1203946Y244546D02*
G03*
X1204008Y244546I0J6000D01*
G01*
X1219527Y234095D02*
G03*
X1219503Y234626I-6000J0D01*
G01*
D02*
G03*
X1208343Y244613I-10937J-993D01*
G01*
X1215527Y233611D02*
G03*
X1209527Y239594I-6000J-17D01*
G01*
X1215028Y185720D02*
G03*
X1215527Y188116I-5501J2395D01*
G01*
X1219527Y188088D02*
G03*
X1219527Y188116I-10000J28D01*
G01*
X1218698Y184130D02*
G03*
X1219527Y188088I-9172J3986D01*
G01*
X1145636Y27085D02*
G03*
X1160710Y33166I4764J9915D01*
G01*
X1167953Y461253D02*
G03*
X1170750Y460000I2797J2497D01*
G01*
X1175250D02*
G03*
X1178047Y461253I0J3750D01*
G01*
X1127653Y204428D02*
G03*
X1131496Y210256I-2153J5601D01*
G01*
X1209622Y279590D02*
G03*
X1209924Y279598I0J6000D01*
G01*
X1349682Y258887D02*
G03*
X1350085Y257936I10318J3813D01*
G01*
X1342318Y278813D02*
G03*
X1331422Y285985I-10318J-3813D01*
G01*
X1316447Y259115D02*
G03*
X1313316Y259996I-3131J-5118D01*
G01*
X1313385Y264997D02*
G03*
X1316396Y265821I-25J6000D01*
G01*
X1125617Y536456D02*
G03*
X1131000Y542424I-617J5968D01*
G01*
X1263764Y563360D02*
G03*
X1263113Y563483I-1015J-3610D01*
G01*
X1217143Y573930D02*
G03*
X1216512Y574000I-643J-2930D01*
G01*
X1211500Y574000D02*
G03*
X1210324Y573760I0J-3000D01*
G01*
X1137000Y573007D02*
G03*
X1131000Y567007I0J-6000D01*
G01*
X1232680Y531320D02*
G03*
X1232000Y532000I-680J0D01*
G01*
X1140143Y269350D02*
X1163896Y231841D01*
X1126057Y291593D02*
X1129349Y286396D01*
X1139315Y270657D01*
X1140143Y269350D01*
X1125236Y296324D02*
Y299002D01*
X1124937Y320246D02*
X1125236Y299002D01*
X1123686Y323829D02*
X1123691Y323822D01*
X1094200Y362000D02*
X1123686Y323829D01*
X1092700Y365000D02*
X1094200Y362000D01*
X1323000Y477700D02*
Y487700D01*
X1199000Y740000D02*
X1201750Y738750D01*
X1322184Y491222D01*
X1310000Y457300D02*
X1321459Y472980D01*
X643700Y36524D02*
X680000D01*
X1142000Y686000D02*
Y693616D01*
X1141975Y695116D02*
X1142000Y693616D01*
X1161000Y693606D02*
X1161067Y695106D01*
X1161000Y686000D02*
Y693606D01*
X1199000Y686000D02*
Y693419D01*
X1198750Y694919D02*
X1199000Y693419D01*
X1180000Y686000D02*
Y693419D01*
X1180095Y694919D01*
X1141478Y306750D02*
Y320513D01*
X1161466Y306750D02*
Y321008D01*
X1146450Y306750D02*
Y335982D01*
X1156520Y336917D02*
X1157360Y346000D01*
X1156495Y306750D02*
Y336365D01*
X1180000Y740000D02*
X1199000D01*
X1161000D02*
X1180000D01*
X1142000D02*
X1161000D01*
X1162005Y710606D02*
Y724750D01*
X1161067Y709106D02*
X1162005Y710606D01*
X1162000Y726000D02*
X1162005Y724750D01*
X1127144Y227714D02*
X1130400Y227761D01*
X173500Y214000D02*
X1127144Y227714D01*
X172000Y211000D02*
X173500Y214000D01*
X59000Y270980D02*
X112000D01*
X115000Y271000D01*
X55000Y270600D02*
X59000Y270980D01*
X55000Y296000D02*
X115000D01*
X55000Y321400D02*
X112000D01*
X115000Y321000D01*
X55000Y346800D02*
X112000D01*
X115000Y347000D01*
X1136500Y221762D02*
X1136500Y221762D01*
X1135226Y225472D02*
X1135413Y225207D01*
X1134562Y226177D02*
X1134801Y225958D01*
X1136500Y220000D02*
Y221762D01*
X1161481Y321428D02*
X1162640Y337941D01*
X1161466Y306750D02*
X1161500Y304000D01*
X1156495Y306750D02*
X1156500Y304000D01*
X1140185Y338333D02*
X1141462Y320952D01*
X1141478Y306750D02*
X1141500Y304000D01*
X1145360Y346000D02*
X1146412Y336653D01*
X1146450Y306750D02*
X1146500Y304000D01*
X1198981Y710419D02*
Y724750D01*
X1198750Y708919D02*
X1198981Y710419D01*
Y724750D02*
X1199000Y726000D01*
X1180007Y710419D02*
Y724750D01*
X1180000Y726000D02*
X1180007Y724750D01*
Y710419D02*
X1180095Y708919D01*
X1141998Y710616D02*
Y724750D01*
X1142000Y726000D01*
X1141975Y709116D02*
X1141998Y710616D01*
X1187000Y188000D02*
Y201000D01*
X1218724Y291250D02*
X1219000Y290000D01*
X1218635Y296332D02*
X1218713Y294988D01*
X1218724Y291250D02*
Y294625D01*
X1187366Y328411D02*
X1191561Y349110D01*
X1191646Y349474D02*
X1191650Y349491D01*
X1191825Y350443D02*
X1196891Y400704D01*
X1221750Y290000D02*
X1313528D01*
X1195664Y404981D02*
X1195674Y404968D01*
X1183250Y421000D02*
X1195664Y404981D01*
X1181750Y426000D02*
X1183250Y421000D01*
X1097496Y303316D02*
X1099000Y304000D01*
X1092133Y297819D02*
X1095394Y301714D01*
X1097496Y303316D02*
X1097496Y303316D01*
X1092179Y257000D02*
X1096250Y251250D01*
X1099000Y250000D01*
X1101844Y359143D02*
X1129750Y323750D01*
X1101200Y361000D02*
Y382000D01*
X1099000Y386000D02*
X1101200Y382000D01*
X1129750Y323750D02*
X1131000Y321000D01*
X1088506Y375052D02*
X1088509Y375065D01*
X1085294Y318980D02*
X1085305Y318967D01*
X1087277Y369674D02*
X1088506Y375052D01*
X1087277Y369674D02*
X1087277Y369674D01*
X1087207Y369200D02*
X1087207Y369202D01*
X1084010Y323141D02*
X1087207Y369200D01*
X1095000Y382000D02*
X1099000Y386000D01*
X1090553Y378357D02*
X1095000Y382000D01*
X1085305Y318967D02*
X1096250Y305250D01*
X1099000Y304000D01*
X1165500Y464000D02*
X1167953Y461253D01*
X1076000Y265500D02*
X1083217Y369485D01*
X1083376Y370560D02*
X1088176Y391560D01*
X1089501Y394331D02*
X1141911Y460880D01*
X1161500Y464000D02*
X1163500Y467000D01*
X1073000Y264000D02*
X1076000Y265500D01*
X1144864Y462482D02*
X1161500Y464000D01*
X1186230Y306750D02*
X1186500Y304000D01*
X1186118Y313778D02*
X1186230Y306750D01*
X1332883Y298538D02*
X1356000Y309500D01*
X1316098Y290579D02*
X1332883Y298538D01*
X1313528Y290000D02*
X1313528D01*
X1356000Y309500D02*
X1360000Y313500D01*
X1219000Y290000D02*
X1221750Y290000D01*
X1308538Y253005D02*
X1308549Y253005D01*
X1326502Y240073D02*
X1337433Y233765D01*
X1312362Y251619D02*
X1324969Y241141D01*
X1339750Y232006D02*
X1360000Y211900D01*
X1212354Y253185D02*
X1308538Y253005D01*
X1119750Y259431D02*
X1127420D01*
X1117000Y259500D02*
X1119750Y259431D01*
X1101750Y249492D02*
X1114250D01*
X1099000Y250000D02*
X1101750Y249492D01*
X1114250D02*
X1117000Y249500D01*
X1073000Y250000D02*
X1083000D01*
X1086000Y250000D01*
X1089000Y248500D02*
X1093880Y245222D01*
X1096250Y244500D02*
X1114250D01*
X1086000Y250000D02*
X1089000Y248500D01*
X1218000Y413000D02*
X1232509D01*
X1237462Y415614D02*
X1243880Y425000D01*
X1245380Y429500D01*
X1163919Y231804D02*
X1163920Y231804D01*
X1166500Y220000D02*
X1166541Y222694D01*
X1151360Y347522D02*
X1151360Y347522D01*
Y306750D02*
Y347522D01*
X1132200Y362000D02*
X1148348Y352725D01*
X1130700Y365000D02*
X1132200Y362000D01*
X1151360Y306750D02*
X1151500Y304000D01*
X1185892Y276769D02*
X1188604Y283856D01*
X1176731Y231902D02*
X1185613Y275805D01*
X1176612Y230712D02*
Y230712D01*
Y222750D02*
Y230712D01*
X1188955Y285270D02*
X1190748Y299885D01*
X1190755Y299949D02*
X1202000Y411500D01*
X1205000Y413000D01*
X1176500Y220000D02*
X1176612Y222750D01*
X1191496Y274625D02*
X1198250D01*
X1199470Y274501D01*
X1084000Y539000D02*
X1084000Y536000D01*
Y528000D02*
Y536000D01*
X1163383Y295460D02*
X1163385Y295461D01*
X1159000Y293000D02*
X1163383Y295460D01*
X1166454Y300697D02*
X1166455Y300697D01*
Y301250D01*
X1166500Y304000D01*
X1171499Y298463D02*
X1171499Y298463D01*
Y301250D01*
X1165000Y286000D02*
X1170634Y295359D01*
X1171499Y301250D02*
X1171500Y304000D01*
X1181501Y297804D02*
Y301250D01*
Y297804D02*
Y297804D01*
X1182479Y293445D02*
X1183000Y286000D01*
X1181500Y304000D02*
X1181501Y301250D01*
X1176494Y293026D02*
Y301250D01*
X1176500Y304000D01*
X1215527Y188116D02*
Y233611D01*
X1202173Y156139D02*
X1215029Y185724D01*
X1163151Y51207D02*
X1202092Y155939D01*
X1202172Y156136D02*
X1215028Y185720D01*
X1161891Y49181D02*
X1161893Y49183D01*
X1150400Y37000D02*
X1161891Y49181D01*
X1201000Y244500D02*
X1203750Y244546D01*
X1203946D01*
X1204008Y244546D02*
X1208343Y244613D01*
X1219527Y188116D02*
Y234095D01*
X1203750Y239594D02*
X1209527D01*
X1201000Y239500D02*
X1203750Y239594D01*
X1125000Y37000D02*
X1145636Y27085D01*
X1205842Y154545D02*
X1218698Y184130D01*
X1160710Y33166D02*
X1205842Y154545D01*
X1099000Y386000D02*
X1103000Y390000D01*
X1180250Y421000D01*
X1181750Y426000D01*
X1181971Y440000D02*
X1182500Y443000D01*
X1181971Y431000D02*
Y440000D01*
X1181750Y426000D02*
X1181971Y431000D01*
X1184500Y446000D02*
X1195250Y455750D01*
X1198000Y457000D01*
X1182500Y443000D02*
X1184500Y446000D01*
X1170750Y460000D02*
X1175250D01*
X1180500Y464000D02*
X1182500Y467000D01*
X1163500D02*
X1165500Y464000D01*
X1178047Y461253D02*
X1180500Y464000D01*
X1245880Y518000D02*
X1246000Y530500D01*
X159500Y214000D02*
X166500Y224500D01*
X158000Y211000D02*
X159500Y214000D01*
X166500Y224500D02*
X170500Y226500D01*
X158042Y200743D02*
Y208000D01*
Y200743D02*
X158187Y197743D01*
X158000Y211000D02*
X158042Y208000D01*
X147471Y238000D02*
Y263500D01*
X147000Y271000D02*
X147471Y263500D01*
Y238000D02*
X147500Y236000D01*
X147000Y321000D02*
Y347000D01*
Y296000D02*
Y321000D01*
Y271000D02*
Y296000D01*
X722000Y48500D02*
X1127653Y204428D01*
X1131496Y217250D02*
X1131500Y220000D01*
X1131496Y210256D02*
Y217250D01*
X719000Y47000D02*
X722000Y48500D01*
X693500Y60836D02*
X716000D01*
X691500Y59500D02*
X693500Y60836D01*
X716000D02*
X719000Y61000D01*
X639700Y37000D02*
X643700Y36524D01*
X680000D02*
X682000Y36500D01*
X1203750Y279590D02*
X1209622D01*
X1209924Y279598D02*
X1209936Y279599D01*
X1342318Y278813D02*
X1349682Y258887D01*
X1350085Y257936D02*
X1360000Y237300D01*
X1201000Y279500D02*
X1203750Y279590D01*
X1209936Y279599D02*
X1331422Y285985D01*
X1313304Y259996D02*
X1313316D01*
X1316447Y259115D02*
X1332000Y249600D01*
X1203750Y259770D02*
X1313304Y259996D01*
X1201000Y259500D02*
X1203750Y259770D01*
X1313373Y264997D02*
X1313385Y264997D01*
X1316396Y265821D02*
X1332000Y275000D01*
X1203750Y264770D02*
X1313373Y264997D01*
X1201000Y264500D02*
X1203750Y264770D01*
X1205000Y427000D02*
X1218000D01*
X1221000Y428500D02*
X1231180D01*
X1218000Y427000D02*
X1221000Y428500D01*
X1231180D02*
X1232680Y429500D01*
X1203750Y289770D02*
X1216250D01*
X1201000Y289500D02*
X1203750Y289770D01*
X1216250D02*
X1219000Y290000D01*
X1186572Y203750D02*
Y217250D01*
Y203750D02*
X1187000Y201000D01*
X1186500Y220000D02*
X1186572Y217250D01*
X1114250Y244500D02*
X1117000Y244500D01*
X1101750Y289770D02*
X1114250D01*
X1117000Y289500D01*
X1099000Y290000D02*
X1101750Y289770D01*
X1131419Y306750D02*
Y318250D01*
X1131000Y321000D02*
X1131419Y318250D01*
Y306750D02*
X1131500Y304000D01*
X1124400Y386000D02*
X1129200Y368000D01*
X1130700Y365000D01*
X1148000Y443000D02*
X1163500D01*
X1125560Y536450D02*
X1125617Y536456D01*
X1268000Y536500D02*
X1270000Y532500D01*
X1247500Y541000D02*
X1268000Y536500D01*
X1246000Y544000D02*
X1247500Y541000D01*
Y565000D02*
X1263113Y563483D01*
X1277500Y559500D02*
X1279500Y555500D01*
X1246000Y568000D02*
X1247500Y565000D01*
X1263764Y563360D02*
X1277500Y559500D01*
X1246000Y556000D02*
Y568000D01*
X1211500Y574000D02*
X1216512D01*
X1201500Y570000D02*
X1210324Y573760D01*
X1230500Y571000D02*
X1232000Y568000D01*
X1200000Y567000D02*
X1201500Y570000D01*
X1217143Y573930D02*
X1230500Y571000D01*
X1181440Y546150D02*
X1198750Y541750D01*
X1176940Y547650D02*
X1181440Y546150D01*
X1198750Y541750D02*
X1200000Y539000D01*
X1181440Y558850D02*
X1198750Y555750D01*
X1176940Y560350D02*
X1181440Y558850D01*
X1198750Y555750D02*
X1200000Y553000D01*
X1181440Y571550D02*
X1198500Y570000D01*
X1176940Y573050D02*
X1181440Y571550D01*
X1198500Y570000D02*
X1200000Y567000D01*
X1137000Y573007D02*
X1172440D01*
X1131000Y542424D02*
Y567007D01*
X1172440Y573007D02*
X1176940Y573050D01*
X1125560Y536450D02*
X1125603Y536455D01*
X1121060Y534950D02*
X1125560Y536450D01*
X1099500Y536000D02*
X1116560D01*
X1098000Y539000D02*
X1099500Y536000D01*
X1116560D02*
X1121060Y534950D01*
X1232680Y514500D02*
Y531320D01*
X1232000Y532000D02*
Y544000D01*
X1214000Y553000D02*
Y564000D01*
Y539000D02*
Y553000D01*
Y564000D02*
X1214000Y567000D01*
X1084000Y539000D02*
Y553000D01*
X1099500Y564000D02*
X1116560Y561850D01*
X1098000Y567000D02*
X1099500Y564000D01*
X1116560Y561850D02*
X1121060Y560350D01*
D60*
X1245600Y370144D02*
G03*
X1245582Y370842I-12000J49D01*
G01*
X1245298Y296043D02*
X1245600Y370144D01*
X1245380Y374500D02*
X1245582Y370855D01*
X1245582Y370842D01*
X1258080Y374500D02*
X1270780D01*
X1245380D02*
X1258080D01*
X1232680D02*
X1245380D01*
D61*
X1203779Y461909D02*
G03*
X1201169Y462982I-3029J-3659D01*
G01*
X1184000Y464500D02*
X1201169Y462982D01*
X1182500Y467000D02*
X1184000Y464500D01*
X1208500Y458000D02*
X1211000Y457000D01*
X1203779Y461909D02*
X1208500Y458000D01*
X1213500D02*
X1231180D01*
X1211000Y457000D02*
X1213500Y458000D01*
X1231180D02*
X1232680Y459500D01*
X1245443Y434000D02*
Y445000D01*
X1245380Y429500D02*
X1245443Y434000D01*
X1258080Y429500D02*
X1258283Y434000D01*
Y445000D01*
X1270827Y434000D02*
Y445000D01*
X1270780Y429500D02*
X1270827Y434000D01*
Y445000D02*
Y455000D01*
X1270780Y459500D02*
X1270827Y455000D01*
X1258283Y445000D02*
Y455000D01*
X1258080Y459500D02*
X1258283Y455000D01*
X1245443Y445000D02*
Y455000D01*
X1245380Y459500D02*
X1245443Y455000D01*
X1233000Y445000D02*
Y455000D01*
X1232680Y459500D02*
X1233000Y455000D01*
D62*
X1198795Y489277D02*
G03*
X1202000Y488500I3205J6223D01*
G01*
X1062569Y528062D02*
G03*
X1087330Y515000I24761J16938D01*
G01*
X968805Y262994D02*
G03*
X1023980Y335308I-19765J72287D01*
G01*
X1017077Y499089D02*
G03*
X1002856Y495340I304J-29999D01*
G01*
X1282416Y488220D02*
X1288853Y488212D01*
X1307000Y485700D01*
X1310000Y482700D01*
X1202000Y488500D02*
X1238524Y488275D01*
X1270608Y488234D02*
X1282416Y488220D01*
X1258117Y488250D02*
X1270608Y488234D01*
X1245116Y488266D02*
X1258117Y488250D01*
X1238525Y488275D02*
X1245116Y488266D01*
X1238524Y488275D02*
X1238525D01*
X1177000Y500500D02*
X1198795Y489277D01*
X1177000Y508000D02*
X1177000Y500500D01*
X1176940Y534950D02*
X1177000Y515500D01*
X1177000Y508000D01*
X1087330Y515000D02*
X1120000D01*
X1121060Y534950D02*
X1121065Y515615D01*
X994210Y627990D02*
X1062569Y528062D01*
X981710Y627990D02*
X994210D01*
X1023919Y499149D02*
X1023980Y335363D01*
Y335308D02*
Y335363D01*
X967000Y262500D02*
X968805Y262994D01*
X967000Y255000D02*
Y262500D01*
X1017077Y499089D02*
X1017116Y499089D01*
X1023919Y499149D02*
X1177000Y500500D01*
X1017116Y499089D02*
X1023919Y499149D01*
X967000Y468000D02*
Y475500D01*
X1002856Y495340D01*
D63*
X1099600Y37000D02*
D03*
X1125000D02*
D03*
X1150400D02*
D03*
X185200D02*
D03*
X210600D02*
D03*
X236000D02*
D03*
X1360000Y288100D02*
D03*
Y262700D02*
D03*
Y237300D02*
D03*
Y211900D02*
D03*
X1332000Y224200D02*
D03*
Y249600D02*
D03*
Y275000D02*
D03*
X1124400Y386000D02*
D03*
D64*
X1175800Y37000D02*
D03*
X261400D02*
D03*
X1099000Y386000D02*
D03*
D65*
X981710Y627990D02*
D03*
D66*
X931710Y659990D02*
D03*
D67*
X981710Y689990D02*
D03*
D68*
X1360000Y313500D02*
D03*
X1332000Y300400D02*
D03*
D69*
X1310000Y457300D02*
D03*
X55000Y346800D02*
D03*
Y321400D02*
D03*
Y296000D02*
D03*
X24000Y346800D02*
D03*
Y321400D02*
D03*
Y296000D02*
D03*
X614300Y37000D02*
D03*
D70*
X1310000Y482700D02*
D03*
X55000Y270600D02*
D03*
X24000D02*
D03*
D71*
X639700Y37000D02*
D03*
D72*
X967000Y255000D02*
D03*
X243000D02*
D03*
X967000Y468000D02*
D03*
X243000D02*
D03*
D73*
X939800Y40070D02*
D03*
X73030Y471240D02*
D03*
X1329050Y681420D02*
D03*
X337820Y675700D02*
D03*
X176760Y699840D02*
D03*
X62460D02*
D03*
D74*
X164060Y636340D02*
D03*
X138660D02*
D03*
X113260D02*
D03*
X87860D02*
D03*
X151360Y610940D02*
D03*
X125960D02*
D03*
X100560D02*
D03*
X75160D02*
D03*
D75*
X1142000Y686000D02*
D03*
X1161000D02*
D03*
X1199000D02*
D03*
X1180000D02*
D03*
X1385000Y735000D02*
D03*
X1370000D02*
D03*
X1385000Y720000D02*
D03*
Y705000D02*
D03*
X1355000Y735000D02*
D03*
X1385000Y15000D02*
D03*
Y30000D02*
D03*
X1370000Y15000D02*
D03*
X1355000D02*
D03*
X1385000Y45000D02*
D03*
X15000Y15000D02*
D03*
X30000D02*
D03*
X15000Y30000D02*
D03*
Y45000D02*
D03*
X45000Y15000D02*
D03*
X15000Y705000D02*
D03*
X45000Y735000D02*
D03*
X30000D02*
D03*
X15000Y720000D02*
D03*
Y735000D02*
D03*
X1098000Y528000D02*
D03*
X1191000D02*
D03*
X1207000D02*
D03*
X1221000D02*
D03*
Y508000D02*
D03*
X1110000Y298000D02*
D03*
X188000Y231000D02*
D03*
Y246000D02*
D03*
Y260000D02*
D03*
X170692Y259980D02*
D03*
X172000Y183000D02*
D03*
X188000D02*
D03*
Y198000D02*
D03*
X688000Y80000D02*
D03*
X672404Y79965D02*
D03*
X657000Y80000D02*
D03*
Y60000D02*
D03*
X1103000Y471000D02*
D03*
X1120000D02*
D03*
X1137000D02*
D03*
Y421000D02*
D03*
Y432000D02*
D03*
Y443000D02*
D03*
X1084000Y581000D02*
D03*
X1071000D02*
D03*
Y567000D02*
D03*
Y553000D02*
D03*
X1108000Y544000D02*
D03*
Y555000D02*
D03*
X1140000Y514000D02*
D03*
Y529000D02*
D03*
X1284000Y544000D02*
D03*
X1270000Y544000D02*
D03*
X1185000Y481000D02*
D03*
X1173000D02*
D03*
X1223000Y449000D02*
D03*
Y437000D02*
D03*
X1192000Y433000D02*
D03*
X1173000Y436000D02*
D03*
X1188000Y402000D02*
D03*
X1169000Y407000D02*
D03*
X1172000Y323000D02*
D03*
X1209000Y316000D02*
D03*
X1230000D02*
D03*
X1219000D02*
D03*
X1201000Y188000D02*
D03*
Y214000D02*
D03*
X1085540Y305260D02*
D03*
X1085000Y276000D02*
D03*
X1093000Y336000D02*
D03*
X1155000Y229000D02*
D03*
X1129000Y241000D02*
D03*
X1178000Y209000D02*
D03*
X1170000Y239000D02*
D03*
X1173000Y279000D02*
D03*
X1154000Y264000D02*
D03*
X1174000Y263000D02*
D03*
X1140000Y287000D02*
D03*
X1106000Y331000D02*
D03*
X1162640Y337941D02*
D03*
X1157360Y346000D02*
D03*
X1140185Y338333D02*
D03*
X1145360Y346000D02*
D03*
X1187000Y188000D02*
D03*
X1218635Y296332D02*
D03*
X1187366Y328411D02*
D03*
X1092133Y297819D02*
D03*
X1092179Y257000D02*
D03*
X1245298Y296043D02*
D03*
X1186118Y313778D02*
D03*
X1212354Y253185D02*
D03*
X1127420Y259431D02*
D03*
X1100000Y276000D02*
D03*
X1191496Y274625D02*
D03*
X1084000Y528000D02*
D03*
X1165000Y286000D02*
D03*
X1183000D02*
D03*
X1176494Y293026D02*
D03*
X1159000Y293000D02*
D03*
M02*
